<svg width="160" height="90" viewBox="0 0 320 180" fill="none" xmlns="http://www.w3.org/2000/svg">
  <style>
    path { stroke: black; }
    @media (prefers-color-scheme: dark) { path { stroke: #e0e0e0; } }
  </style>
  <path 
    d="M123.854 19.574C101.699 47.4208 57.8131 103.964 59.5101 107.362C61.6313 111.61 132.338 13.9102 148.601 16.0341C161.611 17.7333 108.298 115.386 80.0152 164" 
    stroke-width="4" stroke-linecap="round" stroke-dasharray="404" stroke-dashoffset="404">
    <animate 
      attributeName="stroke-dashoffset" 
      dur="4s" 
      repeatCount="indefinite"
      values="404; 0; 0; 404; 404"
      keyTimes="0; 0.1; 0.825; 0.925; 1" />
  </path>
  <path 
    d="M18.5 93.9109C50.7896 90.6071 115.369 83.8577 132.338 86.1232C148.601 88.2944 145.066 102.407 133.942 102.407C120.955 102.407 148.765 85.8817 170.52 77.6276C182.797 72.9694 189.5 75.916 189.5 74.5C189.5 73.0841 179.712 74.7957 173.348 76.2117C166.985 77.6276 157 76.2117 157 76.9196C157 77.6276 168.766 78.5525 176.884 72.6718C189.307 63.673 202.338 49.3088 197.389 46.4769C192.439 43.645 160.399 99.3331 164.864 102.407C176.177 110.194 229.914 46.4769 225.5 43C221.086 39.5231 202.338 59.2204 197.389 76.9196C192.439 94.6189 183.323 102.407 184.662 102.407C186 102.407 200.222 76.2522 208 80.5C215.633 84.6686 202.343 98.2342 208 101.5C213.657 104.766 227.507 105.238 233.556 89.6631C237.783 78.7798 229 76.9196 220.722 88C212.444 99.0804 215.773 102.407 220.722 102.407C225.672 102.407 229.317 97.2316 230.732 95.1077C232.146 92.9837 240.065 83.3783 241 85C242.225 87.1239 217.894 102.407 232.035 102.407C246.177 102.407 279.978 55.0931 271.5 50C264.429 45.7522 243.348 96.7428 251.833 102.407C258.621 106.938 285.96 86.4066 282.46 82.4066C279.797 79.3639 270.368 84.4066 268.96 89.6631C267.551 94.9196 272.727 94.7575 277.96 93.4066C292.46 89.6631 286.5 103.407 272.96 103.407C259.419 103.407 292.101 89.6631 302 89.6631"
    stroke-width="4" stroke-linecap="round" stroke-dasharray="984" stroke-dashoffset="984">
    <animate 
      attributeName="stroke-dashoffset"
      dur="4s"
      repeatCount="indefinite"
      values="984; 984; 0; 0; 984; 984"
      keyTimes="0; 0.15; 0.4; 0.7; 0.825; 1" />
  </path>
</svg>