<svg width="250" height="198" viewBox="0 0 250 198" fill="none" xmlns="http://www.w3.org/2000/svg">
<rect width="250" height="198" fill="white"/>
<path d="M179.646 58.6464C179.451 58.8417 179.451 59.1583 179.646 59.3536L182.828 62.5355C183.024 62.7308 183.34 62.7308 183.536 62.5355C183.731 62.3403 183.731 62.0237 183.536 61.8284L180.707 59L183.536 56.1716C183.731 55.9763 183.731 55.6597 183.536 55.4645C183.34 55.2692 183.024 55.2692 182.828 55.4645L179.646 58.6464ZM213 58.5L180 58.5V59.5L213 59.5V58.5Z" fill="black"/>
<path d="M179.646 153.646C179.451 153.842 179.451 154.158 179.646 154.354L182.828 157.536C183.024 157.731 183.34 157.731 183.536 157.536C183.731 157.34 183.731 157.024 183.536 156.828L180.707 154L183.536 151.172C183.731 150.976 183.731 150.66 183.536 150.464C183.34 150.269 183.024 150.269 182.828 150.464L179.646 153.646ZM213 153.5H180V154.5H213V153.5Z" fill="black"/>
<path d="M218.743 61V53.4H219.573V56.45H219.623C219.823 56.1767 220.067 55.9633 220.353 55.81C220.647 55.65 220.96 55.57 221.293 55.57C221.72 55.57 222.103 55.6867 222.443 55.92C222.79 56.1467 223.06 56.4633 223.253 56.87C223.447 57.2767 223.543 57.7367 223.543 58.25C223.543 58.8033 223.447 59.3 223.253 59.74C223.06 60.1733 222.79 60.5133 222.443 60.76C222.103 61.0067 221.72 61.13 221.293 61.13C220.94 61.13 220.62 61.0533 220.333 60.9C220.047 60.7467 219.81 60.5267 219.623 60.24H219.573V61H218.743ZM219.533 58.35C219.533 58.73 219.597 59.07 219.723 59.37C219.857 59.67 220.04 59.9033 220.273 60.07C220.513 60.2367 220.78 60.32 221.073 60.32C221.38 60.32 221.657 60.2367 221.903 60.07C222.15 59.9033 222.343 59.67 222.483 59.37C222.623 59.07 222.693 58.73 222.693 58.35C222.693 57.97 222.623 57.63 222.483 57.33C222.35 57.03 222.163 56.7967 221.923 56.63C221.683 56.4633 221.41 56.38 221.103 56.38C220.803 56.38 220.533 56.4633 220.293 56.63C220.053 56.7967 219.867 57.03 219.733 57.33C219.6 57.63 219.533 57.97 219.533 58.35ZM224.72 63.39V55.7H225.55V56.46H225.6C225.8 56.18 226.043 55.96 226.33 55.8C226.623 55.64 226.937 55.56 227.27 55.56C227.697 55.56 228.08 55.6767 228.42 55.91C228.767 56.1367 229.037 56.4567 229.23 56.87C229.423 57.2767 229.52 57.7367 229.52 58.25C229.52 58.8033 229.423 59.3 229.23 59.74C229.037 60.1733 228.767 60.5133 228.42 60.76C228.08 61.0067 227.697 61.13 227.27 61.13C226.91 61.13 226.587 61.0533 226.3 60.9C226.02 60.7467 225.787 60.5267 225.6 60.24H225.55V63.39H224.72ZM225.51 58.35C225.51 58.73 225.573 59.07 225.7 59.37C225.833 59.67 226.017 59.9033 226.25 60.07C226.483 60.2367 226.75 60.32 227.05 60.32C227.363 60.32 227.643 60.2367 227.89 60.07C228.137 59.9033 228.33 59.67 228.47 59.37C228.61 59.07 228.68 58.73 228.68 58.35C228.68 57.97 228.61 57.63 228.47 57.33C228.337 57.03 228.147 56.7967 227.9 56.63C227.66 56.4633 227.387 56.38 227.08 56.38C226.78 56.38 226.51 56.4633 226.27 56.63C226.03 56.7967 225.843 57.03 225.71 57.33C225.577 57.63 225.51 57.97 225.51 58.35Z" fill="black"/>
<path d="M218.743 156V148.4H219.573V151.45H219.623C219.823 151.177 220.067 150.963 220.353 150.81C220.647 150.65 220.96 150.57 221.293 150.57C221.72 150.57 222.103 150.687 222.443 150.92C222.79 151.147 223.06 151.463 223.253 151.87C223.447 152.277 223.543 152.737 223.543 153.25C223.543 153.803 223.447 154.3 223.253 154.74C223.06 155.173 222.79 155.513 222.443 155.76C222.103 156.007 221.72 156.13 221.293 156.13C220.94 156.13 220.62 156.053 220.333 155.9C220.047 155.747 219.81 155.527 219.623 155.24H219.573V156H218.743ZM219.533 153.35C219.533 153.73 219.597 154.07 219.723 154.37C219.857 154.67 220.04 154.903 220.273 155.07C220.513 155.237 220.78 155.32 221.073 155.32C221.38 155.32 221.657 155.237 221.903 155.07C222.15 154.903 222.343 154.67 222.483 154.37C222.623 154.07 222.693 153.73 222.693 153.35C222.693 152.97 222.623 152.63 222.483 152.33C222.35 152.03 222.163 151.797 221.923 151.63C221.683 151.463 221.41 151.38 221.103 151.38C220.803 151.38 220.533 151.463 220.293 151.63C220.053 151.797 219.867 152.03 219.733 152.33C219.6 152.63 219.533 152.97 219.533 153.35ZM224.72 158.39V150.7H225.55V151.46H225.6C225.8 151.18 226.043 150.96 226.33 150.8C226.623 150.64 226.937 150.56 227.27 150.56C227.697 150.56 228.08 150.677 228.42 150.91C228.767 151.137 229.037 151.457 229.23 151.87C229.423 152.277 229.52 152.737 229.52 153.25C229.52 153.803 229.423 154.3 229.23 154.74C229.037 155.173 228.767 155.513 228.42 155.76C228.08 156.007 227.697 156.13 227.27 156.13C226.91 156.13 226.587 156.053 226.3 155.9C226.02 155.747 225.787 155.527 225.6 155.24H225.55V158.39H224.72ZM225.51 153.35C225.51 153.73 225.573 154.07 225.7 154.37C225.833 154.67 226.017 154.903 226.25 155.07C226.483 155.237 226.75 155.32 227.05 155.32C227.363 155.32 227.643 155.237 227.89 155.07C228.137 154.903 228.33 154.67 228.47 154.37C228.61 154.07 228.68 153.73 228.68 153.35C228.68 152.97 228.61 152.63 228.47 152.33C228.337 152.03 228.147 151.797 227.9 151.63C227.66 151.463 227.387 151.38 227.08 151.38C226.78 151.38 226.51 151.463 226.27 151.63C226.03 151.797 225.843 152.03 225.71 152.33C225.577 152.63 225.51 152.97 225.51 153.35Z" fill="black"/>
<rect x="17" y="126" width="154" height="14" fill="#DCFCE7" stroke="#71717A" stroke-width="2"/>
<rect x="95" y="154" width="76" height="14" fill="#FED7AA" stroke="#71717A" stroke-width="2"/>
<path d="M118.23 156.45C118.563 157.357 118.977 158.107 119.47 158.7C119.97 159.293 120.633 159.837 121.46 160.33L121.04 161.06C120.147 160.487 119.43 159.873 118.89 159.22C118.357 158.567 117.903 157.733 117.53 156.72L118.23 156.45ZM116.37 156.9C115.997 157.76 115.537 158.527 114.99 159.2C114.443 159.873 113.783 160.493 113.01 161.06L112.58 160.4C113.247 159.94 113.843 159.387 114.37 158.74C114.897 158.087 115.33 157.377 115.67 156.61L116.37 156.9ZM113.87 161.21V160.5H119.71C119.683 161.007 119.64 161.637 119.58 162.39C119.527 163.143 119.48 163.703 119.44 164.07C119.407 164.417 119.33 164.687 119.21 164.88C119.097 165.067 118.923 165.2 118.69 165.28C118.463 165.36 118.153 165.4 117.76 165.4H116.44L116.3 164.67H117.53C117.823 164.67 118.047 164.647 118.2 164.6C118.353 164.547 118.463 164.457 118.53 164.33C118.603 164.197 118.653 164.003 118.68 163.75C118.713 163.363 118.75 162.923 118.79 162.43C118.83 161.937 118.86 161.53 118.88 161.21H116.08C116.067 161.317 116.053 161.51 116.04 161.79C116.007 162.403 115.907 162.927 115.74 163.36C115.573 163.787 115.297 164.19 114.91 164.57C114.523 164.95 113.973 165.347 113.26 165.76L112.71 165.07C113.363 164.743 113.867 164.427 114.22 164.12C114.573 163.807 114.823 163.473 114.97 163.12C115.123 162.76 115.23 162.313 115.29 161.78L115.34 161.21H113.87ZM124.11 157.78H122.62V157.11H127.25V157.78H125.91V158.97H127.07V165.08H123.56V165.69H122.94V158.97H124.11V157.78ZM130.64 162.57L131.36 162.71L131.29 164.09C131.263 164.443 131.217 164.707 131.15 164.88C131.083 165.047 130.973 165.163 130.82 165.23C130.673 165.303 130.447 165.34 130.14 165.34H128.96C128.667 165.34 128.44 165.303 128.28 165.23C128.12 165.163 128.007 165.043 127.94 164.87C127.873 164.697 127.84 164.447 127.84 164.12V160.23H130.21V157.89H127.72V157.16H130.95V160.99H128.58V163.96C128.58 164.147 128.593 164.283 128.62 164.37C128.653 164.457 128.71 164.517 128.79 164.55C128.87 164.583 128.997 164.6 129.17 164.6H129.91C130.103 164.6 130.247 164.58 130.34 164.54C130.433 164.5 130.497 164.43 130.53 164.33C130.57 164.23 130.597 164.07 130.61 163.85L130.64 162.57ZM124.69 158.97H125.31V157.78H124.69V158.97ZM124.19 159.63H123.55V161.94C123.803 161.667 123.973 161.38 124.06 161.08C124.147 160.78 124.19 160.35 124.19 159.79V159.63ZM126.07 161.93C125.803 161.93 125.61 161.873 125.49 161.76C125.37 161.647 125.31 161.453 125.31 161.18V159.63H124.69V159.89C124.683 160.49 124.627 160.967 124.52 161.32C124.413 161.673 124.213 162.027 123.92 162.38L123.56 162.11V162.77H126.44V161.93H126.07ZM126.45 161.39V159.63H125.81V160.96C125.81 161.12 125.843 161.233 125.91 161.3C125.977 161.36 126.093 161.39 126.26 161.39H126.45ZM123.56 163.43V164.43H126.44V163.43H123.56ZM138.35 161.89C138.577 162.59 138.93 163.18 139.41 163.66C139.897 164.14 140.553 164.56 141.38 164.92L140.97 165.67C140.23 165.323 139.607 164.913 139.1 164.44C138.6 163.96 138.21 163.397 137.93 162.75C137.723 163.31 137.397 163.827 136.95 164.3C136.51 164.773 135.92 165.25 135.18 165.73L134.75 165.02C135.57 164.54 136.187 164.06 136.6 163.58C137.013 163.093 137.283 162.53 137.41 161.89H135.36V161.15H137.49V160.95V158.88H135.8V158.14H137.5V156.53H138.26V158.14H140.52V161.15H141.36V161.89H138.35ZM135.62 163.16L135.68 163.57C135.293 163.69 134.777 163.853 134.13 164.06C133.483 164.26 133.03 164.407 132.77 164.5L132.59 163.7C132.737 163.667 133.133 163.557 133.78 163.37V160H132.63V159.26H133.78V156.61H134.49V159.26H135.59V160H134.49V163.15C135.043 162.977 135.4 162.86 135.56 162.8L135.62 163.16ZM138.24 160.9C138.24 161.013 138.237 161.097 138.23 161.15H139.8V158.88H138.25L138.24 160.9ZM144.25 159.33V160.25C144.25 161.503 144.177 162.527 144.03 163.32C143.89 164.107 143.64 164.9 143.28 165.7L142.57 165.33C142.817 164.79 143.003 164.29 143.13 163.83C143.263 163.37 143.357 162.85 143.41 162.27C143.47 161.683 143.5 160.943 143.5 160.05V157.03H150.8V159.33H144.25ZM150.04 158.65V157.72H144.25V158.65H150.04ZM150.35 163.61L151.04 163.79L151.01 164.52C150.997 164.88 150.907 165.127 150.74 165.26C150.573 165.393 150.277 165.46 149.85 165.46H147.88C147.48 165.46 147.197 165.38 147.03 165.22C146.87 165.067 146.79 164.777 146.79 164.35V163.66L144.26 163.8L144.22 163.18L146.79 163.02V162.23L144.78 162.35L144.75 161.75L146.79 161.63V160.85C145.923 160.93 145.263 160.983 144.81 161.01L144.75 160.4C145.59 160.347 146.567 160.26 147.68 160.14C148.793 160.02 149.7 159.9 150.4 159.78L150.51 160.38C149.77 160.513 148.773 160.643 147.52 160.77V161.58L150.56 161.4L150.59 162L147.52 162.18V162.98L151.33 162.74L151.37 163.4L147.52 163.62V164.15C147.52 164.397 147.56 164.563 147.64 164.65C147.727 164.73 147.89 164.77 148.13 164.77H149.65C149.843 164.77 149.983 164.757 150.07 164.73C150.157 164.703 150.22 164.653 150.26 164.58C150.3 164.5 150.327 164.373 150.34 164.2L150.35 163.61Z" fill="black"/>
<rect x="95" y="112" width="76" height="14" fill="#86EFAC" stroke="#71717A" stroke-width="2"/>
<path d="M113.8 116.38V117.67H113.04V115.66H116.75C116.637 115.273 116.527 114.937 116.42 114.65L117.2 114.51C117.267 114.677 117.4 115.06 117.6 115.66H120.96V117.68H120.19V116.38H113.8ZM117.95 117.07C118.423 117.317 119.02 117.64 119.74 118.04C120.46 118.433 121.007 118.74 121.38 118.96L121 119.63C120.58 119.37 120.013 119.043 119.3 118.65C118.593 118.257 118.03 117.957 117.61 117.75L117.95 117.07ZM116.39 117.75C115.903 118.077 115.35 118.42 114.73 118.78C114.117 119.14 113.527 119.46 112.96 119.74L112.63 119.02C113.197 118.767 113.783 118.463 114.39 118.11C115.003 117.75 115.533 117.407 115.98 117.08L116.39 117.75ZM120.19 120.4H117.41V122.5H121.18V123.23H112.83V122.5H116.6V120.4H113.82V119.67H120.19V120.4ZM124.87 116.64C124.677 116.427 124.417 116.157 124.09 115.83C123.77 115.497 123.507 115.237 123.3 115.05L123.81 114.53C124.103 114.797 124.637 115.307 125.41 116.06L124.87 116.64ZM125.67 115.14H130.91V122.41C130.91 122.717 130.87 122.95 130.79 123.11C130.717 123.27 130.587 123.383 130.4 123.45C130.213 123.517 129.937 123.55 129.57 123.55H128.48L128.34 122.81H129.32C129.58 122.81 129.77 122.793 129.89 122.76C130.017 122.727 130.1 122.667 130.14 122.58C130.187 122.487 130.21 122.343 130.21 122.15V115.87H125.67V115.14ZM129.25 121.54C129.043 121.333 128.757 121.073 128.39 120.76C128.03 120.447 127.683 120.157 127.35 119.89V122.98H126.63V119.7C126.377 120.127 126.09 120.52 125.77 120.88C125.45 121.233 125.053 121.607 124.58 122L124.11 121.34C124.723 120.847 125.217 120.38 125.59 119.94C125.963 119.5 126.29 118.987 126.57 118.4H124.47V117.68H126.63V116.36H127.35V117.68H129.53V118.4H127.35V119.06L127.68 119.32C127.807 119.42 128.107 119.657 128.58 120.03C129.053 120.397 129.407 120.68 129.64 120.88L129.25 121.54ZM123.79 123.59H123.07V116.51H123.79V123.59ZM138.35 119.89C138.577 120.59 138.93 121.18 139.41 121.66C139.897 122.14 140.553 122.56 141.38 122.92L140.97 123.67C140.23 123.323 139.607 122.913 139.1 122.44C138.6 121.96 138.21 121.397 137.93 120.75C137.723 121.31 137.397 121.827 136.95 122.3C136.51 122.773 135.92 123.25 135.18 123.73L134.75 123.02C135.57 122.54 136.187 122.06 136.6 121.58C137.013 121.093 137.283 120.53 137.41 119.89H135.36V119.15H137.49V118.95V116.88H135.8V116.14H137.5V114.53H138.26V116.14H140.52V119.15H141.36V119.89H138.35ZM135.62 121.16L135.68 121.57C135.293 121.69 134.777 121.853 134.13 122.06C133.483 122.26 133.03 122.407 132.77 122.5L132.59 121.7C132.737 121.667 133.133 121.557 133.78 121.37V118H132.63V117.26H133.78V114.61H134.49V117.26H135.59V118H134.49V121.15C135.043 120.977 135.4 120.86 135.56 120.8L135.62 121.16ZM138.24 118.9C138.24 119.013 138.237 119.097 138.23 119.15H139.8V116.88H138.25L138.24 118.9ZM144.25 117.33V118.25C144.25 119.503 144.177 120.527 144.03 121.32C143.89 122.107 143.64 122.9 143.28 123.7L142.57 123.33C142.817 122.79 143.003 122.29 143.13 121.83C143.263 121.37 143.357 120.85 143.41 120.27C143.47 119.683 143.5 118.943 143.5 118.05V115.03H150.8V117.33H144.25ZM150.04 116.65V115.72H144.25V116.65H150.04ZM150.35 121.61L151.04 121.79L151.01 122.52C150.997 122.88 150.907 123.127 150.74 123.26C150.573 123.393 150.277 123.46 149.85 123.46H147.88C147.48 123.46 147.197 123.38 147.03 123.22C146.87 123.067 146.79 122.777 146.79 122.35V121.66L144.26 121.8L144.22 121.18L146.79 121.02V120.23L144.78 120.35L144.75 119.75L146.79 119.63V118.85C145.923 118.93 145.263 118.983 144.81 119.01L144.75 118.4C145.59 118.347 146.567 118.26 147.68 118.14C148.793 118.02 149.7 117.9 150.4 117.78L150.51 118.38C149.77 118.513 148.773 118.643 147.52 118.77V119.58L150.56 119.4L150.59 120L147.52 120.18V120.98L151.33 120.74L151.37 121.4L147.52 121.62V122.15C147.52 122.397 147.56 122.563 147.64 122.65C147.727 122.73 147.89 122.77 148.13 122.77H149.65C149.843 122.77 149.983 122.757 150.07 122.73C150.157 122.703 150.22 122.653 150.26 122.58C150.3 122.5 150.327 122.373 150.34 122.2L150.35 121.61Z" fill="black"/>
<rect x="17" y="154" width="78" height="14" fill="#86EFAC" stroke="#71717A" stroke-width="2"/>
<path d="M38.8 158.38V159.67H38.04V157.66H41.75C41.6367 157.273 41.5267 156.937 41.42 156.65L42.2 156.51C42.2667 156.677 42.4 157.06 42.6 157.66H45.96V159.68H45.19V158.38H38.8ZM42.95 159.07C43.4233 159.317 44.02 159.64 44.74 160.04C45.46 160.433 46.0067 160.74 46.38 160.96L46 161.63C45.58 161.37 45.0133 161.043 44.3 160.65C43.5933 160.257 43.03 159.957 42.61 159.75L42.95 159.07ZM41.39 159.75C40.9033 160.077 40.35 160.42 39.73 160.78C39.1167 161.14 38.5267 161.46 37.96 161.74L37.63 161.02C38.1967 160.767 38.7833 160.463 39.39 160.11C40.0033 159.75 40.5333 159.407 40.98 159.08L41.39 159.75ZM45.19 162.4H42.41V164.5H46.18V165.23H37.83V164.5H41.6V162.4H38.82V161.67H45.19V162.4ZM49.87 158.64C49.6767 158.427 49.4167 158.157 49.09 157.83C48.77 157.497 48.5067 157.237 48.3 157.05L48.81 156.53C49.1033 156.797 49.6367 157.307 50.41 158.06L49.87 158.64ZM50.67 157.14H55.91V164.41C55.91 164.717 55.87 164.95 55.79 165.11C55.7167 165.27 55.5867 165.383 55.4 165.45C55.2133 165.517 54.9367 165.55 54.57 165.55H53.48L53.34 164.81H54.32C54.58 164.81 54.77 164.793 54.89 164.76C55.0167 164.727 55.1 164.667 55.14 164.58C55.1867 164.487 55.21 164.343 55.21 164.15V157.87H50.67V157.14ZM54.25 163.54C54.0433 163.333 53.7567 163.073 53.39 162.76C53.03 162.447 52.6833 162.157 52.35 161.89V164.98H51.63V161.7C51.3767 162.127 51.09 162.52 50.77 162.88C50.45 163.233 50.0533 163.607 49.58 164L49.11 163.34C49.7233 162.847 50.2167 162.38 50.59 161.94C50.9633 161.5 51.29 160.987 51.57 160.4H49.47V159.68H51.63V158.36H52.35V159.68H54.53V160.4H52.35V161.06L52.68 161.32C52.8067 161.42 53.1067 161.657 53.58 162.03C54.0533 162.397 54.4067 162.68 54.64 162.88L54.25 163.54ZM48.79 165.59H48.07V158.51H48.79V165.59ZM63.35 161.89C63.5767 162.59 63.93 163.18 64.41 163.66C64.8967 164.14 65.5533 164.56 66.38 164.92L65.97 165.67C65.23 165.323 64.6067 164.913 64.1 164.44C63.6 163.96 63.21 163.397 62.93 162.75C62.7233 163.31 62.3967 163.827 61.95 164.3C61.51 164.773 60.92 165.25 60.18 165.73L59.75 165.02C60.57 164.54 61.1867 164.06 61.6 163.58C62.0133 163.093 62.2833 162.53 62.41 161.89H60.36V161.15H62.49V160.95V158.88H60.8V158.14H62.5V156.53H63.26V158.14H65.52V161.15H66.36V161.89H63.35ZM60.62 163.16L60.68 163.57C60.2933 163.69 59.7767 163.853 59.13 164.06C58.4833 164.26 58.03 164.407 57.77 164.5L57.59 163.7C57.7367 163.667 58.1333 163.557 58.78 163.37V160H57.63V159.26H58.78V156.61H59.49V159.26H60.59V160H59.49V163.15C60.0433 162.977 60.4 162.86 60.56 162.8L60.62 163.16ZM63.24 160.9C63.24 161.013 63.2367 161.097 63.23 161.15H64.8V158.88H63.25L63.24 160.9ZM76.34 162.26H72.97C72.89 162.507 72.8167 162.707 72.75 162.86C72.75 162.86 73.56 163.33 75.18 164.27L76.3 164.92L75.91 165.64C75.2233 165.2 74.0433 164.48 72.37 163.48C72.0167 163.953 71.4967 164.36 70.81 164.7C70.1233 165.033 69.17 165.367 67.95 165.7L67.66 164.89C68.6333 164.637 69.4033 164.397 69.97 164.17C70.5433 163.937 71 163.67 71.34 163.37C71.68 163.07 71.9333 162.7 72.1 162.26H67.68V161.53H72.31C72.41 161.01 72.4767 160.327 72.51 159.48C72.5233 159.08 72.5333 158.633 72.54 158.14C72.5533 157.647 72.5633 157.223 72.57 156.87V156.61H73.36C73.36 157.037 73.3533 157.543 73.34 158.13C73.3333 158.71 73.3233 159.197 73.31 159.59C73.2767 160.397 73.2167 161.043 73.13 161.53H76.34V162.26ZM71.44 159.2C71.0467 158.92 70.31 158.42 69.23 157.7C69.07 157.6 68.9733 157.537 68.94 157.51L69.32 156.88C69.6733 157.087 70.0967 157.353 70.59 157.68C71.09 158.007 71.5133 158.293 71.86 158.54L71.44 159.2ZM70.74 161.11C70.26 160.77 69.5267 160.307 68.54 159.72L68.22 159.52L68.6 158.87C69.8467 159.617 70.6967 160.14 71.15 160.44L70.74 161.11Z" fill="black"/>
<rect x="95" y="140" width="76" height="14" fill="#DCFCE7" stroke="#71717A" stroke-width="2"/>
<path d="M122.613 153.39V145.7H123.443V146.46H123.493C123.693 146.18 123.936 145.96 124.223 145.8C124.516 145.64 124.829 145.56 125.163 145.56C125.589 145.56 125.973 145.677 126.313 145.91C126.659 146.137 126.929 146.457 127.123 146.87C127.316 147.277 127.413 147.737 127.413 148.25C127.413 148.803 127.316 149.3 127.123 149.74C126.929 150.173 126.659 150.513 126.313 150.76C125.973 151.007 125.589 151.13 125.163 151.13C124.803 151.13 124.479 151.053 124.193 150.9C123.913 150.747 123.679 150.527 123.493 150.24H123.443V153.39H122.613ZM123.403 148.35C123.403 148.73 123.466 149.07 123.593 149.37C123.726 149.67 123.909 149.903 124.143 150.07C124.376 150.237 124.643 150.32 124.943 150.32C125.256 150.32 125.536 150.237 125.783 150.07C126.029 149.903 126.223 149.67 126.363 149.37C126.503 149.07 126.573 148.73 126.573 148.35C126.573 147.97 126.503 147.63 126.363 147.33C126.229 147.03 126.039 146.797 125.793 146.63C125.553 146.463 125.279 146.38 124.973 146.38C124.673 146.38 124.403 146.463 124.163 146.63C123.923 146.797 123.736 147.03 123.603 147.33C123.469 147.63 123.403 147.97 123.403 148.35ZM128.589 151V145.7H129.419V146.71H129.469C129.689 146.35 129.969 146.07 130.309 145.87C130.649 145.663 131.026 145.56 131.439 145.56H131.509V146.46H131.419C131.012 146.46 130.659 146.527 130.359 146.66C130.059 146.793 129.826 146.977 129.659 147.21C129.499 147.437 129.419 147.683 129.419 147.95V151H128.589ZM136.632 147.9C136.632 148.133 136.612 148.36 136.572 148.58H132.832C132.865 149.133 133.028 149.57 133.322 149.89C133.615 150.21 134.005 150.37 134.492 150.37C134.765 150.37 135.022 150.303 135.262 150.17C135.502 150.037 135.708 149.84 135.882 149.58L136.532 150.03C136.058 150.763 135.378 151.13 134.492 151.13C133.712 151.13 133.095 150.883 132.642 150.39C132.195 149.897 131.972 149.22 131.972 148.36C131.972 147.493 132.185 146.81 132.612 146.31C133.038 145.81 133.625 145.56 134.372 145.56C135.072 145.56 135.622 145.77 136.022 146.19C136.428 146.61 136.632 147.18 136.632 147.9ZM135.782 147.83C135.782 147.37 135.652 147.003 135.392 146.73C135.138 146.457 134.798 146.32 134.372 146.32C133.972 146.32 133.638 146.453 133.372 146.72C133.105 146.987 132.935 147.357 132.862 147.83H135.782ZM139.09 151L137.07 145.7H137.97L139.53 149.95H139.59L141.15 145.7H142.04L139.99 151H139.09Z" fill="black"/>
<rect x="17" y="140" width="78" height="14" fill="#DCFCE7" stroke="#71717A" stroke-width="2"/>
<path d="M47.8616 151V145.7H48.6916V146.45H48.7416C48.9016 146.183 49.1349 145.97 49.4416 145.81C49.7549 145.643 50.0683 145.56 50.3816 145.56C50.9683 145.56 51.4283 145.743 51.7616 146.11C52.0949 146.47 52.2616 146.98 52.2616 147.64V151H51.4316V147.76C51.4316 147.333 51.3116 146.987 51.0716 146.72C50.8316 146.453 50.5316 146.32 50.1716 146.32C49.7316 146.32 49.3749 146.463 49.1016 146.75C48.8283 147.03 48.6916 147.4 48.6916 147.86V151H47.8616ZM58.0526 147.9C58.0526 148.133 58.0326 148.36 57.9926 148.58H54.2526C54.286 149.133 54.4493 149.57 54.7426 149.89C55.036 150.21 55.426 150.37 55.9126 150.37C56.186 150.37 56.4426 150.303 56.6826 150.17C56.9226 150.037 57.1293 149.84 57.3026 149.58L57.9526 150.03C57.4793 150.763 56.7993 151.13 55.9126 151.13C55.1326 151.13 54.516 150.883 54.0626 150.39C53.616 149.897 53.3926 149.22 53.3926 148.36C53.3926 147.493 53.606 146.81 54.0326 146.31C54.4593 145.81 55.046 145.56 55.7926 145.56C56.4926 145.56 57.0426 145.77 57.4426 146.19C57.8493 146.61 58.0526 147.18 58.0526 147.9ZM57.2026 147.83C57.2026 147.37 57.0726 147.003 56.8126 146.73C56.5593 146.457 56.2193 146.32 55.7926 146.32C55.3926 146.32 55.0593 146.453 54.7926 146.72C54.526 146.987 54.356 147.357 54.2826 147.83H57.2026ZM61.3325 148.32L63.1925 151H62.1825L60.8225 148.93L59.4425 151H58.4425L60.3625 148.24L58.5725 145.7H59.5725L60.8925 147.68L62.1525 145.7H63.1325L61.3325 148.32ZM66.6742 146.48H65.1442V149.52C65.1442 149.813 65.2208 150.04 65.3742 150.2C65.5275 150.36 65.7408 150.44 66.0142 150.44C66.1742 150.44 66.3542 150.407 66.5542 150.34V151.1C66.3742 151.173 66.1375 151.21 65.8442 151.21C65.3508 151.21 64.9708 151.07 64.7042 150.79C64.4442 150.51 64.3142 150.107 64.3142 149.58V146.48H63.4842V145.7H64.3142V144.02H65.1442V145.7H66.6742V146.48Z" fill="black"/>
<rect x="17" y="112" width="78" height="14" fill="#FED7AA" stroke="#71717A" stroke-width="2"/>
<path d="M43.23 114.45C43.5633 115.357 43.9767 116.107 44.47 116.7C44.97 117.293 45.6333 117.837 46.46 118.33L46.04 119.06C45.1467 118.487 44.43 117.873 43.89 117.22C43.3567 116.567 42.9033 115.733 42.53 114.72L43.23 114.45ZM41.37 114.9C40.9967 115.76 40.5367 116.527 39.99 117.2C39.4433 117.873 38.7833 118.493 38.01 119.06L37.58 118.4C38.2467 117.94 38.8433 117.387 39.37 116.74C39.8967 116.087 40.33 115.377 40.67 114.61L41.37 114.9ZM38.87 119.21V118.5H44.71C44.6833 119.007 44.64 119.637 44.58 120.39C44.5267 121.143 44.48 121.703 44.44 122.07C44.4067 122.417 44.33 122.687 44.21 122.88C44.0967 123.067 43.9233 123.2 43.69 123.28C43.4633 123.36 43.1533 123.4 42.76 123.4H41.44L41.3 122.67H42.53C42.8233 122.67 43.0467 122.647 43.2 122.6C43.3533 122.547 43.4633 122.457 43.53 122.33C43.6033 122.197 43.6533 122.003 43.68 121.75C43.7133 121.363 43.75 120.923 43.79 120.43C43.83 119.937 43.86 119.53 43.88 119.21H41.08C41.0667 119.317 41.0533 119.51 41.04 119.79C41.0067 120.403 40.9067 120.927 40.74 121.36C40.5733 121.787 40.2967 122.19 39.91 122.57C39.5233 122.95 38.9733 123.347 38.26 123.76L37.71 123.07C38.3633 122.743 38.8667 122.427 39.22 122.12C39.5733 121.807 39.8233 121.473 39.97 121.12C40.1233 120.76 40.23 120.313 40.29 119.78L40.34 119.21H38.87ZM49.11 115.78H47.62V115.11H52.25V115.78H50.91V116.97H52.07V123.08H48.56V123.69H47.94V116.97H49.11V115.78ZM55.64 120.57L56.36 120.71L56.29 122.09C56.2633 122.443 56.2167 122.707 56.15 122.88C56.0833 123.047 55.9733 123.163 55.82 123.23C55.6733 123.303 55.4467 123.34 55.14 123.34H53.96C53.6667 123.34 53.44 123.303 53.28 123.23C53.12 123.163 53.0067 123.043 52.94 122.87C52.8733 122.697 52.84 122.447 52.84 122.12V118.23H55.21V115.89H52.72V115.16H55.95V118.99H53.58V121.96C53.58 122.147 53.5933 122.283 53.62 122.37C53.6533 122.457 53.71 122.517 53.79 122.55C53.87 122.583 53.9967 122.6 54.17 122.6H54.91C55.1033 122.6 55.2467 122.58 55.34 122.54C55.4333 122.5 55.4967 122.43 55.53 122.33C55.57 122.23 55.5967 122.07 55.61 121.85L55.64 120.57ZM49.69 116.97H50.31V115.78H49.69V116.97ZM49.19 117.63H48.55V119.94C48.8033 119.667 48.9733 119.38 49.06 119.08C49.1467 118.78 49.19 118.35 49.19 117.79V117.63ZM51.07 119.93C50.8033 119.93 50.61 119.873 50.49 119.76C50.37 119.647 50.31 119.453 50.31 119.18V117.63H49.69V117.89C49.6833 118.49 49.6267 118.967 49.52 119.32C49.4133 119.673 49.2133 120.027 48.92 120.38L48.56 120.11V120.77H51.44V119.93H51.07ZM51.45 119.39V117.63H50.81V118.96C50.81 119.12 50.8433 119.233 50.91 119.3C50.9767 119.36 51.0933 119.39 51.26 119.39H51.45ZM48.56 121.43V122.43H51.44V121.43H48.56ZM63.35 119.89C63.5767 120.59 63.93 121.18 64.41 121.66C64.8967 122.14 65.5533 122.56 66.38 122.92L65.97 123.67C65.23 123.323 64.6067 122.913 64.1 122.44C63.6 121.96 63.21 121.397 62.93 120.75C62.7233 121.31 62.3967 121.827 61.95 122.3C61.51 122.773 60.92 123.25 60.18 123.73L59.75 123.02C60.57 122.54 61.1867 122.06 61.6 121.58C62.0133 121.093 62.2833 120.53 62.41 119.89H60.36V119.15H62.49V118.95V116.88H60.8V116.14H62.5V114.53H63.26V116.14H65.52V119.15H66.36V119.89H63.35ZM60.62 121.16L60.68 121.57C60.2933 121.69 59.7767 121.853 59.13 122.06C58.4833 122.26 58.03 122.407 57.77 122.5L57.59 121.7C57.7367 121.667 58.1333 121.557 58.78 121.37V118H57.63V117.26H58.78V114.61H59.49V117.26H60.59V118H59.49V121.15C60.0433 120.977 60.4 120.86 60.56 120.8L60.62 121.16ZM63.24 118.9C63.24 119.013 63.2367 119.097 63.23 119.15H64.8V116.88H63.25L63.24 118.9ZM76.34 120.26H72.97C72.89 120.507 72.8167 120.707 72.75 120.86C72.75 120.86 73.56 121.33 75.18 122.27L76.3 122.92L75.91 123.64C75.2233 123.2 74.0433 122.48 72.37 121.48C72.0167 121.953 71.4967 122.36 70.81 122.7C70.1233 123.033 69.17 123.367 67.95 123.7L67.66 122.89C68.6333 122.637 69.4033 122.397 69.97 122.17C70.5433 121.937 71 121.67 71.34 121.37C71.68 121.07 71.9333 120.7 72.1 120.26H67.68V119.53H72.31C72.41 119.01 72.4767 118.327 72.51 117.48C72.5233 117.08 72.5333 116.633 72.54 116.14C72.5533 115.647 72.5633 115.223 72.57 114.87V114.61H73.36C73.36 115.037 73.3533 115.543 73.34 116.13C73.3333 116.71 73.3233 117.197 73.31 117.59C73.2767 118.397 73.2167 119.043 73.13 119.53H76.34V120.26ZM71.44 117.2C71.0467 116.92 70.31 116.42 69.23 115.7C69.07 115.6 68.9733 115.537 68.94 115.51L69.32 114.88C69.6733 115.087 70.0967 115.353 70.59 115.68C71.09 116.007 71.5133 116.293 71.86 116.54L71.44 117.2ZM70.74 119.11C70.26 118.77 69.5267 118.307 68.54 117.72L68.22 117.52L68.6 116.87C69.8467 117.617 70.6967 118.14 71.15 118.44L70.74 119.11Z" fill="black"/>
<rect x="17" y="30" width="154" height="14" fill="#FFEDD6" stroke="#71717A" stroke-width="2"/>
<rect x="95" y="58" width="76" height="14" fill="#CCD5E2" stroke="#71717A" stroke-width="2"/>
<path d="M117.76 65.15C118.213 65.7833 118.75 66.3767 119.37 66.93C119.99 67.4767 120.667 67.95 121.4 68.35L120.93 69.06C120.217 68.6333 119.557 68.1433 118.95 67.59C118.35 67.03 117.827 66.4367 117.38 65.81V69.61H116.63V65.86C116.203 66.4733 115.71 67.0333 115.15 67.54C114.59 68.04 113.887 68.55 113.04 69.07L112.56 68.38C113.427 67.9067 114.157 67.41 114.75 66.89C115.35 66.3633 115.86 65.7833 116.28 65.15H112.79V64.43H116.63V62.72H113.43V61.99H116.63V60.52H117.38V61.99H120.58V62.72H117.38V64.43H121.21V65.15H117.76ZM125.27 62.58L125.26 64.57H126.84V65.32H125.23C125.197 65.6733 125.15 65.9733 125.09 66.22C125.55 66.7333 126.133 67.43 126.84 68.31L126.3 68.85C125.787 68.21 125.3 67.62 124.84 67.08C124.52 67.9467 123.937 68.8233 123.09 69.71L122.54 69.13C123.16 68.5033 123.623 67.8933 123.93 67.3C124.243 66.7 124.433 66.04 124.5 65.32H122.61V64.57H124.53L124.54 62.58H123.87C123.637 63.1733 123.417 63.66 123.21 64.04L122.6 63.67C122.84 63.2033 123.07 62.69 123.29 62.13C123.51 61.5633 123.687 61.0333 123.82 60.54L124.51 60.69C124.39 61.11 124.27 61.4867 124.15 61.82H126.67V62.58H125.27ZM127.34 69.41V61.46H130.84V69.42H130.08V68.49H128.07V69.42L127.34 69.41ZM128.07 62.22V67.74H130.08V62.22H128.07ZM138.35 65.89C138.577 66.59 138.93 67.18 139.41 67.66C139.897 68.14 140.553 68.56 141.38 68.92L140.97 69.67C140.23 69.3233 139.607 68.9133 139.1 68.44C138.6 67.96 138.21 67.3967 137.93 66.75C137.723 67.31 137.397 67.8267 136.95 68.3C136.51 68.7733 135.92 69.25 135.18 69.73L134.75 69.02C135.57 68.54 136.187 68.06 136.6 67.58C137.013 67.0933 137.283 66.53 137.41 65.89H135.36V65.15H137.49V64.95V62.88H135.8V62.14H137.5V60.53H138.26V62.14H140.52V65.15H141.36V65.89H138.35ZM135.62 67.16L135.68 67.57C135.293 67.69 134.777 67.8533 134.13 68.06C133.483 68.26 133.03 68.4067 132.77 68.5L132.59 67.7C132.737 67.6667 133.133 67.5567 133.78 67.37V64H132.63V63.26H133.78V60.61H134.49V63.26H135.59V64H134.49V67.15C135.043 66.9767 135.4 66.86 135.56 66.8L135.62 67.16ZM138.24 64.9C138.24 65.0133 138.237 65.0967 138.23 65.15H139.8V62.88H138.25L138.24 64.9ZM144.25 63.33V64.25C144.25 65.5033 144.177 66.5267 144.03 67.32C143.89 68.1067 143.64 68.9 143.28 69.7L142.57 69.33C142.817 68.79 143.003 68.29 143.13 67.83C143.263 67.37 143.357 66.85 143.41 66.27C143.47 65.6833 143.5 64.9433 143.5 64.05V61.03H150.8V63.33H144.25ZM150.04 62.65V61.72H144.25V62.65H150.04ZM150.35 67.61L151.04 67.79L151.01 68.52C150.997 68.88 150.907 69.1267 150.74 69.26C150.573 69.3933 150.277 69.46 149.85 69.46H147.88C147.48 69.46 147.197 69.38 147.03 69.22C146.87 69.0667 146.79 68.7767 146.79 68.35V67.66L144.26 67.8L144.22 67.18L146.79 67.02V66.23L144.78 66.35L144.75 65.75L146.79 65.63V64.85C145.923 64.93 145.263 64.9833 144.81 65.01L144.75 64.4C145.59 64.3467 146.567 64.26 147.68 64.14C148.793 64.02 149.7 63.9 150.4 63.78L150.51 64.38C149.77 64.5133 148.773 64.6433 147.52 64.77V65.58L150.56 65.4L150.59 66L147.52 66.18V66.98L151.33 66.74L151.37 67.4L147.52 67.62V68.15C147.52 68.3967 147.56 68.5633 147.64 68.65C147.727 68.73 147.89 68.77 148.13 68.77H149.65C149.843 68.77 149.983 68.7567 150.07 68.73C150.157 68.7033 150.22 68.6533 150.26 68.58C150.3 68.5 150.327 68.3733 150.34 68.2L150.35 67.61Z" fill="black"/>
<rect x="95" y="16" width="76" height="14" fill="#FFEDD6" stroke="#71717A" stroke-width="2"/>
<rect x="17" y="58" width="78" height="14" fill="#FED7AA" stroke="#71717A" stroke-width="2"/>
<path d="M43.23 60.45C43.5633 61.3567 43.9767 62.1067 44.47 62.7C44.97 63.2933 45.6333 63.8367 46.46 64.33L46.04 65.06C45.1467 64.4867 44.43 63.8733 43.89 63.22C43.3567 62.5667 42.9033 61.7333 42.53 60.72L43.23 60.45ZM41.37 60.9C40.9967 61.76 40.5367 62.5267 39.99 63.2C39.4433 63.8733 38.7833 64.4933 38.01 65.06L37.58 64.4C38.2467 63.94 38.8433 63.3867 39.37 62.74C39.8967 62.0867 40.33 61.3767 40.67 60.61L41.37 60.9ZM38.87 65.21V64.5H44.71C44.6833 65.0067 44.64 65.6367 44.58 66.39C44.5267 67.1433 44.48 67.7033 44.44 68.07C44.4067 68.4167 44.33 68.6867 44.21 68.88C44.0967 69.0667 43.9233 69.2 43.69 69.28C43.4633 69.36 43.1533 69.4 42.76 69.4H41.44L41.3 68.67H42.53C42.8233 68.67 43.0467 68.6467 43.2 68.6C43.3533 68.5467 43.4633 68.4567 43.53 68.33C43.6033 68.1967 43.6533 68.0033 43.68 67.75C43.7133 67.3633 43.75 66.9233 43.79 66.43C43.83 65.9367 43.86 65.53 43.88 65.21H41.08C41.0667 65.3167 41.0533 65.51 41.04 65.79C41.0067 66.4033 40.9067 66.9267 40.74 67.36C40.5733 67.7867 40.2967 68.19 39.91 68.57C39.5233 68.95 38.9733 69.3467 38.26 69.76L37.71 69.07C38.3633 68.7433 38.8667 68.4267 39.22 68.12C39.5733 67.8067 39.8233 67.4733 39.97 67.12C40.1233 66.76 40.23 66.3133 40.29 65.78L40.34 65.21H38.87ZM49.11 61.78H47.62V61.11H52.25V61.78H50.91V62.97H52.07V69.08H48.56V69.69H47.94V62.97H49.11V61.78ZM55.64 66.57L56.36 66.71L56.29 68.09C56.2633 68.4433 56.2167 68.7067 56.15 68.88C56.0833 69.0467 55.9733 69.1633 55.82 69.23C55.6733 69.3033 55.4467 69.34 55.14 69.34H53.96C53.6667 69.34 53.44 69.3033 53.28 69.23C53.12 69.1633 53.0067 69.0433 52.94 68.87C52.8733 68.6967 52.84 68.4467 52.84 68.12V64.23H55.21V61.89H52.72V61.16H55.95V64.99H53.58V67.96C53.58 68.1467 53.5933 68.2833 53.62 68.37C53.6533 68.4567 53.71 68.5167 53.79 68.55C53.87 68.5833 53.9967 68.6 54.17 68.6H54.91C55.1033 68.6 55.2467 68.58 55.34 68.54C55.4333 68.5 55.4967 68.43 55.53 68.33C55.57 68.23 55.5967 68.07 55.61 67.85L55.64 66.57ZM49.69 62.97H50.31V61.78H49.69V62.97ZM49.19 63.63H48.55V65.94C48.8033 65.6667 48.9733 65.38 49.06 65.08C49.1467 64.78 49.19 64.35 49.19 63.79V63.63ZM51.07 65.93C50.8033 65.93 50.61 65.8733 50.49 65.76C50.37 65.6467 50.31 65.4533 50.31 65.18V63.63H49.69V63.89C49.6833 64.49 49.6267 64.9667 49.52 65.32C49.4133 65.6733 49.2133 66.0267 48.92 66.38L48.56 66.11V66.77H51.44V65.93H51.07ZM51.45 65.39V63.63H50.81V64.96C50.81 65.12 50.8433 65.2333 50.91 65.3C50.9767 65.36 51.0933 65.39 51.26 65.39H51.45ZM48.56 67.43V68.43H51.44V67.43H48.56ZM63.35 65.89C63.5767 66.59 63.93 67.18 64.41 67.66C64.8967 68.14 65.5533 68.56 66.38 68.92L65.97 69.67C65.23 69.3233 64.6067 68.9133 64.1 68.44C63.6 67.96 63.21 67.3967 62.93 66.75C62.7233 67.31 62.3967 67.8267 61.95 68.3C61.51 68.7733 60.92 69.25 60.18 69.73L59.75 69.02C60.57 68.54 61.1867 68.06 61.6 67.58C62.0133 67.0933 62.2833 66.53 62.41 65.89H60.36V65.15H62.49V64.95V62.88H60.8V62.14H62.5V60.53H63.26V62.14H65.52V65.15H66.36V65.89H63.35ZM60.62 67.16L60.68 67.57C60.2933 67.69 59.7767 67.8533 59.13 68.06C58.4833 68.26 58.03 68.4067 57.77 68.5L57.59 67.7C57.7367 67.6667 58.1333 67.5567 58.78 67.37V64H57.63V63.26H58.78V60.61H59.49V63.26H60.59V64H59.49V67.15C60.0433 66.9767 60.4 66.86 60.56 66.8L60.62 67.16ZM63.24 64.9C63.24 65.0133 63.2367 65.0967 63.23 65.15H64.8V62.88H63.25L63.24 64.9ZM76.34 66.26H72.97C72.89 66.5067 72.8167 66.7067 72.75 66.86C72.75 66.86 73.56 67.33 75.18 68.27L76.3 68.92L75.91 69.64C75.2233 69.2 74.0433 68.48 72.37 67.48C72.0167 67.9533 71.4967 68.36 70.81 68.7C70.1233 69.0333 69.17 69.3667 67.95 69.7L67.66 68.89C68.6333 68.6367 69.4033 68.3967 69.97 68.17C70.5433 67.9367 71 67.67 71.34 67.37C71.68 67.07 71.9333 66.7 72.1 66.26H67.68V65.53H72.31C72.41 65.01 72.4767 64.3267 72.51 63.48C72.5233 63.08 72.5333 62.6333 72.54 62.14C72.5533 61.6467 72.5633 61.2233 72.57 60.87V60.61H73.36C73.36 61.0367 73.3533 61.5433 73.34 62.13C73.3333 62.71 73.3233 63.1967 73.31 63.59C73.2767 64.3967 73.2167 65.0433 73.13 65.53H76.34V66.26ZM71.44 63.2C71.0467 62.92 70.31 62.42 69.23 61.7C69.07 61.6 68.9733 61.5367 68.94 61.51L69.32 60.88C69.6733 61.0867 70.0967 61.3533 70.59 61.68C71.09 62.0067 71.5133 62.2933 71.86 62.54L71.44 63.2ZM70.74 65.11C70.26 64.77 69.5267 64.3067 68.54 63.72L68.22 63.52L68.6 62.87C69.8467 63.6167 70.6967 64.14 71.15 64.44L70.74 65.11Z" fill="black"/>
<rect x="17" y="16" width="78" height="14" fill="#CCD5E2" stroke="#71717A" stroke-width="2"/>
<path d="M42.76 23.15C43.2133 23.7833 43.75 24.3767 44.37 24.93C44.99 25.4767 45.6667 25.95 46.4 26.35L45.93 27.06C45.2167 26.6333 44.5567 26.1433 43.95 25.59C43.35 25.03 42.8267 24.4367 42.38 23.81V27.61H41.63V23.86C41.2033 24.4733 40.71 25.0333 40.15 25.54C39.59 26.04 38.8867 26.55 38.04 27.07L37.56 26.38C38.4267 25.9067 39.1567 25.41 39.75 24.89C40.35 24.3633 40.86 23.7833 41.28 23.15H37.79V22.43H41.63V20.72H38.43V19.99H41.63V18.52H42.38V19.99H45.58V20.72H42.38V22.43H46.21V23.15H42.76ZM50.27 20.58L50.26 22.57H51.84V23.32H50.23C50.1967 23.6733 50.15 23.9733 50.09 24.22C50.55 24.7333 51.1333 25.43 51.84 26.31L51.3 26.85C50.7867 26.21 50.3 25.62 49.84 25.08C49.52 25.9467 48.9367 26.8233 48.09 27.71L47.54 27.13C48.16 26.5033 48.6233 25.8933 48.93 25.3C49.2433 24.7 49.4333 24.04 49.5 23.32H47.61V22.57H49.53L49.54 20.58H48.87C48.6367 21.1733 48.4167 21.66 48.21 22.04L47.6 21.67C47.84 21.2033 48.07 20.69 48.29 20.13C48.51 19.5633 48.6867 19.0333 48.82 18.54L49.51 18.69C49.39 19.11 49.27 19.4867 49.15 19.82H51.67V20.58H50.27ZM52.34 27.41V19.46H55.84V27.42H55.08V26.49H53.07V27.42L52.34 27.41ZM53.07 20.22V25.74H55.08V20.22H53.07ZM63.35 23.89C63.5767 24.59 63.93 25.18 64.41 25.66C64.8967 26.14 65.5533 26.56 66.38 26.92L65.97 27.67C65.23 27.3233 64.6067 26.9133 64.1 26.44C63.6 25.96 63.21 25.3967 62.93 24.75C62.7233 25.31 62.3967 25.8267 61.95 26.3C61.51 26.7733 60.92 27.25 60.18 27.73L59.75 27.02C60.57 26.54 61.1867 26.06 61.6 25.58C62.0133 25.0933 62.2833 24.53 62.41 23.89H60.36V23.15H62.49V22.95V20.88H60.8V20.14H62.5V18.53H63.26V20.14H65.52V23.15H66.36V23.89H63.35ZM60.62 25.16L60.68 25.57C60.2933 25.69 59.7767 25.8533 59.13 26.06C58.4833 26.26 58.03 26.4067 57.77 26.5L57.59 25.7C57.7367 25.6667 58.1333 25.5567 58.78 25.37V22H57.63V21.26H58.78V18.61H59.49V21.26H60.59V22H59.49V25.15C60.0433 24.9767 60.4 24.86 60.56 24.8L60.62 25.16ZM63.24 22.9C63.24 23.0133 63.2367 23.0967 63.23 23.15H64.8V20.88H63.25L63.24 22.9ZM76.34 24.26H72.97C72.89 24.5067 72.8167 24.7067 72.75 24.86C72.75 24.86 73.56 25.33 75.18 26.27L76.3 26.92L75.91 27.64C75.2233 27.2 74.0433 26.48 72.37 25.48C72.0167 25.9533 71.4967 26.36 70.81 26.7C70.1233 27.0333 69.17 27.3667 67.95 27.7L67.66 26.89C68.6333 26.6367 69.4033 26.3967 69.97 26.17C70.5433 25.9367 71 25.67 71.34 25.37C71.68 25.07 71.9333 24.7 72.1 24.26H67.68V23.53H72.31C72.41 23.01 72.4767 22.3267 72.51 21.48C72.5233 21.08 72.5333 20.6333 72.54 20.14C72.5533 19.6467 72.5633 19.2233 72.57 18.87V18.61H73.36C73.36 19.0367 73.3533 19.5433 73.34 20.13C73.3333 20.71 73.3233 21.1967 73.31 21.59C73.2767 22.3967 73.2167 23.0433 73.13 23.53H76.34V24.26ZM71.44 21.2C71.0467 20.92 70.31 20.42 69.23 19.7C69.07 19.6 68.9733 19.5367 68.94 19.51L69.32 18.88C69.6733 19.0867 70.0967 19.3533 70.59 19.68C71.09 20.0067 71.5133 20.2933 71.86 20.54L71.44 21.2ZM70.74 23.11C70.26 22.77 69.5267 22.3067 68.54 21.72L68.22 21.52L68.6 20.87C69.8467 21.6167 70.6967 22.14 71.15 22.44L70.74 23.11Z" fill="black"/>
<rect x="17" y="44" width="154" height="14" fill="#FFEDD6" stroke="#71717A" stroke-width="2"/>
<path d="M85.43 47.4H80.09C79.8967 47.7733 79.6767 48.1467 79.43 48.52H84.29V53.44C84.29 53.84 84.2033 54.12 84.03 54.28C83.8567 54.44 83.55 54.52 83.11 54.52H81.76L81.64 53.82H82.85C83.0567 53.82 83.2067 53.8033 83.3 53.77C83.4 53.7367 83.4667 53.68 83.5 53.6C83.5333 53.52 83.55 53.3967 83.55 53.23V52.65H79.04V54.62H78.3V49.99C77.8733 50.4633 77.4033 50.9233 76.89 51.37L76.55 50.61C77.63 49.65 78.52 48.58 79.22 47.4H76.76V46.69H79.6C79.82 46.23 79.9933 45.8167 80.12 45.45L80.89 45.6C80.7567 45.96 80.6067 46.3233 80.44 46.69H85.43V47.4ZM79.04 50.24H83.55V49.2H79.04V50.24ZM79.04 50.89V52H83.55V50.89H79.04ZM93.51 52.02C94.01 52.7667 94.6533 53.4233 95.44 53.99L94.99 54.72C94.21 54.1333 93.5667 53.4633 93.06 52.71C92.5533 53.3767 91.8567 54.0533 90.97 54.74L90.45 54.12C91.4033 53.44 92.1367 52.74 92.65 52.02C92.2033 51.1867 91.88 50.24 91.68 49.18L91.35 49.7L90.89 49.1C91.1833 48.6733 91.4633 48.12 91.73 47.44C92.0033 46.76 92.1967 46.1267 92.31 45.54L93.04 45.65C92.9133 46.1833 92.7567 46.7133 92.57 47.24H95.36V48H94.67C94.57 48.8667 94.4267 49.6233 94.24 50.27C94.06 50.91 93.8167 51.4933 93.51 52.02ZM91.19 46.95V47.64H86.71V46.95H88.7C88.5867 46.5167 88.4633 46.1 88.33 45.7L89.06 45.58C89.14 45.8067 89.2733 46.2633 89.46 46.95H91.19ZM90.75 50.54C90.4233 50.0733 89.89 49.3567 89.15 48.39L89.69 48C90.4833 49.0133 91.0067 49.7 91.26 50.06L90.75 50.54ZM92.18 48.19C92.36 49.41 92.6633 50.4433 93.09 51.29C93.3167 50.85 93.4967 50.3667 93.63 49.84C93.77 49.3067 93.8833 48.6933 93.97 48H92.27L92.18 48.19ZM88.6 48.38C88.1467 49.24 87.6033 50.01 86.97 50.69L86.48 50.23C87.1 49.5367 87.6067 48.8033 88 48.03L88.6 48.38ZM90.14 53.97C89.9133 53.6767 89.5567 53.24 89.07 52.66C88.53 53.4133 87.8333 54.0833 86.98 54.67L86.56 53.98C87.4333 53.42 88.11 52.7933 88.59 52.1C87.99 51.4 87.58 50.93 87.36 50.69L87.89 50.23C88.05 50.3967 88.3267 50.6967 88.72 51.13L89 51.44C89.2533 50.96 89.46 50.46 89.62 49.94L90.27 50.18C90.0633 50.8333 89.8033 51.44 89.49 52C89.9833 52.5667 90.3867 53.0467 90.7 53.44L90.14 53.97ZM97.79 48.54C97.59 48.7133 97.3767 48.8867 97.15 49.06L96.65 48.48C97.9767 47.4733 98.9367 46.4433 99.53 45.39L100.27 45.63C100.117 45.9033 99.98 46.1233 99.86 46.29H103.51V46.98L102.22 48.41H104.31V52.43H103.55V49.13H98.57V52.44H97.79V48.54ZM99.35 46.98C98.95 47.4667 98.48 47.9433 97.94 48.41H101.27L102.54 46.98H99.35ZM104.74 54.7C103.373 53.9533 102.103 53.2767 100.93 52.67C100.65 53.07 100.203 53.4367 99.59 53.77C98.9767 54.1033 98.13 54.4233 97.05 54.73L96.68 53.98C97.8067 53.6933 98.65 53.4 99.21 53.1C99.7767 52.8 100.153 52.4767 100.34 52.13C100.527 51.7767 100.62 51.33 100.62 50.79V49.68H101.41V50.86C101.41 51.3067 101.36 51.69 101.26 52.01C101.747 52.25 102.557 52.6667 103.69 53.26C103.97 53.4 104.23 53.5367 104.47 53.67C104.717 53.7967 104.933 53.9067 105.12 54L104.74 54.7ZM115.33 52.09L115.16 53.34C115.08 53.8067 114.957 54.13 114.79 54.31C114.63 54.4967 114.427 54.59 114.18 54.59C113.947 54.59 113.737 54.5133 113.55 54.36C113.37 54.2067 113.193 53.9567 113.02 53.61C112.927 53.43 112.85 53.25 112.79 53.07C112.377 53.53 111.86 54.0133 111.24 54.52L110.72 53.93C111.453 53.3767 112.06 52.8267 112.54 52.28C112.267 51.32 112.07 50.1233 111.95 48.69H106.66V48.02H108.82V47.11H107.08V46.49H108.82V45.5H109.53V46.49H111.32V47.11H109.53V48.02H111.9C111.9 47.9133 111.893 47.7533 111.88 47.54L111.8 45.44H112.53L112.63 47.66L112.65 48.02H115.29V48.69H112.69C112.777 49.77 112.913 50.72 113.1 51.54C113.547 50.88 113.927 50.0933 114.24 49.18L114.91 49.46C114.677 50.06 114.433 50.5967 114.18 51.07C113.933 51.5433 113.653 51.9867 113.34 52.4C113.427 52.6733 113.527 52.93 113.64 53.17C113.74 53.3833 113.83 53.5333 113.91 53.62C113.99 53.7 114.08 53.74 114.18 53.74C114.26 53.74 114.323 53.6833 114.37 53.57C114.417 53.45 114.47 53.24 114.53 52.94C114.583 52.6267 114.627 52.2767 114.66 51.89L115.33 52.09ZM114.52 47.61C114.267 47.3367 113.78 46.8533 113.06 46.16L113.52 45.7C113.927 46.0667 114.427 46.54 115.02 47.12L114.52 47.61ZM111.43 53.19L109.83 53.31V54.62H109.12V53.37L106.69 53.55L106.64 52.87L109.12 52.69V51.9H107.18V51.28C107.393 50.9467 107.62 50.5767 107.86 50.17H106.75V49.54H108.21C108.33 49.3133 108.45 49.07 108.57 48.81L109.27 48.97L109 49.54H111.55V50.17H108.67C108.503 50.4833 108.293 50.8467 108.04 51.26H109.13V50.52H109.83V51.26H111.43V51.9H109.83V52.64L111.4 52.52L111.42 52.94L111.43 53.19Z" fill="black"/>
<path d="M40.23 78.45C40.5633 79.3567 40.9767 80.1067 41.47 80.7C41.97 81.2933 42.6333 81.8367 43.46 82.33L43.04 83.06C42.1467 82.4867 41.43 81.8733 40.89 81.22C40.3567 80.5667 39.9033 79.7333 39.53 78.72L40.23 78.45ZM38.37 78.9C37.9967 79.76 37.5367 80.5267 36.99 81.2C36.4433 81.8733 35.7833 82.4933 35.01 83.06L34.58 82.4C35.2467 81.94 35.8433 81.3867 36.37 80.74C36.8967 80.0867 37.33 79.3767 37.67 78.61L38.37 78.9ZM35.87 83.21V82.5H41.71C41.6833 83.0067 41.64 83.6367 41.58 84.39C41.5267 85.1433 41.48 85.7033 41.44 86.07C41.4067 86.4167 41.33 86.6867 41.21 86.88C41.0967 87.0667 40.9233 87.2 40.69 87.28C40.4633 87.36 40.1533 87.4 39.76 87.4H38.44L38.3 86.67H39.53C39.8233 86.67 40.0467 86.6467 40.2 86.6C40.3533 86.5467 40.4633 86.4567 40.53 86.33C40.6033 86.1967 40.6533 86.0033 40.68 85.75C40.7133 85.3633 40.75 84.9233 40.79 84.43C40.83 83.9367 40.86 83.53 40.88 83.21H38.08C38.0667 83.3167 38.0533 83.51 38.04 83.79C38.0067 84.4033 37.9067 84.9267 37.74 85.36C37.5733 85.7867 37.2967 86.19 36.91 86.57C36.5233 86.95 35.9733 87.3467 35.26 87.76L34.71 87.07C35.3633 86.7433 35.8667 86.4267 36.22 86.12C36.5733 85.8067 36.8233 85.4733 36.97 85.12C37.1233 84.76 37.23 84.3133 37.29 83.78L37.34 83.21H35.87ZM46.11 79.78H44.62V79.11H49.25V79.78H47.91V80.97H49.07V87.08H45.56V87.69H44.94V80.97H46.11V79.78ZM52.64 84.57L53.36 84.71L53.29 86.09C53.2633 86.4433 53.2167 86.7067 53.15 86.88C53.0833 87.0467 52.9733 87.1633 52.82 87.23C52.6733 87.3033 52.4467 87.34 52.14 87.34H50.96C50.6667 87.34 50.44 87.3033 50.28 87.23C50.12 87.1633 50.0067 87.0433 49.94 86.87C49.8733 86.6967 49.84 86.4467 49.84 86.12V82.23H52.21V79.89H49.72V79.16H52.95V82.99H50.58V85.96C50.58 86.1467 50.5933 86.2833 50.62 86.37C50.6533 86.4567 50.71 86.5167 50.79 86.55C50.87 86.5833 50.9967 86.6 51.17 86.6H51.91C52.1033 86.6 52.2467 86.58 52.34 86.54C52.4333 86.5 52.4967 86.43 52.53 86.33C52.57 86.23 52.5967 86.07 52.61 85.85L52.64 84.57ZM46.69 80.97H47.31V79.78H46.69V80.97ZM46.19 81.63H45.55V83.94C45.8033 83.6667 45.9733 83.38 46.06 83.08C46.1467 82.78 46.19 82.35 46.19 81.79V81.63ZM48.07 83.93C47.8033 83.93 47.61 83.8733 47.49 83.76C47.37 83.6467 47.31 83.4533 47.31 83.18V81.63H46.69V81.89C46.6833 82.49 46.6267 82.9667 46.52 83.32C46.4133 83.6733 46.2133 84.0267 45.92 84.38L45.56 84.11V84.77H48.44V83.93H48.07ZM48.45 83.39V81.63H47.81V82.96C47.81 83.12 47.8433 83.2333 47.91 83.3C47.9767 83.36 48.0933 83.39 48.26 83.39H48.45ZM45.56 85.43V86.43H48.44V85.43H45.56ZM60.35 83.89C60.5767 84.59 60.93 85.18 61.41 85.66C61.8967 86.14 62.5533 86.56 63.38 86.92L62.97 87.67C62.23 87.3233 61.6067 86.9133 61.1 86.44C60.6 85.96 60.21 85.3967 59.93 84.75C59.7233 85.31 59.3967 85.8267 58.95 86.3C58.51 86.7733 57.92 87.25 57.18 87.73L56.75 87.02C57.57 86.54 58.1867 86.06 58.6 85.58C59.0133 85.0933 59.2833 84.53 59.41 83.89H57.36V83.15H59.49V82.95V80.88H57.8V80.14H59.5V78.53H60.26V80.14H62.52V83.15H63.36V83.89H60.35ZM57.62 85.16L57.68 85.57C57.2933 85.69 56.7767 85.8533 56.13 86.06C55.4833 86.26 55.03 86.4067 54.77 86.5L54.59 85.7C54.7367 85.6667 55.1333 85.5567 55.78 85.37V82H54.63V81.26H55.78V78.61H56.49V81.26H57.59V82H56.49V85.15C57.0433 84.9767 57.4 84.86 57.56 84.8L57.62 85.16ZM60.24 82.9C60.24 83.0133 60.2367 83.0967 60.23 83.15H61.8V80.88H60.25L60.24 82.9ZM67.02 82.7H65.98V81.66H67.02V82.7ZM67.02 87H65.98V85.95H67.02V87ZM83.43 80.4H78.09C77.8967 80.7733 77.6767 81.1467 77.43 81.52H82.29V86.44C82.29 86.84 82.2033 87.12 82.03 87.28C81.8567 87.44 81.55 87.52 81.11 87.52H79.76L79.64 86.82H80.85C81.0567 86.82 81.2067 86.8033 81.3 86.77C81.4 86.7367 81.4667 86.68 81.5 86.6C81.5333 86.52 81.55 86.3967 81.55 86.23V85.65H77.04V87.62H76.3V82.99C75.8733 83.4633 75.4033 83.9233 74.89 84.37L74.55 83.61C75.63 82.65 76.52 81.58 77.22 80.4H74.76V79.69H77.6C77.82 79.23 77.9933 78.8167 78.12 78.45L78.89 78.6C78.7567 78.96 78.6067 79.3233 78.44 79.69H83.43V80.4ZM77.04 83.24H81.55V82.2H77.04V83.24ZM77.04 83.89V85H81.55V83.89H77.04ZM91.51 85.02C92.01 85.7667 92.6533 86.4233 93.44 86.99L92.99 87.72C92.21 87.1333 91.5667 86.4633 91.06 85.71C90.5533 86.3767 89.8567 87.0533 88.97 87.74L88.45 87.12C89.4033 86.44 90.1367 85.74 90.65 85.02C90.2033 84.1867 89.88 83.24 89.68 82.18L89.35 82.7L88.89 82.1C89.1833 81.6733 89.4633 81.12 89.73 80.44C90.0033 79.76 90.1967 79.1267 90.31 78.54L91.04 78.65C90.9133 79.1833 90.7567 79.7133 90.57 80.24H93.36V81H92.67C92.57 81.8667 92.4267 82.6233 92.24 83.27C92.06 83.91 91.8167 84.4933 91.51 85.02ZM89.19 79.95V80.64H84.71V79.95H86.7C86.5867 79.5167 86.4633 79.1 86.33 78.7L87.06 78.58C87.14 78.8067 87.2733 79.2633 87.46 79.95H89.19ZM88.75 83.54C88.4233 83.0733 87.89 82.3567 87.15 81.39L87.69 81C88.4833 82.0133 89.0067 82.7 89.26 83.06L88.75 83.54ZM90.18 81.19C90.36 82.41 90.6633 83.4433 91.09 84.29C91.3167 83.85 91.4967 83.3667 91.63 82.84C91.77 82.3067 91.8833 81.6933 91.97 81H90.27L90.18 81.19ZM86.6 81.38C86.1467 82.24 85.6033 83.01 84.97 83.69L84.48 83.23C85.1 82.5367 85.6067 81.8033 86 81.03L86.6 81.38ZM88.14 86.97C87.9133 86.6767 87.5567 86.24 87.07 85.66C86.53 86.4133 85.8333 87.0833 84.98 87.67L84.56 86.98C85.4333 86.42 86.11 85.7933 86.59 85.1C85.99 84.4 85.58 83.93 85.36 83.69L85.89 83.23C86.05 83.3967 86.3267 83.6967 86.72 84.13L87 84.44C87.2533 83.96 87.46 83.46 87.62 82.94L88.27 83.18C88.0633 83.8333 87.8033 84.44 87.49 85C87.9833 85.5667 88.3867 86.0467 88.7 86.44L88.14 86.97ZM95.79 81.54C95.59 81.7133 95.3767 81.8867 95.15 82.06L94.65 81.48C95.9767 80.4733 96.9367 79.4433 97.53 78.39L98.27 78.63C98.1167 78.9033 97.98 79.1233 97.86 79.29H101.51V79.98L100.22 81.41H102.31V85.43H101.55V82.13H96.57V85.44H95.79V81.54ZM97.35 79.98C96.95 80.4667 96.48 80.9433 95.94 81.41H99.27L100.54 79.98H97.35ZM102.74 87.7C101.373 86.9533 100.103 86.2767 98.93 85.67C98.65 86.07 98.2033 86.4367 97.59 86.77C96.9767 87.1033 96.13 87.4233 95.05 87.73L94.68 86.98C95.8067 86.6933 96.65 86.4 97.21 86.1C97.7767 85.8 98.1533 85.4767 98.34 85.13C98.5267 84.7767 98.62 84.33 98.62 83.79V82.68H99.41V83.86C99.41 84.3067 99.36 84.69 99.26 85.01C99.7467 85.25 100.557 85.6667 101.69 86.26C101.97 86.4 102.23 86.5367 102.47 86.67C102.717 86.7967 102.933 86.9067 103.12 87L102.74 87.7ZM113.33 85.09L113.16 86.34C113.08 86.8067 112.957 87.13 112.79 87.31C112.63 87.4967 112.427 87.59 112.18 87.59C111.947 87.59 111.737 87.5133 111.55 87.36C111.37 87.2067 111.193 86.9567 111.02 86.61C110.927 86.43 110.85 86.25 110.79 86.07C110.377 86.53 109.86 87.0133 109.24 87.52L108.72 86.93C109.453 86.3767 110.06 85.8267 110.54 85.28C110.267 84.32 110.07 83.1233 109.95 81.69H104.66V81.02H106.82V80.11H105.08V79.49H106.82V78.5H107.53V79.49H109.32V80.11H107.53V81.02H109.9C109.9 80.9133 109.893 80.7533 109.88 80.54L109.8 78.44H110.53L110.63 80.66L110.65 81.02H113.29V81.69H110.69C110.777 82.77 110.913 83.72 111.1 84.54C111.547 83.88 111.927 83.0933 112.24 82.18L112.91 82.46C112.677 83.06 112.433 83.5967 112.18 84.07C111.933 84.5433 111.653 84.9867 111.34 85.4C111.427 85.6733 111.527 85.93 111.64 86.17C111.74 86.3833 111.83 86.5333 111.91 86.62C111.99 86.7 112.08 86.74 112.18 86.74C112.26 86.74 112.323 86.6833 112.37 86.57C112.417 86.45 112.47 86.24 112.53 85.94C112.583 85.6267 112.627 85.2767 112.66 84.89L113.33 85.09ZM112.52 80.61C112.267 80.3367 111.78 79.8533 111.06 79.16L111.52 78.7C111.927 79.0667 112.427 79.54 113.02 80.12L112.52 80.61ZM109.43 86.19L107.83 86.31V87.62H107.12V86.37L104.69 86.55L104.64 85.87L107.12 85.69V84.9H105.18V84.28C105.393 83.9467 105.62 83.5767 105.86 83.17H104.75V82.54H106.21C106.33 82.3133 106.45 82.07 106.57 81.81L107.27 81.97L107 82.54H109.55V83.17H106.67C106.503 83.4833 106.293 83.8467 106.04 84.26H107.13V83.52H107.83V84.26H109.43V84.9H107.83V85.64L109.4 85.52L109.42 85.94L109.43 86.19ZM123.06 80.08C123.04 80.8 123.007 81.82 122.96 83.14C122.92 84.4533 122.887 85.4633 122.86 86.17C122.847 86.49 122.79 86.7433 122.69 86.93C122.597 87.11 122.443 87.24 122.23 87.32C122.023 87.4 121.74 87.44 121.38 87.44H120.12L119.97 86.66H121.15C121.41 86.66 121.607 86.6367 121.74 86.59C121.88 86.5433 121.98 86.46 122.04 86.34C122.1 86.2133 122.133 86.03 122.14 85.79L122.23 83.17L122.3 80.84H119.98C119.773 81.3333 119.53 81.8133 119.25 82.28L118.59 81.84C118.903 81.3667 119.19 80.8067 119.45 80.16C119.717 79.5067 119.917 78.8967 120.05 78.33L120.79 78.51C120.663 79.0233 120.497 79.5467 120.29 80.08H123.06ZM117.29 78.54C117.21 78.94 117.083 79.4433 116.91 80.05H118.48V86.93H115.76V87.59H115.04V80.05H116.1C116.227 79.6633 116.36 79.1133 116.5 78.4L117.29 78.54ZM115.76 83.12H117.76V80.82H115.76V83.12ZM120.74 84.77C120.313 84.11 119.837 83.4433 119.31 82.77L119.86 82.32C120.453 83.04 120.96 83.7067 121.38 84.32L120.74 84.77ZM115.76 83.89V86.16H117.76V83.89H115.76ZM133.36 80.45H129.33C129.23 80.87 129.14 81.21 129.06 81.47H132.19V87.65H131.44V87.04H126.55V87.67H125.79V81.47H128.24C128.36 81.0367 128.45 80.6967 128.51 80.45H124.64V79.77H127.39C127.143 79.4567 126.87 79.1133 126.57 78.74L127.17 78.33L127.44 78.66C127.513 78.7533 127.62 78.8867 127.76 79.06C127.9 79.2333 128.007 79.3733 128.08 79.48L127.62 79.77H129.78C130.22 79.19 130.55 78.72 130.77 78.36L131.48 78.69C131.18 79.1233 130.92 79.4833 130.7 79.77H133.36V80.45ZM126.55 83.11H131.44V82.14H126.55V83.11ZM131.44 83.78H126.55V84.75H131.44V83.78ZM126.55 85.41V86.38H131.44V85.41H126.55ZM142.23 80.46H135.73V81.8H134.98V79.73H138.85L138.35 78.6L139.15 78.4L139.72 79.73H143V81.8H142.23V80.46ZM143.36 84.07V84.81H139.52V86.29C139.52 86.6367 139.487 86.8967 139.42 87.07C139.353 87.2433 139.233 87.36 139.06 87.42C138.893 87.4867 138.637 87.52 138.29 87.52H136.94L136.79 86.79H138.02C138.233 86.79 138.387 86.7733 138.48 86.74C138.58 86.7 138.647 86.6333 138.68 86.54C138.713 86.44 138.73 86.2833 138.73 86.07V84.81H134.62V84.07H138.73V83.55L140.49 82.34H136.18V81.61H141.77V82.33L139.52 83.84V84.07H143.36ZM150.96 78.53V79.76H153.41V80.54H150.96V81.52H150.19V80.54H147.8V81.52H147.03V80.54H144.57V79.76H147.03V78.53H147.8V79.76H150.19V78.53H150.96ZM144.87 82.84V82.08H152.4C152.393 82.3667 152.377 82.81 152.35 83.41C152.33 84.0033 152.31 84.5233 152.29 84.97C152.27 85.3567 152.207 85.6533 152.1 85.86C152 86.0667 151.837 86.2133 151.61 86.3C151.383 86.38 151.06 86.42 150.64 86.42H149.23L149.09 85.65H150.35C150.67 85.65 150.903 85.6267 151.05 85.58C151.203 85.5267 151.31 85.4367 151.37 85.31C151.437 85.1767 151.48 84.97 151.5 84.69L151.58 82.84H148.27V87.73H147.47V82.84H144.87Z" fill="black"/>
<path d="M26.1926 175.38V176.67H25.4326V174.66H29.1426C29.0292 174.273 28.9192 173.937 28.8126 173.65L29.5926 173.51C29.6592 173.677 29.7926 174.06 29.9926 174.66H33.3526V176.68H32.5826V175.38H26.1926ZM30.3426 176.07C30.8159 176.317 31.4126 176.64 32.1326 177.04C32.8526 177.433 33.3992 177.74 33.7726 177.96L33.3926 178.63C32.9726 178.37 32.4059 178.043 31.6926 177.65C30.9859 177.257 30.4226 176.957 30.0026 176.75L30.3426 176.07ZM28.7826 176.75C28.2959 177.077 27.7426 177.42 27.1226 177.78C26.5092 178.14 25.9192 178.46 25.3526 178.74L25.0226 178.02C25.5892 177.767 26.1759 177.463 26.7826 177.11C27.3959 176.75 27.9259 176.407 28.3726 176.08L28.7826 176.75ZM32.5826 179.4H29.8026V181.5H33.5726V182.23H25.2226V181.5H28.9926V179.4H26.2126V178.67H32.5826V179.4ZM37.2626 175.64C37.0692 175.427 36.8092 175.157 36.4826 174.83C36.1626 174.497 35.8992 174.237 35.6926 174.05L36.2026 173.53C36.4959 173.797 37.0292 174.307 37.8026 175.06L37.2626 175.64ZM38.0626 174.14H43.3026V181.41C43.3026 181.717 43.2626 181.95 43.1826 182.11C43.1092 182.27 42.9792 182.383 42.7926 182.45C42.6059 182.517 42.3292 182.55 41.9626 182.55H40.8726L40.7326 181.81H41.7126C41.9726 181.81 42.1626 181.793 42.2826 181.76C42.4092 181.727 42.4926 181.667 42.5326 181.58C42.5792 181.487 42.6026 181.343 42.6026 181.15V174.87H38.0626V174.14ZM41.6426 180.54C41.4359 180.333 41.1492 180.073 40.7826 179.76C40.4226 179.447 40.0759 179.157 39.7426 178.89V181.98H39.0226V178.7C38.7692 179.127 38.4826 179.52 38.1626 179.88C37.8426 180.233 37.4459 180.607 36.9726 181L36.5026 180.34C37.1159 179.847 37.6092 179.38 37.9826 178.94C38.3559 178.5 38.6826 177.987 38.9626 177.4H36.8626V176.68H39.0226V175.36H39.7426V176.68H41.9226V177.4H39.7426V178.06L40.0726 178.32C40.1992 178.42 40.4992 178.657 40.9726 179.03C41.4459 179.397 41.7992 179.68 42.0326 179.88L41.6426 180.54ZM36.1826 182.59H35.4626V175.51H36.1826V182.59ZM50.7426 178.89C50.9692 179.59 51.3226 180.18 51.8026 180.66C52.2892 181.14 52.9459 181.56 53.7726 181.92L53.3626 182.67C52.6226 182.323 51.9992 181.913 51.4926 181.44C50.9926 180.96 50.6026 180.397 50.3226 179.75C50.1159 180.31 49.7892 180.827 49.3426 181.3C48.9026 181.773 48.3126 182.25 47.5726 182.73L47.1426 182.02C47.9626 181.54 48.5792 181.06 48.9926 180.58C49.4059 180.093 49.6759 179.53 49.8026 178.89H47.7526V178.15H49.8826V177.95V175.88H48.1926V175.14H49.8926V173.53H50.6526V175.14H52.9126V178.15H53.7526V178.89H50.7426ZM48.0126 180.16L48.0726 180.57C47.6859 180.69 47.1692 180.853 46.5226 181.06C45.8759 181.26 45.4226 181.407 45.1626 181.5L44.9826 180.7C45.1292 180.667 45.5259 180.557 46.1726 180.37V177H45.0226V176.26H46.1726V173.61H46.8826V176.26H47.9826V177H46.8826V180.15C47.4359 179.977 47.7926 179.86 47.9526 179.8L48.0126 180.16ZM50.6326 177.9C50.6326 178.013 50.6292 178.097 50.6226 178.15H52.1926V175.88H50.6426L50.6326 177.9ZM57.4126 177.7H56.3726V176.66H57.4126V177.7ZM57.4126 182H56.3726V180.95H57.4126V182ZM65.1126 184.39V176.7H65.9426V177.46H65.9926C66.1926 177.18 66.4359 176.96 66.7226 176.8C67.0159 176.64 67.3292 176.56 67.6626 176.56C68.0892 176.56 68.4726 176.677 68.8126 176.91C69.1592 177.137 69.4292 177.457 69.6226 177.87C69.8159 178.277 69.9126 178.737 69.9126 179.25C69.9126 179.803 69.8159 180.3 69.6226 180.74C69.4292 181.173 69.1592 181.513 68.8126 181.76C68.4726 182.007 68.0892 182.13 67.6626 182.13C67.3026 182.13 66.9792 182.053 66.6926 181.9C66.4126 181.747 66.1792 181.527 65.9926 181.24H65.9426V184.39H65.1126ZM65.9026 179.35C65.9026 179.73 65.9659 180.07 66.0926 180.37C66.2259 180.67 66.4092 180.903 66.6426 181.07C66.8759 181.237 67.1426 181.32 67.4426 181.32C67.7559 181.32 68.0359 181.237 68.2826 181.07C68.5292 180.903 68.7226 180.67 68.8626 180.37C69.0026 180.07 69.0726 179.73 69.0726 179.35C69.0726 178.97 69.0026 178.63 68.8626 178.33C68.7292 178.03 68.5392 177.797 68.2926 177.63C68.0526 177.463 67.7792 177.38 67.4726 177.38C67.1726 177.38 66.9026 177.463 66.6626 177.63C66.4226 177.797 66.2359 178.03 66.1026 178.33C65.9692 178.63 65.9026 178.97 65.9026 179.35ZM71.0891 182V176.7H71.9191V177.71H71.9691C72.1891 177.35 72.4691 177.07 72.8091 176.87C73.1491 176.663 73.5258 176.56 73.9391 176.56H74.0091V177.46H73.9191C73.5125 177.46 73.1591 177.527 72.8591 177.66C72.5591 177.793 72.3258 177.977 72.1591 178.21C71.9991 178.437 71.9191 178.683 71.9191 178.95V182H71.0891ZM79.1317 178.9C79.1317 179.133 79.1117 179.36 79.0717 179.58H75.3317C75.3651 180.133 75.5284 180.57 75.8217 180.89C76.1151 181.21 76.5051 181.37 76.9917 181.37C77.2651 181.37 77.5217 181.303 77.7617 181.17C78.0017 181.037 78.2084 180.84 78.3817 180.58L79.0317 181.03C78.5584 181.763 77.8784 182.13 76.9917 182.13C76.2117 182.13 75.5951 181.883 75.1417 181.39C74.6951 180.897 74.4717 180.22 74.4717 179.36C74.4717 178.493 74.6851 177.81 75.1117 177.31C75.5384 176.81 76.1251 176.56 76.8717 176.56C77.5717 176.56 78.1217 176.77 78.5217 177.19C78.9284 177.61 79.1317 178.18 79.1317 178.9ZM78.2817 178.83C78.2817 178.37 78.1517 178.003 77.8917 177.73C77.6384 177.457 77.2984 177.32 76.8717 177.32C76.4717 177.32 76.1384 177.453 75.8717 177.72C75.6051 177.987 75.4351 178.357 75.3617 178.83H78.2817ZM81.5898 182L79.5698 176.7H80.4698L82.0298 180.95H82.0898L83.6498 176.7H84.5398L82.4898 182H81.5898ZM87.1974 173.61V175.38H88.2574V176.1H87.1974V177.88L87.7174 177.7L88.0474 177.58L88.1874 178.33L87.1974 178.67V181.52C87.1974 181.78 87.1641 181.98 87.0974 182.12C87.0308 182.26 86.9174 182.357 86.7574 182.41C86.6041 182.47 86.3741 182.5 86.0674 182.5H85.4174L85.2774 181.79H85.8474C86.0541 181.79 86.1941 181.783 86.2674 181.77C86.3474 181.75 86.3974 181.707 86.4174 181.64C86.4441 181.573 86.4574 181.45 86.4574 181.27V178.92L85.3074 179.32L85.1674 178.57L86.4574 178.14V176.1H85.3774V175.38H86.4574V173.61H87.1974ZM93.8274 175.45C93.8274 175.517 93.8208 175.637 93.8074 175.81C93.7941 175.977 93.7808 176.147 93.7674 176.32C93.7474 176.58 93.6974 176.78 93.6174 176.92C93.5441 177.053 93.4274 177.15 93.2674 177.21C93.1141 177.263 92.8908 177.29 92.5974 177.29H89.8874C89.4541 177.29 89.1508 177.207 88.9774 177.04C88.8041 176.873 88.7174 176.57 88.7174 176.13V173.65H89.4474V175.01C89.9874 174.903 90.6341 174.75 91.3874 174.55C92.1408 174.343 92.7741 174.153 93.2874 173.98L93.4874 174.67C92.9474 174.843 92.2941 175.027 91.5274 175.22C90.7608 175.413 90.0674 175.573 89.4474 175.7V176C89.4474 176.247 89.4874 176.413 89.5674 176.5C89.6541 176.587 89.8174 176.63 90.0574 176.63H92.3274C92.6208 176.63 92.8174 176.59 92.9174 176.51C93.0241 176.43 93.0808 176.267 93.0874 176.02L93.1074 175.31L93.8274 175.45ZM89.4074 182.66H88.6874V178.12H93.3974V182.65H92.6474V182.17H89.4074V182.66ZM92.6474 179.82V178.76H89.4074V179.82H92.6474ZM89.4074 180.48V181.52H92.6474V180.48H89.4074ZM97.3674 181.36L99.0074 180.45L99.1374 181.2L96.6474 182.56L96.2774 181.89C96.4041 181.803 96.4908 181.723 96.5374 181.65C96.5908 181.57 96.6174 181.47 96.6174 181.35V179.32H95.2174V178.6H96.6174V177.31H95.8074V176.92C95.6741 177.12 95.5708 177.267 95.4974 177.36L95.0874 176.67C95.3741 176.283 95.6508 175.797 95.9174 175.21C96.1908 174.623 96.4308 174.017 96.6374 173.39L97.3374 173.59C97.2241 173.95 97.0808 174.35 96.9074 174.79H99.1774V175.49H96.5974C96.4174 175.883 96.2208 176.257 96.0074 176.61H98.7974V177.31H97.3674V178.6H99.0674V179.32H97.3674V181.36ZM101.927 176.92H104.007V177.7H101.927V182.65H101.137V177.7H99.1074V176.92H101.137V173.54H101.927V176.92ZM113.587 177.78V181.7C113.587 182.033 113.514 182.267 113.367 182.4C113.227 182.533 112.981 182.6 112.627 182.6H112.337L112.197 181.95H112.497C112.691 181.95 112.814 181.923 112.867 181.87C112.921 181.81 112.947 181.697 112.947 181.53V180.37H112.077V182.12H111.497V180.37H110.647V182.11H110.047V180.37H109.197V182.56H108.567V178.23C108.447 179.643 108.111 181.007 107.557 182.32L107.007 181.8C107.347 181.033 107.591 180.273 107.737 179.52C107.884 178.76 107.957 177.797 107.957 176.63V174.53H110.427L110.167 173.62L110.967 173.52L111.297 174.53H113.477V176.85H108.627C108.627 177.17 108.617 177.48 108.597 177.78H113.587ZM107.547 173.84C107.314 174.687 107.081 175.42 106.847 176.04V182.63H106.167V177.52C106.007 177.827 105.771 178.217 105.457 178.69L105.137 177.86C105.471 177.367 105.791 176.733 106.097 175.96C106.411 175.187 106.664 174.407 106.857 173.62L107.547 173.84ZM112.767 176.2V175.15H108.627V176.2H112.767ZM109.197 178.4V179.76H110.047V178.4H109.197ZM110.647 178.4V179.76H111.497V178.4H110.647ZM112.077 178.4V179.76H112.947V178.4H112.077ZM123.877 178.26V178.92C123.531 179.52 123.127 180.047 122.667 180.5C122.214 180.947 121.634 181.357 120.927 181.73C120.221 182.103 119.344 182.443 118.297 182.75L117.967 182.12C118.934 181.847 119.734 181.557 120.367 181.25C121.001 180.943 121.524 180.607 121.937 180.24C122.357 179.873 122.741 179.433 123.087 178.92H120.747C120.614 179.073 120.451 179.24 120.257 179.42C120.477 179.587 120.824 179.867 121.297 180.26L120.827 180.73L119.797 179.83C119.351 180.197 118.934 180.5 118.547 180.74L118.167 180.14C119.427 179.393 120.424 178.467 121.157 177.36C120.464 177.753 119.634 178.1 118.667 178.4L118.397 177.76C119.404 177.493 120.274 177.147 121.007 176.72C121.741 176.287 122.351 175.76 122.837 175.14H120.347L120.037 175.46L120.617 175.91L121.037 176.24L120.547 176.7C120.254 176.447 119.931 176.177 119.577 175.89C119.397 176.057 119.161 176.25 118.867 176.47L118.447 175.94C119.427 175.253 120.207 174.423 120.787 173.45L121.387 173.72C121.227 173.993 121.057 174.25 120.877 174.49H123.657V175.14C122.997 176.033 122.191 176.757 121.237 177.31L121.797 177.53C121.671 177.743 121.504 177.987 121.297 178.26H123.877ZM118.187 179.46C117.961 179.247 117.657 178.99 117.277 178.69V182.66H116.567V178.57C116.181 179.557 115.781 180.343 115.367 180.93L115.127 180.12C115.401 179.733 115.657 179.277 115.897 178.75C116.144 178.223 116.361 177.677 116.547 177.11H115.237V176.44H116.567V175.02C116.294 175.067 115.884 175.13 115.337 175.21L115.257 174.53C115.757 174.457 116.311 174.36 116.917 174.24C117.524 174.12 118.041 174 118.467 173.88L118.617 174.56C118.284 174.66 117.837 174.767 117.277 174.88V176.44H118.477V177.11H117.277V177.94C117.731 178.24 118.161 178.557 118.567 178.89L118.187 179.46ZM133.667 175.08C133.647 175.8 133.614 176.82 133.567 178.14C133.527 179.453 133.494 180.463 133.467 181.17C133.454 181.49 133.397 181.743 133.297 181.93C133.204 182.11 133.051 182.24 132.837 182.32C132.631 182.4 132.347 182.44 131.987 182.44H130.727L130.577 181.66H131.757C132.017 181.66 132.214 181.637 132.347 181.59C132.487 181.543 132.587 181.46 132.647 181.34C132.707 181.213 132.741 181.03 132.747 180.79L132.837 178.17L132.907 175.84H130.587C130.381 176.333 130.137 176.813 129.857 177.28L129.197 176.84C129.511 176.367 129.797 175.807 130.057 175.16C130.324 174.507 130.524 173.897 130.657 173.33L131.397 173.51C131.271 174.023 131.104 174.547 130.897 175.08H133.667ZM127.897 173.54C127.817 173.94 127.691 174.443 127.517 175.05H129.087V181.93H126.367V182.59H125.647V175.05H126.707C126.834 174.663 126.967 174.113 127.107 173.4L127.897 173.54ZM126.367 178.12H128.367V175.82H126.367V178.12ZM131.347 179.77C130.921 179.11 130.444 178.443 129.917 177.77L130.467 177.32C131.061 178.04 131.567 178.707 131.987 179.32L131.347 179.77ZM126.367 178.89V181.16H128.367V178.89H126.367ZM143.967 175.45H139.937C139.837 175.87 139.747 176.21 139.667 176.47H142.797V182.65H142.047V182.04H137.157V182.67H136.397V176.47H138.847C138.967 176.037 139.057 175.697 139.117 175.45H135.247V174.77H137.997C137.751 174.457 137.477 174.113 137.177 173.74L137.777 173.33L138.047 173.66C138.121 173.753 138.227 173.887 138.367 174.06C138.507 174.233 138.614 174.373 138.687 174.48L138.227 174.77H140.387C140.827 174.19 141.157 173.72 141.377 173.36L142.087 173.69C141.787 174.123 141.527 174.483 141.307 174.77H143.967V175.45ZM137.157 178.11H142.047V177.14H137.157V178.11ZM142.047 178.78H137.157V179.75H142.047V178.78ZM137.157 180.41V181.38H142.047V180.41H137.157ZM152.837 175.46H146.337V176.8H145.587V174.73H149.457L148.957 173.6L149.757 173.4L150.327 174.73H153.607V176.8H152.837V175.46ZM153.967 179.07V179.81H150.127V181.29C150.127 181.637 150.094 181.897 150.027 182.07C149.961 182.243 149.841 182.36 149.667 182.42C149.501 182.487 149.244 182.52 148.897 182.52H147.547L147.397 181.79H148.627C148.841 181.79 148.994 181.773 149.087 181.74C149.187 181.7 149.254 181.633 149.287 181.54C149.321 181.44 149.337 181.283 149.337 181.07V179.81H145.227V179.07H149.337V178.55L151.097 177.34H146.787V176.61H152.377V177.33L150.127 178.84V179.07H153.967ZM161.567 173.53V174.76H164.017V175.54H161.567V176.52H160.797V175.54H158.407V176.52H157.637V175.54H155.177V174.76H157.637V173.53H158.407V174.76H160.797V173.53H161.567ZM155.477 177.84V177.08H163.007C163.001 177.367 162.984 177.81 162.957 178.41C162.937 179.003 162.917 179.523 162.897 179.97C162.877 180.357 162.814 180.653 162.707 180.86C162.607 181.067 162.444 181.213 162.217 181.3C161.991 181.38 161.667 181.42 161.247 181.42H159.837L159.697 180.65H160.957C161.277 180.65 161.511 180.627 161.657 180.58C161.811 180.527 161.917 180.437 161.977 180.31C162.044 180.177 162.087 179.97 162.107 179.69L162.187 177.84H158.877V182.73H158.077V177.84H155.477Z" fill="black"/>
</svg>
