<svg width="234" height="124" viewBox="0 0 234 124" fill="none" xmlns="http://www.w3.org/2000/svg">
<rect width="234" height="124" fill="white"/>
<rect x="13.5" y="28.5" width="133" height="19" fill="#D9D9D9" stroke="#71717A"/>
<rect x="165.5" y="28.5" width="19" height="19" fill="#D9D9D9" stroke="#71717A"/>
<rect x="146.5" y="28.5" width="19" height="19" fill="#D9D9D9" stroke="#71717A"/>
<rect x="184.5" y="28.5" width="19" height="19" fill="#D9D9D9" stroke="#71717A"/>
<path d="M195.354 49.6464C195.158 49.4512 194.842 49.4512 194.646 49.6464L191.464 52.8284C191.269 53.0237 191.269 53.3403 191.464 53.5355C191.66 53.7308 191.976 53.7308 192.172 53.5355L195 50.7071L197.828 53.5355C198.024 53.7308 198.34 53.7308 198.536 53.5355C198.731 53.3403 198.731 53.0237 198.536 52.8284L195.354 49.6464ZM194.5 50L194.5 66L195.5 66L195.5 50L194.5 50Z" fill="black"/>
<path d="M81.3536 49.6464C81.1583 49.4512 80.8417 49.4512 80.6464 49.6464L77.4645 52.8284C77.2692 53.0237 77.2692 53.3403 77.4645 53.5355C77.6597 53.7308 77.9763 53.7308 78.1716 53.5355L81 50.7071L83.8284 53.5355C84.0237 53.7308 84.3403 53.7308 84.5355 53.5355C84.7308 53.3403 84.7308 53.0237 84.5355 52.8284L81.3536 49.6464ZM80.5 50L80.5 66L81.5 66L81.5 50L80.5 50Z" fill="black"/>
<path d="M175.354 49.6464C175.158 49.4512 174.842 49.4512 174.646 49.6464L171.464 52.8284C171.269 53.0237 171.269 53.3403 171.464 53.5355C171.66 53.7308 171.976 53.7308 172.172 53.5355L175 50.7071L177.828 53.5355C178.024 53.7308 178.34 53.7308 178.536 53.5355C178.731 53.3403 178.731 53.0237 178.536 52.8284L175.354 49.6464ZM174.5 50L174.5 95L175.5 95L175.5 50L174.5 50Z" fill="black"/>
<path d="M186.89 69.98H193.03V73.47H186.89V69.98ZM192.27 71.42V70.61H187.66V71.42H192.27ZM187.66 72.03V72.86H192.27V72.03H187.66ZM194.41 77.73L194.27 78.41H190.6C189.787 78.41 189.13 78.3133 188.63 78.12C188.137 77.9267 187.71 77.5767 187.35 77.07C187.063 77.6567 186.643 78.2367 186.09 78.81L185.53 78.27C185.983 77.8233 186.337 77.37 186.59 76.91C186.85 76.45 187.047 75.9 187.18 75.26L187.91 75.39C187.857 75.65 187.773 75.96 187.66 76.32C187.9 76.74 188.183 77.0567 188.51 77.27C188.837 77.4767 189.233 77.6133 189.7 77.68V74.93H185.69V74.28H194.3V74.93H190.46V75.87H193.61V76.51H190.46V77.73H190.58H194.41ZM199.63 74.22V72.11C198.603 72.9433 197.373 73.6767 195.94 74.31L195.61 73.54C197.41 72.82 198.85 71.91 199.93 70.81H195.99V70.09H204.02V70.81H200.97C200.783 71.03 200.583 71.24 200.37 71.44V74.22H199.63ZM201.09 71.69C201.523 71.91 202.07 72.2 202.73 72.56C203.397 72.92 203.957 73.23 204.41 73.49L204.06 74.2C203.1 73.6267 202 73.0033 200.76 72.33L201.09 71.69ZM197.56 78.66H196.81V74.67H203.21V78.66H202.45V77.97H197.56V78.66ZM202.45 77.28V75.39H197.56V77.28H202.45ZM211.23 69.45C211.563 70.3567 211.977 71.1067 212.47 71.7C212.97 72.2933 213.633 72.8367 214.46 73.33L214.04 74.06C213.147 73.4867 212.43 72.8733 211.89 72.22C211.357 71.5667 210.903 70.7333 210.53 69.72L211.23 69.45ZM209.37 69.9C208.997 70.76 208.537 71.5267 207.99 72.2C207.443 72.8733 206.783 73.4933 206.01 74.06L205.58 73.4C206.247 72.94 206.843 72.3867 207.37 71.74C207.897 71.0867 208.33 70.3767 208.67 69.61L209.37 69.9ZM206.87 74.21V73.5H212.71C212.683 74.0067 212.64 74.6367 212.58 75.39C212.527 76.1433 212.48 76.7033 212.44 77.07C212.407 77.4167 212.33 77.6867 212.21 77.88C212.097 78.0667 211.923 78.2 211.69 78.28C211.463 78.36 211.153 78.4 210.76 78.4H209.44L209.3 77.67H210.53C210.823 77.67 211.047 77.6467 211.2 77.6C211.353 77.5467 211.463 77.4567 211.53 77.33C211.603 77.1967 211.653 77.0033 211.68 76.75C211.713 76.3633 211.75 75.9233 211.79 75.43C211.83 74.9367 211.86 74.53 211.88 74.21H209.08C209.067 74.3167 209.053 74.51 209.04 74.79C209.007 75.4033 208.907 75.9267 208.74 76.36C208.573 76.7867 208.297 77.19 207.91 77.57C207.523 77.95 206.973 78.3467 206.26 78.76L205.71 78.07C206.363 77.7433 206.867 77.4267 207.22 77.12C207.573 76.8067 207.823 76.4733 207.97 76.12C208.123 75.76 208.23 75.3133 208.29 74.78L208.34 74.21H206.87ZM217.11 70.78H215.62V70.11H220.25V70.78H218.91V71.97H220.07V78.08H216.56V78.69H215.94V71.97H217.11V70.78ZM223.64 75.57L224.36 75.71L224.29 77.09C224.263 77.4433 224.217 77.7067 224.15 77.88C224.083 78.0467 223.973 78.1633 223.82 78.23C223.673 78.3033 223.447 78.34 223.14 78.34H221.96C221.667 78.34 221.44 78.3033 221.28 78.23C221.12 78.1633 221.007 78.0433 220.94 77.87C220.873 77.6967 220.84 77.4467 220.84 77.12V73.23H223.21V70.89H220.72V70.16H223.95V73.99H221.58V76.96C221.58 77.1467 221.593 77.2833 221.62 77.37C221.653 77.4567 221.71 77.5167 221.79 77.55C221.87 77.5833 221.997 77.6 222.17 77.6H222.91C223.103 77.6 223.247 77.58 223.34 77.54C223.433 77.5 223.497 77.43 223.53 77.33C223.57 77.23 223.597 77.07 223.61 76.85L223.64 75.57ZM217.69 71.97H218.31V70.78H217.69V71.97ZM217.19 72.63H216.55V74.94C216.803 74.6667 216.973 74.38 217.06 74.08C217.147 73.78 217.19 73.35 217.19 72.79V72.63ZM219.07 74.93C218.803 74.93 218.61 74.8733 218.49 74.76C218.37 74.6467 218.31 74.4533 218.31 74.18V72.63H217.69V72.89C217.683 73.49 217.627 73.9667 217.52 74.32C217.413 74.6733 217.213 75.0267 216.92 75.38L216.56 75.11V75.77H219.44V74.93H219.07ZM219.45 74.39V72.63H218.81V73.96C218.81 74.12 218.843 74.2333 218.91 74.3C218.977 74.36 219.093 74.39 219.26 74.39H219.45ZM216.56 76.43V77.43H219.44V76.43H216.56Z" fill="black"/>
<path d="M72.35 74.89C72.5767 75.59 72.93 76.18 73.41 76.66C73.8967 77.14 74.5533 77.56 75.38 77.92L74.97 78.67C74.23 78.3233 73.6067 77.9133 73.1 77.44C72.6 76.96 72.21 76.3967 71.93 75.75C71.7233 76.31 71.3967 76.8267 70.95 77.3C70.51 77.7733 69.92 78.25 69.18 78.73L68.75 78.02C69.57 77.54 70.1867 77.06 70.6 76.58C71.0133 76.0933 71.2833 75.53 71.41 74.89H69.36V74.15H71.49V73.95V71.88H69.8V71.14H71.5V69.53H72.26V71.14H74.52V74.15H75.36V74.89H72.35ZM69.62 76.16L69.68 76.57C69.2933 76.69 68.7767 76.8533 68.13 77.06C67.4833 77.26 67.03 77.4067 66.77 77.5L66.59 76.7C66.7367 76.6667 67.1333 76.5567 67.78 76.37V73H66.63V72.26H67.78V69.61H68.49V72.26H69.59V73H68.49V76.15C69.0433 75.9767 69.4 75.86 69.56 75.8L69.62 76.16ZM72.24 73.9C72.24 74.0133 72.2367 74.0967 72.23 74.15H73.8V71.88H72.25L72.24 73.9ZM81.37 72.93C81.59 74.0033 82.0233 74.9367 82.67 75.73C83.3233 76.5233 84.2467 77.2433 85.44 77.89L84.96 78.64C82.9733 77.48 81.67 76.0567 81.05 74.37C80.7433 75.2233 80.25 76.0033 79.57 76.71C78.8967 77.4167 78.0767 78.07 77.11 78.67L76.62 77.91C77.7667 77.27 78.69 76.5233 79.39 75.67C80.0967 74.81 80.4933 73.8467 80.58 72.78H76.78V72.01H80.59V69.55H81.39V72.01H85.23V72.78H81.38C81.3733 72.8133 81.37 72.8633 81.37 72.93ZM89.84 77.64C90.08 77.64 90.2567 77.62 90.37 77.58C90.4833 77.5333 90.56 77.4533 90.6 77.34C90.64 77.2267 90.66 77.05 90.66 76.81V69.68H91.51V77.06C91.51 77.4267 91.4633 77.71 91.37 77.91C91.2767 78.11 91.1233 78.25 90.91 78.33C90.7033 78.41 90.4067 78.45 90.02 78.45H88.77L88.61 77.64H89.84ZM93.29 71.4C93.59 72.0067 93.97 72.8667 94.43 73.98C94.89 75.0933 95.24 75.9933 95.48 76.68L94.67 77.03C94.4233 76.29 94.0867 75.3867 93.66 74.32C93.2333 73.2467 92.8633 72.3733 92.55 71.7L93.29 71.4ZM86.5 76.59C86.88 75.8967 87.2333 75.0833 87.56 74.15C87.8933 73.21 88.1533 72.3333 88.34 71.52L89.16 71.69C88.94 72.5833 88.66 73.5033 88.32 74.45C87.9867 75.3967 87.63 76.23 87.25 76.95L86.5 76.59Z" fill="black"/>
<path d="M144.38 99.76V100.45H135.57V99.76H138.11L137.4 98.79L138.18 98.56L138.45 98.92L139.06 99.76H140.91C140.957 99.6933 141.033 99.5933 141.14 99.46C141.18 99.4067 141.28 99.2767 141.44 99.07C141.6 98.8567 141.73 98.67 141.83 98.51L142.57 98.76C142.33 99.1067 142.087 99.44 141.84 99.76H144.38ZM142.82 101.17H143.54V106.36C143.54 106.66 143.503 106.89 143.43 107.05C143.363 107.217 143.24 107.333 143.06 107.4C142.88 107.473 142.62 107.51 142.28 107.51H141.13L140.99 106.79H142.1C142.313 106.79 142.47 106.773 142.57 106.74C142.67 106.707 142.737 106.65 142.77 106.57C142.803 106.483 142.82 106.35 142.82 106.17V101.17ZM136.3 107.59V101.43H139.83V106.5C139.83 106.893 139.753 107.163 139.6 107.31C139.447 107.463 139.167 107.54 138.76 107.54H137.94L137.79 106.83H138.52C138.693 106.83 138.82 106.817 138.9 106.79C138.987 106.757 139.043 106.703 139.07 106.63C139.103 106.557 139.12 106.447 139.12 106.3V105.49H137.02V107.59H136.3ZM140.91 101.58H141.59V105.87H140.91V101.58ZM139.12 103.14V102.13H137.02V103.14H139.12ZM137.02 103.81V104.82H139.12V103.81H137.02ZM145.61 102.38H154.38V103.25H145.61V102.38ZM155.49 102.58C156.363 102.027 157.16 101.393 157.88 100.68C158.6 99.96 159.193 99.2167 159.66 98.45H160.33C161.363 100.063 162.76 101.443 164.52 102.59L164.05 103.37C163.217 102.797 162.45 102.167 161.75 101.48C161.057 100.787 160.473 100.077 160 99.35C159.5 100.097 158.903 100.813 158.21 101.5C157.517 102.18 156.757 102.803 155.93 103.37L155.49 102.58ZM159.58 101.71H160.41V107.71H159.58V101.71ZM171.35 103.89C171.577 104.59 171.93 105.18 172.41 105.66C172.897 106.14 173.553 106.56 174.38 106.92L173.97 107.67C173.23 107.323 172.607 106.913 172.1 106.44C171.6 105.96 171.21 105.397 170.93 104.75C170.723 105.31 170.397 105.827 169.95 106.3C169.51 106.773 168.92 107.25 168.18 107.73L167.75 107.02C168.57 106.54 169.187 106.06 169.6 105.58C170.013 105.093 170.283 104.53 170.41 103.89H168.36V103.15H170.49V102.95V100.88H168.8V100.14H170.5V98.53H171.26V100.14H173.52V103.15H174.36V103.89H171.35ZM168.62 105.16L168.68 105.57C168.293 105.69 167.777 105.853 167.13 106.06C166.483 106.26 166.03 106.407 165.77 106.5L165.59 105.7C165.737 105.667 166.133 105.557 166.78 105.37V102H165.63V101.26H166.78V98.61H167.49V101.26H168.59V102H167.49V105.15C168.043 104.977 168.4 104.86 168.56 104.8L168.62 105.16ZM171.24 102.9C171.24 103.013 171.237 103.097 171.23 103.15H172.8V100.88H171.25L171.24 102.9ZM176.89 98.98H183.03V102.47H176.89V98.98ZM182.27 100.42V99.61H177.66V100.42H182.27ZM177.66 101.03V101.86H182.27V101.03H177.66ZM184.41 106.73L184.27 107.41H180.6C179.787 107.41 179.13 107.313 178.63 107.12C178.137 106.927 177.71 106.577 177.35 106.07C177.063 106.657 176.643 107.237 176.09 107.81L175.53 107.27C175.983 106.823 176.337 106.37 176.59 105.91C176.85 105.45 177.047 104.9 177.18 104.26L177.91 104.39C177.857 104.65 177.773 104.96 177.66 105.32C177.9 105.74 178.183 106.057 178.51 106.27C178.837 106.477 179.233 106.613 179.7 106.68V103.93H175.69V103.28H184.3V103.93H180.46V104.87H183.61V105.51H180.46V106.73H180.58H184.41ZM189.63 103.22V101.11C188.603 101.943 187.373 102.677 185.94 103.31L185.61 102.54C187.41 101.82 188.85 100.91 189.93 99.81H185.99V99.09H194.02V99.81H190.97C190.783 100.03 190.583 100.24 190.37 100.44V103.22H189.63ZM191.09 100.69C191.523 100.91 192.07 101.2 192.73 101.56C193.397 101.92 193.957 102.23 194.41 102.49L194.06 103.2C193.1 102.627 192 102.003 190.76 101.33L191.09 100.69ZM187.56 107.66H186.81V103.67H193.21V107.66H192.45V106.97H187.56V107.66ZM192.45 106.28V104.39H187.56V106.28H192.45ZM201.23 98.45C201.563 99.3567 201.977 100.107 202.47 100.7C202.97 101.293 203.633 101.837 204.46 102.33L204.04 103.06C203.147 102.487 202.43 101.873 201.89 101.22C201.357 100.567 200.903 99.7333 200.53 98.72L201.23 98.45ZM199.37 98.9C198.997 99.76 198.537 100.527 197.99 101.2C197.443 101.873 196.783 102.493 196.01 103.06L195.58 102.4C196.247 101.94 196.843 101.387 197.37 100.74C197.897 100.087 198.33 99.3767 198.67 98.61L199.37 98.9ZM196.87 103.21V102.5H202.71C202.683 103.007 202.64 103.637 202.58 104.39C202.527 105.143 202.48 105.703 202.44 106.07C202.407 106.417 202.33 106.687 202.21 106.88C202.097 107.067 201.923 107.2 201.69 107.28C201.463 107.36 201.153 107.4 200.76 107.4H199.44L199.3 106.67H200.53C200.823 106.67 201.047 106.647 201.2 106.6C201.353 106.547 201.463 106.457 201.53 106.33C201.603 106.197 201.653 106.003 201.68 105.75C201.713 105.363 201.75 104.923 201.79 104.43C201.83 103.937 201.86 103.53 201.88 103.21H199.08C199.067 103.317 199.053 103.51 199.04 103.79C199.007 104.403 198.907 104.927 198.74 105.36C198.573 105.787 198.297 106.19 197.91 106.57C197.523 106.95 196.973 107.347 196.26 107.76L195.71 107.07C196.363 106.743 196.867 106.427 197.22 106.12C197.573 105.807 197.823 105.473 197.97 105.12C198.123 104.76 198.23 104.313 198.29 103.78L198.34 103.21H196.87ZM207.11 99.78H205.62V99.11H210.25V99.78H208.91V100.97H210.07V107.08H206.56V107.69H205.94V100.97H207.11V99.78ZM213.64 104.57L214.36 104.71L214.29 106.09C214.263 106.443 214.217 106.707 214.15 106.88C214.083 107.047 213.973 107.163 213.82 107.23C213.673 107.303 213.447 107.34 213.14 107.34H211.96C211.667 107.34 211.44 107.303 211.28 107.23C211.12 107.163 211.007 107.043 210.94 106.87C210.873 106.697 210.84 106.447 210.84 106.12V102.23H213.21V99.89H210.72V99.16H213.95V102.99H211.58V105.96C211.58 106.147 211.593 106.283 211.62 106.37C211.653 106.457 211.71 106.517 211.79 106.55C211.87 106.583 211.997 106.6 212.17 106.6H212.91C213.103 106.6 213.247 106.58 213.34 106.54C213.433 106.5 213.497 106.43 213.53 106.33C213.57 106.23 213.597 106.07 213.61 105.85L213.64 104.57ZM207.69 100.97H208.31V99.78H207.69V100.97ZM207.19 101.63H206.55V103.94C206.803 103.667 206.973 103.38 207.06 103.08C207.147 102.78 207.19 102.35 207.19 101.79V101.63ZM209.07 103.93C208.803 103.93 208.61 103.873 208.49 103.76C208.37 103.647 208.31 103.453 208.31 103.18V101.63H207.69V101.89C207.683 102.49 207.627 102.967 207.52 103.32C207.413 103.673 207.213 104.027 206.92 104.38L206.56 104.11V104.77H209.44V103.93H209.07ZM209.45 103.39V101.63H208.81V102.96C208.81 103.12 208.843 103.233 208.91 103.3C208.977 103.36 209.093 103.39 209.26 103.39H209.45ZM206.56 105.43V106.43H209.44V105.43H206.56Z" fill="black"/>
<line x1="146.5" y1="17" x2="146.5" y2="61" stroke="#1E2A3B" stroke-dasharray="2 2"/>
<path d="M194.501 25.14C193.694 25.14 193.068 24.8 192.621 24.12C192.174 23.4333 191.951 22.46 191.951 21.2C191.951 19.94 192.174 18.97 192.621 18.29C193.068 17.6033 193.694 17.26 194.501 17.26C195.314 17.26 195.941 17.6033 196.381 18.29C196.828 18.97 197.051 19.94 197.051 21.2C197.051 22.46 196.828 23.4333 196.381 24.12C195.941 24.8 195.314 25.14 194.501 25.14ZM194.501 24.34C195.028 24.34 195.434 24.07 195.721 23.53C196.014 22.9833 196.161 22.2067 196.161 21.2C196.161 20.1933 196.014 19.42 195.721 18.88C195.434 18.3333 195.028 18.06 194.501 18.06C193.974 18.06 193.564 18.3333 193.271 18.88C192.984 19.42 192.841 20.1933 192.841 21.2C192.841 22.2067 192.984 22.9833 193.271 23.53C193.564 24.07 193.974 24.34 194.501 24.34Z" fill="black"/>
<path d="M175.333 25H174.463V18.41L172.983 19.19V18.28L174.683 17.4H175.333V25Z" fill="black"/>
<path d="M154.838 24.2H158.298V25H153.678V24.28L155.958 21.65C156.425 21.1167 156.758 20.6733 156.958 20.32C157.158 19.9667 157.258 19.6367 157.258 19.33C157.258 18.95 157.135 18.6433 156.888 18.41C156.641 18.1767 156.318 18.06 155.918 18.06C155.585 18.06 155.285 18.16 155.018 18.36C154.758 18.56 154.541 18.8467 154.368 19.22L153.628 18.86C153.828 18.3467 154.125 17.9533 154.518 17.68C154.918 17.4 155.391 17.26 155.938 17.26C156.371 17.26 156.755 17.3433 157.088 17.51C157.421 17.6767 157.681 17.9133 157.868 18.22C158.055 18.5267 158.148 18.8833 158.148 19.29C158.148 19.6767 158.038 20.0867 157.818 20.52C157.598 20.9533 157.238 21.4567 156.738 22.03L154.838 24.2Z" fill="black"/>
<path d="M72.3078 20.52C72.3811 20.5067 72.4944 20.5 72.6478 20.5C73.0211 20.5 73.3744 20.5867 73.7078 20.76C74.0478 20.9267 74.3244 21.18 74.5378 21.52C74.7511 21.86 74.8578 22.2767 74.8578 22.77C74.8578 23.25 74.7544 23.67 74.5478 24.03C74.3478 24.3833 74.0644 24.6567 73.6978 24.85C73.3311 25.0433 72.9044 25.14 72.4178 25.14C71.8778 25.14 71.3878 24.9933 70.9478 24.7C70.5078 24.4067 70.1911 23.9967 69.9978 23.47L70.7878 23.19C71.1011 23.9567 71.6544 24.34 72.4478 24.34C72.9078 24.34 73.2744 24.2 73.5478 23.92C73.8278 23.6333 73.9678 23.25 73.9678 22.77C73.9678 22.29 73.8244 21.91 73.5378 21.63C73.2578 21.3433 72.8744 21.2 72.3878 21.2C72.1011 21.2 71.8244 21.2767 71.5578 21.43L71.0778 20.77L73.2978 18.2H70.1878V17.4H74.4378V18.13L72.2878 20.48L72.3078 20.52ZM78.2357 25H77.3657V18.41L75.8857 19.19V18.28L77.5857 17.4H78.2357V25ZM79.8989 21.47C80.0456 21.15 80.2289 20.8967 80.4489 20.71C80.6689 20.5233 80.9156 20.43 81.1889 20.43C81.3223 20.4367 81.4556 20.4667 81.5889 20.52C81.7223 20.5667 81.8789 20.64 82.0589 20.74C82.2323 20.8333 82.3756 20.9033 82.4889 20.95C82.6089 20.9967 82.7256 21.0233 82.8389 21.03C82.9923 21.03 83.1289 20.9833 83.2489 20.89C83.3689 20.7967 83.4723 20.6467 83.5589 20.44L84.1789 20.74C84.0656 21.0467 83.8823 21.3067 83.6289 21.52C83.3756 21.7267 83.1156 21.83 82.8489 21.83C82.7223 21.83 82.5989 21.8067 82.4789 21.76C82.3589 21.7067 82.1989 21.6267 81.9989 21.52C81.8123 21.42 81.6623 21.3467 81.5489 21.3C81.4423 21.2533 81.3323 21.2267 81.2189 21.22C81.0723 21.22 80.9423 21.2633 80.8289 21.35C80.7156 21.43 80.6056 21.59 80.4989 21.83L79.8989 21.47ZM87.4543 20.52C87.5276 20.5067 87.6409 20.5 87.7943 20.5C88.1676 20.5 88.5209 20.5867 88.8543 20.76C89.1943 20.9267 89.4709 21.18 89.6843 21.52C89.8976 21.86 90.0043 22.2767 90.0043 22.77C90.0043 23.25 89.9009 23.67 89.6943 24.03C89.4943 24.3833 89.2109 24.6567 88.8443 24.85C88.4776 25.0433 88.0509 25.14 87.5643 25.14C87.0243 25.14 86.5343 24.9933 86.0943 24.7C85.6543 24.4067 85.3376 23.9967 85.1443 23.47L85.9343 23.19C86.2476 23.9567 86.8009 24.34 87.5943 24.34C88.0543 24.34 88.4209 24.2 88.6943 23.92C88.9743 23.6333 89.1143 23.25 89.1143 22.77C89.1143 22.29 88.9709 21.91 88.6843 21.63C88.4043 21.3433 88.0209 21.2 87.5343 21.2C87.2476 21.2 86.9709 21.2767 86.7043 21.43L86.2243 20.77L88.4443 18.2H85.3343V17.4H89.5843V18.13L87.4343 20.48L87.4543 20.52Z" fill="black"/>
</svg>
