<svg width="282" height="128" viewBox="0 0 282 128" fill="none" xmlns="http://www.w3.org/2000/svg">
<rect width="282" height="128" fill="white"/>
<rect x="84" y="26" width="78" height="14" fill="white" stroke="#71717A" stroke-width="2"/>
<path d="M56.476 107.74C56.876 108.828 57.372 109.728 57.964 110.44C58.564 111.152 59.36 111.804 60.352 112.396L59.848 113.272C58.776 112.584 57.916 111.848 57.268 111.064C56.628 110.28 56.084 109.28 55.636 108.064L56.476 107.74ZM54.244 108.28C53.796 109.312 53.244 110.232 52.588 111.04C51.932 111.848 51.14 112.592 50.212 113.272L49.696 112.48C50.496 111.928 51.212 111.264 51.844 110.488C52.476 109.704 52.996 108.852 53.404 107.932L54.244 108.28ZM51.244 113.452V112.6H58.252C58.22 113.208 58.168 113.964 58.096 114.868C58.032 115.772 57.976 116.444 57.928 116.884C57.888 117.3 57.796 117.624 57.652 117.856C57.516 118.08 57.308 118.24 57.028 118.336C56.756 118.432 56.384 118.48 55.912 118.48H54.328L54.16 117.604H55.636C55.988 117.604 56.256 117.576 56.44 117.52C56.624 117.456 56.756 117.348 56.836 117.196C56.924 117.036 56.984 116.804 57.016 116.5C57.056 116.036 57.1 115.508 57.148 114.916C57.196 114.324 57.232 113.836 57.256 113.452H53.896C53.88 113.58 53.864 113.812 53.848 114.148C53.808 114.884 53.688 115.512 53.488 116.032C53.288 116.544 52.956 117.028 52.492 117.484C52.028 117.94 51.368 118.416 50.512 118.912L49.852 118.084C50.636 117.692 51.24 117.312 51.664 116.944C52.088 116.568 52.388 116.168 52.564 115.744C52.748 115.312 52.876 114.776 52.948 114.136L53.008 113.452H51.244ZM72.184 108.892V109.66H61.816V108.892H66.76C66.664 108.604 66.548 108.288 66.412 107.944L67.312 107.728C67.472 108.152 67.612 108.54 67.732 108.892H72.184ZM64.384 111.772C64.72 111.66 65.292 111.444 66.1 111.124L65.692 110.944C64.892 110.624 64.508 110.468 64.54 110.476L64.828 109.84L67 110.74C67.808 110.404 68.492 110.088 69.052 109.792L69.4 110.416C69.12 110.568 68.62 110.804 67.9 111.124C68.428 111.34 69.004 111.588 69.628 111.868L69.304 112.54C69 112.396 68.232 112.052 67 111.508C66.168 111.868 65.38 112.176 64.636 112.432L64.384 111.772ZM67.432 113.404C67.296 113.724 67.136 114.06 66.952 114.412H71.548V117.412C71.548 117.748 71.504 118.008 71.416 118.192C71.328 118.384 71.18 118.52 70.972 118.6C70.772 118.68 70.484 118.72 70.108 118.72H68.812L68.656 117.952H69.736C69.992 117.952 70.184 117.932 70.312 117.892C70.44 117.844 70.528 117.768 70.576 117.664C70.624 117.552 70.648 117.388 70.648 117.172V115.18H66.532C66.22 115.74 65.924 116.22 65.644 116.62L68.296 116.416C68.168 116.256 68.076 116.136 68.02 116.056L67.648 115.6L68.284 115.18C68.692 115.676 69.232 116.36 69.904 117.232L69.232 117.688L68.836 117.136L64.744 117.46L64.528 116.668C64.968 116.1 65.312 115.604 65.56 115.18H63.352V118.768H62.452V114.412H65.992C66.16 114.092 66.316 113.756 66.46 113.404H62.932V110.248H63.82V112.636H70.18V110.248H71.056V113.404H67.432ZM75.16 110.056V111.604H74.248V109.192H78.7C78.564 108.728 78.432 108.324 78.304 107.98L79.24 107.812C79.32 108.012 79.48 108.472 79.72 109.192H83.752V111.616H82.828V110.056H75.16ZM80.14 110.884C80.708 111.18 81.424 111.568 82.288 112.048C83.152 112.52 83.808 112.888 84.256 113.152L83.8 113.956C83.296 113.644 82.616 113.252 81.76 112.78C80.912 112.308 80.236 111.948 79.732 111.7L80.14 110.884ZM78.268 111.7C77.684 112.092 77.02 112.504 76.276 112.936C75.54 113.368 74.832 113.752 74.152 114.088L73.756 113.224C74.436 112.92 75.14 112.556 75.868 112.132C76.604 111.7 77.24 111.288 77.776 110.896L78.268 111.7ZM82.828 114.88H79.492V117.4H84.016V118.276H73.996V117.4H78.52V114.88H75.184V114.004H82.828V114.88ZM88.444 110.368C88.212 110.112 87.9 109.788 87.508 109.396C87.124 108.996 86.808 108.684 86.56 108.46L87.172 107.836C87.524 108.156 88.164 108.768 89.092 109.672L88.444 110.368ZM89.404 108.568H95.692V117.292C95.692 117.66 95.644 117.94 95.548 118.132C95.46 118.324 95.304 118.46 95.08 118.54C94.856 118.62 94.524 118.66 94.084 118.66H92.776L92.608 117.772H93.784C94.096 117.772 94.324 117.752 94.468 117.712C94.62 117.672 94.72 117.6 94.768 117.496C94.824 117.384 94.852 117.212 94.852 116.98V109.444H89.404V108.568ZM93.7 116.248C93.452 116 93.108 115.688 92.668 115.312C92.236 114.936 91.82 114.588 91.42 114.268V117.976H90.556V114.04C90.252 114.552 89.908 115.024 89.524 115.456C89.14 115.88 88.664 116.328 88.096 116.8L87.532 116.008C88.268 115.416 88.86 114.856 89.308 114.328C89.756 113.8 90.148 113.184 90.484 112.48H87.964V111.616H90.556V110.032H91.42V111.616H94.036V112.48H91.42V113.272L91.816 113.584C91.968 113.704 92.328 113.988 92.896 114.436C93.464 114.876 93.888 115.216 94.168 115.456L93.7 116.248ZM87.148 118.708H86.284V110.212H87.148V118.708ZM100.84 116.224L101.008 117.052L99.088 118.6L98.68 117.94C98.792 117.836 98.868 117.74 98.908 117.652C98.948 117.564 98.968 117.452 98.968 117.316V114.748H97.792V113.872H98.968V112.312H98.224V111.592L98.044 111.868L97.516 111.22C97.836 110.7 98.14 110.12 98.428 109.48C98.724 108.832 98.956 108.216 99.124 107.632L99.892 107.8C99.764 108.272 99.592 108.772 99.376 109.3H101.152V110.14H99.004C98.804 110.564 98.572 111 98.308 111.448H100.804V112.312H99.724V113.872H101.128V114.748H99.724V117.1L100.84 116.224ZM105.568 117.28V115.66H103.324V114.832H105.568V113.26H103.648V112.456C103.88 111.88 104.144 111.092 104.44 110.092H103.348V109.24H104.692C104.892 108.48 105.02 107.98 105.076 107.74L105.868 107.872C105.724 108.496 105.612 108.952 105.532 109.24H108.076V110.092H105.28C105.048 110.892 104.788 111.672 104.5 112.432H105.58V110.752H106.384V112.432H107.956V113.26H106.384V114.832H108.244V115.66H106.384V117.28H105.568ZM102.244 110.752C102.204 110.64 102.02 110.18 101.692 109.372L101.272 108.304L101.968 108.016L102.964 110.428L102.244 110.752ZM108.316 117.64L108.172 118.504H105.064C104.44 118.504 103.924 118.396 103.516 118.18C103.108 117.964 102.744 117.6 102.424 117.088L101.152 118.684L100.696 117.916L102.004 116.284V112.816H101.164V111.904H102.808V116.272C103.088 116.784 103.4 117.14 103.744 117.34C104.096 117.54 104.572 117.64 105.172 117.64H108.316ZM117.232 116.056C117.592 116.336 118.016 116.584 118.504 116.8C119 117.016 119.596 117.22 120.292 117.412L119.884 118.288C118.916 117.976 118.116 117.636 117.484 117.268C116.86 116.9 116.336 116.468 115.912 115.972C115.496 115.476 115.116 114.856 114.772 114.112C114.396 114.504 113.96 114.9 113.464 115.3V117.676L116.032 116.824L116.164 117.676L112.456 118.9L112.144 118.216C112.288 118.136 112.4 118.04 112.48 117.928C112.568 117.808 112.612 117.7 112.612 117.604V115.936C111.844 116.472 110.98 116.96 110.02 117.4L109.624 116.536C110.512 116.16 111.308 115.748 112.012 115.3C112.716 114.844 113.384 114.32 114.016 113.728H109.732V112.948H114.568V111.808H110.632V111.016H114.568V109.864H110.14V109.096H114.568V107.86H115.456V109.096H119.872V109.864H115.456V111.016H119.392V111.808H115.456V112.948H120.268V113.728H115.516C115.828 114.432 116.188 115.012 116.596 115.468C117.492 114.964 118.268 114.484 118.924 114.028L119.428 114.76C118.604 115.272 117.872 115.704 117.232 116.056Z" fill="black"/>
<rect x="8" y="26" width="78" height="14" fill="#BAE6FD" stroke="#71717A" stroke-width="2"/>
<path d="M37.37 29.49V30.22H30.23V32.67C30.23 33.55 30.2033 34.26 30.15 34.8C30.1033 35.3333 30.0133 35.8133 29.88 36.24C29.7533 36.6667 29.5567 37.1333 29.29 37.64L28.59 37.26C28.8433 36.82 29.0333 36.3967 29.16 35.99C29.2933 35.5833 29.3833 35.1367 29.43 34.65C29.4767 34.1567 29.5 33.5233 29.5 32.75V29.49H33.23L32.94 28.84L32.83 28.61L33.66 28.47C33.7333 28.6233 33.88 28.9633 34.1 29.49H37.37ZM34.83 33.57H37.31V34.26L36.44 35.99L35.78 35.68L36.53 34.28H34.36V36.46C34.36 36.7733 34.3167 37.01 34.23 37.17C34.15 37.3367 34.0167 37.4533 33.83 37.52C33.6433 37.5867 33.3767 37.62 33.03 37.62H31.88L31.75 36.9H32.87C33.09 36.9 33.25 36.8867 33.35 36.86C33.4567 36.8267 33.53 36.7667 33.57 36.68C33.61 36.5933 33.63 36.46 33.63 36.28V34.28H30.63V33.57H33.59C33.6567 33.6167 33.2467 33.3367 32.36 32.73L31.92 32.43L32.38 31.95L33.86 32.94C34.6533 32.4267 35.2533 32.0267 35.66 31.74H31.07V31.07H36.76V31.77C36.4867 31.9633 36.1333 32.2067 35.7 32.5C35.2667 32.7867 34.8467 33.06 34.44 33.32L34.83 33.57ZM47.45 29.7V30.41H38.55V29.7H42.77C42.5833 29.2267 42.44 28.8733 42.34 28.64L43.13 28.51C43.27 28.8233 43.4267 29.22 43.6 29.7H47.45ZM39.75 31.27H46.26V31.94H39.75V31.27ZM46.26 33.46H39.75V32.79H46.26V33.46ZM40.36 37.64H39.63V34.31H46.37V37.63H45.63V37.04H40.36V37.64ZM45.63 36.36V35H40.36V36.36H45.63ZM54.35 33.89C54.5767 34.59 54.93 35.18 55.41 35.66C55.8967 36.14 56.5533 36.56 57.38 36.92L56.97 37.67C56.23 37.3233 55.6067 36.9133 55.1 36.44C54.6 35.96 54.21 35.3967 53.93 34.75C53.7233 35.31 53.3967 35.8267 52.95 36.3C52.51 36.7733 51.92 37.25 51.18 37.73L50.75 37.02C51.57 36.54 52.1867 36.06 52.6 35.58C53.0133 35.0933 53.2833 34.53 53.41 33.89H51.36V33.15H53.49V32.95V30.88H51.8V30.14H53.5V28.53H54.26V30.14H56.52V33.15H57.36V33.89H54.35ZM51.62 35.16L51.68 35.57C51.2933 35.69 50.7767 35.8533 50.13 36.06C49.4833 36.26 49.03 36.4067 48.77 36.5L48.59 35.7C48.7367 35.6667 49.1333 35.5567 49.78 35.37V32H48.63V31.26H49.78V28.61H50.49V31.26H51.59V32H50.49V35.15C51.0433 34.9767 51.4 34.86 51.56 34.8L51.62 35.16ZM54.24 32.9C54.24 33.0133 54.2367 33.0967 54.23 33.15H55.8V30.88H54.25L54.24 32.9ZM67.34 34.26H63.97C63.89 34.5067 63.8167 34.7067 63.75 34.86C63.75 34.86 64.56 35.33 66.18 36.27L67.3 36.92L66.91 37.64C66.2233 37.2 65.0433 36.48 63.37 35.48C63.0167 35.9533 62.4967 36.36 61.81 36.7C61.1233 37.0333 60.17 37.3667 58.95 37.7L58.66 36.89C59.6333 36.6367 60.4033 36.3967 60.97 36.17C61.5433 35.9367 62 35.67 62.34 35.37C62.68 35.07 62.9333 34.7 63.1 34.26H58.68V33.53H63.31C63.41 33.01 63.4767 32.3267 63.51 31.48C63.5233 31.08 63.5333 30.6333 63.54 30.14C63.5533 29.6467 63.5633 29.2233 63.57 28.87V28.61H64.36C64.36 29.0367 64.3533 29.5433 64.34 30.13C64.3333 30.71 64.3233 31.1967 64.31 31.59C64.2767 32.3967 64.2167 33.0433 64.13 33.53H67.34V34.26ZM62.44 31.2C62.0467 30.92 61.31 30.42 60.23 29.7C60.07 29.6 59.9733 29.5367 59.94 29.51L60.32 28.88C60.6733 29.0867 61.0967 29.3533 61.59 29.68C62.09 30.0067 62.5133 30.2933 62.86 30.54L62.44 31.2ZM61.74 33.11C61.26 32.77 60.5267 32.3067 59.54 31.72L59.22 31.52L59.6 30.87C60.8467 31.6167 61.6967 32.14 62.15 32.44L61.74 33.11Z" fill="black"/>
<rect x="86" y="12" width="76" height="14" fill="#BAE6FD" stroke="#71717A" stroke-width="2"/>
<path d="M112.37 15.49V16.22H105.23V18.67C105.23 19.55 105.203 20.26 105.15 20.8C105.103 21.3333 105.013 21.8133 104.88 22.24C104.753 22.6667 104.557 23.1333 104.29 23.64L103.59 23.26C103.843 22.82 104.033 22.3967 104.16 21.99C104.293 21.5833 104.383 21.1367 104.43 20.65C104.477 20.1567 104.5 19.5233 104.5 18.75V15.49H108.23L107.94 14.84L107.83 14.61L108.66 14.47C108.733 14.6233 108.88 14.9633 109.1 15.49H112.37ZM109.83 19.57H112.31V20.26L111.44 21.99L110.78 21.68L111.53 20.28H109.36V22.46C109.36 22.7733 109.317 23.01 109.23 23.17C109.15 23.3367 109.017 23.4533 108.83 23.52C108.643 23.5867 108.377 23.62 108.03 23.62H106.88L106.75 22.9H107.87C108.09 22.9 108.25 22.8867 108.35 22.86C108.457 22.8267 108.53 22.7667 108.57 22.68C108.61 22.5933 108.63 22.46 108.63 22.28V20.28H105.63V19.57H108.59C108.657 19.6167 108.247 19.3367 107.36 18.73L106.92 18.43L107.38 17.95L108.86 18.94C109.653 18.4267 110.253 18.0267 110.66 17.74H106.07V17.07H111.76V17.77C111.487 17.9633 111.133 18.2067 110.7 18.5C110.267 18.7867 109.847 19.06 109.44 19.32L109.83 19.57ZM122.45 15.7V16.41H113.55V15.7H117.77C117.583 15.2267 117.44 14.8733 117.34 14.64L118.13 14.51C118.27 14.8233 118.427 15.22 118.6 15.7H122.45ZM114.75 17.27H121.26V17.94H114.75V17.27ZM121.26 19.46H114.75V18.79H121.26V19.46ZM115.36 23.64H114.63V20.31H121.37V23.63H120.63V23.04H115.36V23.64ZM120.63 22.36V21H115.36V22.36H120.63ZM129.35 19.89C129.577 20.59 129.93 21.18 130.41 21.66C130.897 22.14 131.553 22.56 132.38 22.92L131.97 23.67C131.23 23.3233 130.607 22.9133 130.1 22.44C129.6 21.96 129.21 21.3967 128.93 20.75C128.723 21.31 128.397 21.8267 127.95 22.3C127.51 22.7733 126.92 23.25 126.18 23.73L125.75 23.02C126.57 22.54 127.187 22.06 127.6 21.58C128.013 21.0933 128.283 20.53 128.41 19.89H126.36V19.15H128.49V18.95V16.88H126.8V16.14H128.5V14.53H129.26V16.14H131.52V19.15H132.36V19.89H129.35ZM126.62 21.16L126.68 21.57C126.293 21.69 125.777 21.8533 125.13 22.06C124.483 22.26 124.03 22.4067 123.77 22.5L123.59 21.7C123.737 21.6667 124.133 21.5567 124.78 21.37V18H123.63V17.26H124.78V14.61H125.49V17.26H126.59V18H125.49V21.15C126.043 20.9767 126.4 20.86 126.56 20.8L126.62 21.16ZM129.24 18.9C129.24 19.0133 129.237 19.0967 129.23 19.15H130.8V16.88H129.25L129.24 18.9ZM135.25 17.33V18.25C135.25 19.5033 135.177 20.5267 135.03 21.32C134.89 22.1067 134.64 22.9 134.28 23.7L133.57 23.33C133.817 22.79 134.003 22.29 134.13 21.83C134.263 21.37 134.357 20.85 134.41 20.27C134.47 19.6833 134.5 18.9433 134.5 18.05V15.03H141.8V17.33H135.25ZM141.04 16.65V15.72H135.25V16.65H141.04ZM141.35 21.61L142.04 21.79L142.01 22.52C141.997 22.88 141.907 23.1267 141.74 23.26C141.573 23.3933 141.277 23.46 140.85 23.46H138.88C138.48 23.46 138.197 23.38 138.03 23.22C137.87 23.0667 137.79 22.7767 137.79 22.35V21.66L135.26 21.8L135.22 21.18L137.79 21.02V20.23L135.78 20.35L135.75 19.75L137.79 19.63V18.85C136.923 18.93 136.263 18.9833 135.81 19.01L135.75 18.4C136.59 18.3467 137.567 18.26 138.68 18.14C139.793 18.02 140.7 17.9 141.4 17.78L141.51 18.38C140.77 18.5133 139.773 18.6433 138.52 18.77V19.58L141.56 19.4L141.59 20L138.52 20.18V20.98L142.33 20.74L142.37 21.4L138.52 21.62V22.15C138.52 22.3967 138.56 22.5633 138.64 22.65C138.727 22.73 138.89 22.77 139.13 22.77H140.65C140.843 22.77 140.983 22.7567 141.07 22.73C141.157 22.7033 141.22 22.6533 141.26 22.58C141.3 22.5 141.327 22.3733 141.34 22.2L141.35 21.61Z" fill="black"/>
<rect x="8" y="12" width="78" height="14" fill="#BAE6FD" stroke="#71717A" stroke-width="2"/>
<path d="M30.8 17.39C30.9267 17.1767 31.0933 16.87 31.3 16.47L31.93 16.83C31.3567 17.8967 30.65 18.9833 29.81 20.09L31.57 19.81L31.59 20.52L29.01 20.92L28.87 20.19C29.4033 19.5633 29.9133 18.86 30.4 18.08L28.82 18.31L28.68 17.63C28.98 17.2367 29.2733 16.7733 29.56 16.24C29.8533 15.7 30.1567 15.1033 30.47 14.45L31.09 14.73C30.4433 16.0633 29.9367 17.0033 29.57 17.55L30.8 17.39ZM37.34 15.91V16.63H34.94V18.09H37.04V18.8H32.13V18.09H34.2V16.63H31.92V15.91H34.2V14.54H34.94V15.91H37.34ZM33.08 23.7H32.35V19.9H36.75V23.7H36.02V23.05H33.08V23.7ZM36.02 22.36V20.6H33.08V22.36H36.02ZM28.71 23L28.61 22.24L31.7 21.71L31.74 22.48L28.71 23ZM40.25 17.33V18.25C40.25 19.5033 40.1767 20.5267 40.03 21.32C39.89 22.1067 39.64 22.9 39.28 23.7L38.57 23.33C38.8167 22.79 39.0033 22.29 39.13 21.83C39.2633 21.37 39.3567 20.85 39.41 20.27C39.47 19.6833 39.5 18.9433 39.5 18.05V15.03H46.8V17.33H40.25ZM46.04 16.65V15.72H40.25V16.65H46.04ZM46.35 21.61L47.04 21.79L47.01 22.52C46.9967 22.88 46.9067 23.1267 46.74 23.26C46.5733 23.3933 46.2767 23.46 45.85 23.46H43.88C43.48 23.46 43.1967 23.38 43.03 23.22C42.87 23.0667 42.79 22.7767 42.79 22.35V21.66L40.26 21.8L40.22 21.18L42.79 21.02V20.23L40.78 20.35L40.75 19.75L42.79 19.63V18.85C41.9233 18.93 41.2633 18.9833 40.81 19.01L40.75 18.4C41.59 18.3467 42.5667 18.26 43.68 18.14C44.7933 18.02 45.7 17.9 46.4 17.78L46.51 18.38C45.77 18.5133 44.7733 18.6433 43.52 18.77V19.58L46.56 19.4L46.59 20L43.52 20.18V20.98L47.33 20.74L47.37 21.4L43.52 21.62V22.15C43.52 22.3967 43.56 22.5633 43.64 22.65C43.7267 22.73 43.89 22.77 44.13 22.77H45.65C45.8433 22.77 45.9833 22.7567 46.07 22.73C46.1567 22.7033 46.22 22.6533 46.26 22.58C46.3 22.5 46.3267 22.3733 46.34 22.2L46.35 21.61ZM54.35 19.89C54.5767 20.59 54.93 21.18 55.41 21.66C55.8967 22.14 56.5533 22.56 57.38 22.92L56.97 23.67C56.23 23.3233 55.6067 22.9133 55.1 22.44C54.6 21.96 54.21 21.3967 53.93 20.75C53.7233 21.31 53.3967 21.8267 52.95 22.3C52.51 22.7733 51.92 23.25 51.18 23.73L50.75 23.02C51.57 22.54 52.1867 22.06 52.6 21.58C53.0133 21.0933 53.2833 20.53 53.41 19.89H51.36V19.15H53.49V18.95V16.88H51.8V16.14H53.5V14.53H54.26V16.14H56.52V19.15H57.36V19.89H54.35ZM51.62 21.16L51.68 21.57C51.2933 21.69 50.7767 21.8533 50.13 22.06C49.4833 22.26 49.03 22.4067 48.77 22.5L48.59 21.7C48.7367 21.6667 49.1333 21.5567 49.78 21.37V18H48.63V17.26H49.78V14.61H50.49V17.26H51.59V18H50.49V21.15C51.0433 20.9767 51.4 20.86 51.56 20.8L51.62 21.16ZM54.24 18.9C54.24 19.0133 54.2367 19.0967 54.23 19.15H55.8V16.88H54.25L54.24 18.9ZM67.34 20.26H63.97C63.89 20.5067 63.8167 20.7067 63.75 20.86C63.75 20.86 64.56 21.33 66.18 22.27L67.3 22.92L66.91 23.64C66.2233 23.2 65.0433 22.48 63.37 21.48C63.0167 21.9533 62.4967 22.36 61.81 22.7C61.1233 23.0333 60.17 23.3667 58.95 23.7L58.66 22.89C59.6333 22.6367 60.4033 22.3967 60.97 22.17C61.5433 21.9367 62 21.67 62.34 21.37C62.68 21.07 62.9333 20.7 63.1 20.26H58.68V19.53H63.31C63.41 19.01 63.4767 18.3267 63.51 17.48C63.5233 17.08 63.5333 16.6333 63.54 16.14C63.5533 15.6467 63.5633 15.2233 63.57 14.87V14.61H64.36C64.36 15.0367 64.3533 15.5433 64.34 16.13C64.3333 16.71 64.3233 17.1967 64.31 17.59C64.2767 18.3967 64.2167 19.0433 64.13 19.53H67.34V20.26ZM62.44 17.2C62.0467 16.92 61.31 16.42 60.23 15.7C60.07 15.6 59.9733 15.5367 59.94 15.51L60.32 14.88C60.6733 15.0867 61.0967 15.3533 61.59 15.68C62.09 16.0067 62.5133 16.2933 62.86 16.54L62.44 17.2ZM61.74 19.11C61.26 18.77 60.5267 18.3067 59.54 17.72L59.22 17.52L59.6 16.87C60.8467 17.6167 61.6967 18.14 62.15 18.44L61.74 19.11Z" fill="black"/>
<path d="M165.646 94.6464C165.451 94.8417 165.451 95.1583 165.646 95.3536L168.828 98.5355C169.024 98.7308 169.34 98.7308 169.536 98.5355C169.731 98.3403 169.731 98.0237 169.536 97.8284L166.707 95L169.536 92.1716C169.731 91.9763 169.731 91.6597 169.536 91.4645C169.34 91.2692 169.024 91.2692 168.828 91.4645L165.646 94.6464ZM199 94.5H166V95.5H199V94.5Z" fill="black"/>
<path d="M204.993 99V93.7H205.823V94.44H205.873C206.04 94.1733 206.253 93.96 206.513 93.8C206.78 93.64 207.053 93.56 207.333 93.56C207.673 93.56 207.97 93.6533 208.223 93.84C208.477 94.0267 208.677 94.2967 208.823 94.65H208.873C209.053 94.31 209.297 94.0433 209.603 93.85C209.91 93.6567 210.253 93.56 210.633 93.56C211.193 93.56 211.63 93.7433 211.943 94.11C212.257 94.4767 212.413 94.9867 212.413 95.64V99H211.583V95.76C211.583 95.3267 211.48 94.98 211.273 94.72C211.067 94.4533 210.793 94.32 210.453 94.32C210.053 94.32 209.73 94.46 209.483 94.74C209.243 95.02 209.123 95.3933 209.123 95.86V99H208.283V95.76C208.283 95.3267 208.18 94.98 207.973 94.72C207.767 94.4533 207.497 94.32 207.163 94.32C206.763 94.32 206.44 94.4633 206.193 94.75C205.947 95.03 205.823 95.4 205.823 95.86V99H204.993ZM218.202 95.9C218.202 96.1333 218.182 96.36 218.142 96.58H214.402C214.435 97.1333 214.599 97.57 214.892 97.89C215.185 98.21 215.575 98.37 216.062 98.37C216.335 98.37 216.592 98.3033 216.832 98.17C217.072 98.0367 217.279 97.84 217.452 97.58L218.102 98.03C217.629 98.7633 216.949 99.13 216.062 99.13C215.282 99.13 214.665 98.8833 214.212 98.39C213.765 97.8967 213.542 97.22 213.542 96.36C213.542 95.4933 213.755 94.81 214.182 94.31C214.609 93.81 215.195 93.56 215.942 93.56C216.642 93.56 217.192 93.77 217.592 94.19C217.999 94.61 218.202 95.18 218.202 95.9ZM217.352 95.83C217.352 95.37 217.222 95.0033 216.962 94.73C216.709 94.4567 216.369 94.32 215.942 94.32C215.542 94.32 215.209 94.4533 214.942 94.72C214.675 94.9867 214.505 95.3567 214.432 95.83H217.352ZM219.378 99V93.7H220.208V94.44H220.258C220.425 94.1733 220.638 93.96 220.898 93.8C221.165 93.64 221.438 93.56 221.718 93.56C222.058 93.56 222.355 93.6533 222.608 93.84C222.862 94.0267 223.062 94.2967 223.208 94.65H223.258C223.438 94.31 223.682 94.0433 223.988 93.85C224.295 93.6567 224.638 93.56 225.018 93.56C225.578 93.56 226.015 93.7433 226.328 94.11C226.642 94.4767 226.798 94.9867 226.798 95.64V99H225.968V95.76C225.968 95.3267 225.865 94.98 225.658 94.72C225.452 94.4533 225.178 94.32 224.838 94.32C224.438 94.32 224.115 94.46 223.868 94.74C223.628 95.02 223.508 95.3933 223.508 95.86V99H222.668V95.76C222.668 95.3267 222.565 94.98 222.358 94.72C222.152 94.4533 221.882 94.32 221.548 94.32C221.148 94.32 220.825 94.4633 220.578 94.75C220.332 95.03 220.208 95.4 220.208 95.86V99H219.378ZM227.467 99.75H232.047V100.53H227.467V99.75ZM232.767 99V91.4H233.597V94.45H233.647C233.807 94.1833 234.04 93.97 234.347 93.81C234.66 93.6433 234.974 93.56 235.287 93.56C235.874 93.56 236.334 93.7433 236.667 94.11C237 94.47 237.167 94.98 237.167 95.64V99H236.337V95.76C236.337 95.3333 236.217 94.9867 235.977 94.72C235.737 94.4533 235.437 94.32 235.077 94.32C234.637 94.32 234.28 94.4633 234.007 94.75C233.734 95.03 233.597 95.4 233.597 95.86V99H232.767ZM242.958 95.9C242.958 96.1333 242.938 96.36 242.898 96.58H239.158C239.191 97.1333 239.355 97.57 239.648 97.89C239.941 98.21 240.331 98.37 240.818 98.37C241.091 98.37 241.348 98.3033 241.588 98.17C241.828 98.0367 242.035 97.84 242.208 97.58L242.858 98.03C242.385 98.7633 241.705 99.13 240.818 99.13C240.038 99.13 239.421 98.8833 238.968 98.39C238.521 97.8967 238.298 97.22 238.298 96.36C238.298 95.4933 238.511 94.81 238.938 94.31C239.365 93.81 239.951 93.56 240.698 93.56C241.398 93.56 241.948 93.77 242.348 94.19C242.755 94.61 242.958 95.18 242.958 95.9ZM242.108 95.83C242.108 95.37 241.978 95.0033 241.718 94.73C241.465 94.4567 241.125 94.32 240.698 94.32C240.298 94.32 239.965 94.4533 239.698 94.72C239.431 94.9867 239.261 95.3567 239.188 95.83H242.108ZM245.554 99.14C245.041 99.14 244.631 99.0067 244.324 98.74C244.024 98.4667 243.874 98.1067 243.874 97.66C243.874 96.5133 244.747 95.94 246.494 95.94H247.254V95.51C247.254 95.15 247.144 94.8633 246.924 94.65C246.704 94.43 246.414 94.32 246.054 94.32C245.607 94.32 245.161 94.5133 244.714 94.9L244.224 94.34C244.757 93.82 245.381 93.56 246.094 93.56C246.707 93.56 247.191 93.7267 247.544 94.06C247.904 94.3933 248.084 94.8433 248.084 95.41V99H247.254V98.24H247.194C247.047 98.5067 246.821 98.7233 246.514 98.89C246.207 99.0567 245.887 99.14 245.554 99.14ZM245.704 98.38C245.924 98.38 246.154 98.33 246.394 98.23C246.634 98.13 246.837 97.9767 247.004 97.77C247.171 97.5567 247.254 97.2933 247.254 96.98V96.7H246.654C245.994 96.7 245.507 96.7767 245.194 96.93C244.881 97.0767 244.724 97.3033 244.724 97.61C244.724 97.8433 244.811 98.03 244.984 98.17C245.164 98.31 245.404 98.38 245.704 98.38ZM249.476 101.39V93.7H250.306V94.46H250.356C250.556 94.18 250.799 93.96 251.086 93.8C251.379 93.64 251.693 93.56 252.026 93.56C252.453 93.56 252.836 93.6767 253.176 93.91C253.523 94.1367 253.793 94.4567 253.986 94.87C254.179 95.2767 254.276 95.7367 254.276 96.25C254.276 96.8033 254.179 97.3 253.986 97.74C253.793 98.1733 253.523 98.5133 253.176 98.76C252.836 99.0067 252.453 99.13 252.026 99.13C251.666 99.13 251.343 99.0533 251.056 98.9C250.776 98.7467 250.543 98.5267 250.356 98.24H250.306V101.39H249.476ZM250.266 96.35C250.266 96.73 250.329 97.07 250.456 97.37C250.589 97.67 250.773 97.9033 251.006 98.07C251.239 98.2367 251.506 98.32 251.806 98.32C252.119 98.32 252.399 98.2367 252.646 98.07C252.893 97.9033 253.086 97.67 253.226 97.37C253.366 97.07 253.436 96.73 253.436 96.35C253.436 95.97 253.366 95.63 253.226 95.33C253.093 95.03 252.903 94.7967 252.656 94.63C252.416 94.4633 252.143 94.38 251.836 94.38C251.536 94.38 251.266 94.4633 251.026 94.63C250.786 94.7967 250.599 95.03 250.466 95.33C250.333 95.63 250.266 95.97 250.266 96.35ZM254.732 99.75H259.312V100.53H254.732V99.75ZM260.033 91.4H260.863V97.9C260.863 98.1733 260.999 98.31 261.273 98.31H261.523V99.09H261.083C260.383 99.09 260.033 98.7667 260.033 98.12V91.4ZM264.673 99.14C264.186 99.14 263.76 99.0267 263.393 98.8C263.026 98.5733 262.743 98.25 262.543 97.83C262.35 97.41 262.253 96.9167 262.253 96.35C262.253 95.7833 262.35 95.29 262.543 94.87C262.743 94.45 263.026 94.1267 263.393 93.9C263.76 93.6733 264.186 93.56 264.673 93.56C265.16 93.56 265.583 93.6733 265.943 93.9C266.31 94.1267 266.593 94.45 266.793 94.87C266.993 95.29 267.093 95.7833 267.093 96.35C267.093 96.9167 266.993 97.41 266.793 97.83C266.593 98.25 266.31 98.5733 265.943 98.8C265.583 99.0267 265.16 99.14 264.673 99.14ZM264.673 98.36C265.153 98.36 265.533 98.18 265.813 97.82C266.1 97.46 266.243 96.97 266.243 96.35C266.243 95.73 266.1 95.24 265.813 94.88C265.533 94.52 265.153 94.34 264.673 94.34C264.193 94.34 263.81 94.52 263.523 94.88C263.243 95.24 263.103 95.73 263.103 96.35C263.103 96.97 263.243 97.46 263.523 97.82C263.81 98.18 264.193 98.36 264.673 98.36ZM269.495 99.6C269.115 98.9533 268.818 98.23 268.605 97.43C268.391 96.6233 268.285 95.8467 268.285 95.1C268.285 94.3467 268.391 93.57 268.605 92.77C268.818 91.97 269.115 91.2467 269.495 90.6H270.325C269.938 91.2733 269.638 92.01 269.425 92.81C269.218 93.6033 269.115 94.3667 269.115 95.1C269.115 95.82 269.221 96.58 269.435 97.38C269.648 98.18 269.945 98.92 270.325 99.6H269.495ZM270.961 99.6C271.347 98.9267 271.644 98.19 271.851 97.39C272.064 96.59 272.171 95.8267 272.171 95.1C272.171 94.3667 272.064 93.6033 271.851 92.81C271.644 92.01 271.347 91.2733 270.961 90.6H271.791C272.177 91.2467 272.474 91.97 272.681 92.77C272.894 93.5633 273.001 94.34 273.001 95.1C273.001 95.8533 272.894 96.63 272.681 97.43C272.474 98.23 272.177 98.9533 271.791 99.6H270.961Z" fill="black"/>
<rect x="8" y="82" width="154" height="14" fill="#D9D9D9" stroke="#71717A" stroke-width="2"/>
<path d="M57.8434 85.36V86H55.8134C56.0334 86.24 56.2434 86.4867 56.4434 86.74L55.9034 87.07C55.8701 87.03 55.7834 86.92 55.6434 86.74C55.3767 86.3867 55.1834 86.14 55.0634 86H54.5534C54.3534 86.36 54.1267 86.72 53.8734 87.08L53.2234 86.75C53.4834 86.4233 53.7134 86.07 53.9134 85.69C54.1201 85.31 54.3267 84.88 54.5334 84.4L55.2334 84.6C55.1534 84.8067 55.0401 85.06 54.8934 85.36H57.8434ZM50.6634 86C50.3301 86.5067 49.9834 86.9667 49.6234 87.38L49.0234 86.95C49.3634 86.5767 49.6834 86.16 49.9834 85.7C50.2901 85.24 50.5267 84.8133 50.6934 84.42L51.4234 84.61C51.3301 84.83 51.2034 85.08 51.0434 85.36H53.5534V86H51.8934L52.0934 86.25C52.1867 86.3833 52.3101 86.54 52.4634 86.72L51.8734 87.03L51.6434 86.71C51.5767 86.6233 51.4867 86.5033 51.3734 86.35C51.2667 86.1967 51.1801 86.08 51.1134 86H50.6634ZM53.8534 89.47V90.4H57.4234C57.3501 91.18 57.2934 91.71 57.2534 91.99C57.2134 92.3367 57.1001 92.5767 56.9134 92.71C56.7334 92.8433 56.4367 92.91 56.0234 92.91H54.7634L54.6334 92.25H55.8434C56.0967 92.25 56.2734 92.22 56.3734 92.16C56.4734 92.1 56.5367 91.9733 56.5634 91.78C56.6101 91.4133 56.6367 91.16 56.6434 91.02H53.8534V93.7H53.1134V91.45C52.6667 91.8767 52.1567 92.2567 51.5834 92.59C51.0167 92.9167 50.3067 93.2333 49.4534 93.54L49.0734 92.83C49.9067 92.5767 50.5967 92.3067 51.1434 92.02C51.6967 91.7267 52.1867 91.3933 52.6134 91.02H49.7134L50.0734 88.83H53.1134V87.88H50.0534V87.23H56.9134V89.47H53.8534ZM56.1934 87.88H53.8534V88.83H56.1934V87.88ZM53.1134 89.47H50.6934L50.5634 90.4H53.1134V89.47ZM61.3334 93H60.4634V86.41L58.9834 87.19V86.28L60.6834 85.4H61.3334V93ZM63.0066 88.58C63.8799 88.0267 64.6766 87.3933 65.3966 86.68C66.1166 85.96 66.7099 85.2167 67.1766 84.45H67.8466C68.8799 86.0633 70.2766 87.4433 72.0366 88.59L71.5666 89.37C70.7333 88.7967 69.9666 88.1667 69.2666 87.48C68.5733 86.7867 67.9899 86.0767 67.5166 85.35C67.0166 86.0967 66.4199 86.8133 65.7266 87.5C65.0333 88.18 64.2733 88.8033 63.4466 89.37L63.0066 88.58ZM67.0966 87.71H67.9266V93.71H67.0966V87.71ZM81.4566 87.29V92.57C81.4566 92.9233 81.3766 93.1667 81.2166 93.3C81.0633 93.4333 80.7833 93.5 80.3766 93.5H79.7566L79.6366 92.8H80.1666C80.4133 92.8 80.5733 92.77 80.6466 92.71C80.7266 92.65 80.7666 92.5267 80.7666 92.34V91.55H79.2666V93.41H78.5566V91.55H77.0766V93.55H76.3766V89.39L75.9966 89.96C75.5699 89.5533 75.2733 89.2733 75.1066 89.12V93.64H74.4066V89.01C74.0933 89.8633 73.7433 90.61 73.3566 91.25L73.0566 90.25C73.2633 89.97 73.4933 89.5333 73.7466 88.94C73.9999 88.3467 74.2166 87.7467 74.3966 87.14H73.2566V86.44H74.4066V84.6H75.1066V86.44H76.1566V87.14H75.1066V88.23C75.5733 88.6367 75.9966 89.0167 76.3766 89.37V87.29H78.4166L78.0566 86.99C77.5766 86.5833 77.2466 86.31 77.0666 86.17L77.4666 85.66C77.9866 86.0667 78.4633 86.45 78.8966 86.81C79.5099 86.33 79.9899 85.94 80.3366 85.64H76.4066V84.99H81.4066V85.64C81.2399 85.7667 80.8566 86.0767 80.2566 86.57L79.4266 87.24C79.4533 87.2667 79.4733 87.2833 79.4866 87.29H81.4566ZM78.5566 89.06V87.95H77.0766V89.06H78.5566ZM79.2666 89.06H80.7666V87.95H79.2666V89.06ZM77.0766 89.74V90.88H78.5566V89.74H77.0766ZM79.2666 89.74V90.88H80.7666V89.74H79.2666ZM91.5766 86.08C91.5566 86.8 91.5233 87.82 91.4766 89.14C91.4366 90.4533 91.4033 91.4633 91.3766 92.17C91.3633 92.49 91.3066 92.7433 91.2066 92.93C91.1133 93.11 90.9599 93.24 90.7466 93.32C90.5399 93.4 90.2566 93.44 89.8966 93.44H88.6366L88.4866 92.66H89.6666C89.9266 92.66 90.1233 92.6367 90.2566 92.59C90.3966 92.5433 90.4966 92.46 90.5566 92.34C90.6166 92.2133 90.6499 92.03 90.6566 91.79L90.7466 89.17L90.8166 86.84H88.4966C88.2899 87.3333 88.0466 87.8133 87.7666 88.28L87.1066 87.84C87.4199 87.3667 87.7066 86.8067 87.9666 86.16C88.2333 85.5067 88.4333 84.8967 88.5666 84.33L89.3066 84.51C89.1799 85.0233 89.0133 85.5467 88.8066 86.08H91.5766ZM85.8066 84.54C85.7266 84.94 85.5999 85.4433 85.4266 86.05H86.9966V92.93H84.2766V93.59H83.5566V86.05H84.6166C84.7433 85.6633 84.8766 85.1133 85.0166 84.4L85.8066 84.54ZM84.2766 89.12H86.2766V86.82H84.2766V89.12ZM89.2566 90.77C88.8299 90.11 88.3533 89.4433 87.8266 88.77L88.3766 88.32C88.9699 89.04 89.4766 89.7067 89.8966 90.32L89.2566 90.77ZM84.2766 89.89V92.16H86.2766V89.89H84.2766ZM101.857 90.26H98.4866C98.4066 90.5067 98.3333 90.7067 98.2666 90.86C98.2666 90.86 99.0766 91.33 100.697 92.27L101.817 92.92L101.427 93.64C100.74 93.2 99.5599 92.48 97.8866 91.48C97.5333 91.9533 97.0133 92.36 96.3266 92.7C95.6399 93.0333 94.6866 93.3667 93.4666 93.7L93.1766 92.89C94.1499 92.6367 94.9199 92.3967 95.4866 92.17C96.0599 91.9367 96.5166 91.67 96.8566 91.37C97.1966 91.07 97.4499 90.7 97.6166 90.26H93.1966V89.53H97.8266C97.9266 89.01 97.9933 88.3267 98.0266 87.48C98.0399 87.08 98.0499 86.6333 98.0566 86.14C98.0699 85.6467 98.0799 85.2233 98.0866 84.87V84.61H98.8766C98.8766 85.0367 98.8699 85.5433 98.8566 86.13C98.8499 86.71 98.8399 87.1967 98.8266 87.59C98.7933 88.3967 98.7333 89.0433 98.6466 89.53H101.857V90.26ZM96.9566 87.2C96.5633 86.92 95.8266 86.42 94.7466 85.7C94.5866 85.6 94.4899 85.5367 94.4566 85.51L94.8366 84.88C95.1899 85.0867 95.6133 85.3533 96.1066 85.68C96.6066 86.0067 97.0299 86.2933 97.3766 86.54L96.9566 87.2ZM96.2566 89.11C95.7766 88.77 95.0433 88.3067 94.0566 87.72L93.7366 87.52L94.1166 86.87C95.3633 87.6167 96.2133 88.14 96.6666 88.44L96.2566 89.11ZM105.107 84.61V86.38H106.167V87.1H105.107V88.88L105.627 88.7L105.957 88.58L106.097 89.33L105.107 89.67V92.52C105.107 92.78 105.073 92.98 105.007 93.12C104.94 93.26 104.827 93.3567 104.667 93.41C104.513 93.47 104.283 93.5 103.977 93.5H103.327L103.187 92.79H103.757C103.963 92.79 104.103 92.7833 104.177 92.77C104.257 92.75 104.307 92.7067 104.327 92.64C104.353 92.5733 104.367 92.45 104.367 92.27V89.92L103.217 90.32L103.077 89.57L104.367 89.14V87.1H103.287V86.38H104.367V84.61H105.107ZM111.737 86.45C111.737 86.5167 111.73 86.6367 111.717 86.81C111.703 86.9767 111.69 87.1467 111.677 87.32C111.657 87.58 111.607 87.78 111.527 87.92C111.453 88.0533 111.337 88.15 111.177 88.21C111.023 88.2633 110.8 88.29 110.507 88.29H107.797C107.363 88.29 107.06 88.2067 106.887 88.04C106.713 87.8733 106.627 87.57 106.627 87.13V84.65H107.357V86.01C107.897 85.9033 108.543 85.75 109.297 85.55C110.05 85.3433 110.683 85.1533 111.197 84.98L111.397 85.67C110.857 85.8433 110.203 86.0267 109.437 86.22C108.67 86.4133 107.977 86.5733 107.357 86.7V87C107.357 87.2467 107.397 87.4133 107.477 87.5C107.563 87.5867 107.727 87.63 107.967 87.63H110.237C110.53 87.63 110.727 87.59 110.827 87.51C110.933 87.43 110.99 87.2667 110.997 87.02L111.017 86.31L111.737 86.45ZM107.317 93.66H106.597V89.12H111.307V93.65H110.557V93.17H107.317V93.66ZM110.557 90.82V89.76H107.317V90.82H110.557ZM107.317 91.48V92.52H110.557V91.48H107.317ZM115.277 92.36L116.917 91.45L117.047 92.2L114.557 93.56L114.187 92.89C114.313 92.8033 114.4 92.7233 114.447 92.65C114.5 92.57 114.527 92.47 114.527 92.35V90.32H113.127V89.6H114.527V88.31H113.717V87.92C113.583 88.12 113.48 88.2667 113.407 88.36L112.997 87.67C113.283 87.2833 113.56 86.7967 113.827 86.21C114.1 85.6233 114.34 85.0167 114.547 84.39L115.247 84.59C115.133 84.95 114.99 85.35 114.817 85.79H117.087V86.49H114.507C114.327 86.8833 114.13 87.2567 113.917 87.61H116.707V88.31H115.277V89.6H116.977V90.32H115.277V92.36ZM119.837 87.92H121.917V88.7H119.837V93.65H119.047V88.7H117.017V87.92H119.047V84.54H119.837V87.92Z" fill="black"/>
<rect x="8" y="54" width="154" height="14" fill="#D9D9D9" stroke="#71717A" stroke-width="2"/>
<path d="M56.9993 65V63.95H58.0393V65H56.9993ZM59.4798 65V63.95H60.5198V65H59.4798ZM61.9602 65V63.95H63.0002V65H61.9602ZM72.6607 59.29V64.57C72.6607 64.9233 72.5807 65.1667 72.4207 65.3C72.2674 65.4333 71.9874 65.5 71.5807 65.5H70.9607L70.8407 64.8H71.3707C71.6174 64.8 71.7774 64.77 71.8507 64.71C71.9307 64.65 71.9707 64.5267 71.9707 64.34V63.55H70.4707V65.41H69.7607V63.55H68.2807V65.55H67.5807V61.39L67.2007 61.96C66.774 61.5533 66.4774 61.2733 66.3107 61.12V65.64H65.6107V61.01C65.2974 61.8633 64.9474 62.61 64.5607 63.25L64.2607 62.25C64.4674 61.97 64.6974 61.5333 64.9507 60.94C65.204 60.3467 65.4207 59.7467 65.6007 59.14H64.4607V58.44H65.6107V56.6H66.3107V58.44H67.3607V59.14H66.3107V60.23C66.7774 60.6367 67.2007 61.0167 67.5807 61.37V59.29H69.6207L69.2607 58.99C68.7807 58.5833 68.4507 58.31 68.2707 58.17L68.6707 57.66C69.1907 58.0667 69.6674 58.45 70.1007 58.81C70.714 58.33 71.194 57.94 71.5407 57.64H67.6107V56.99H72.6107V57.64C72.444 57.7667 72.0607 58.0767 71.4607 58.57L70.6307 59.24C70.6574 59.2667 70.6774 59.2833 70.6907 59.29H72.6607ZM69.7607 61.06V59.95H68.2807V61.06H69.7607ZM70.4707 61.06H71.9707V59.95H70.4707V61.06ZM68.2807 61.74V62.88H69.7607V61.74H68.2807ZM70.4707 61.74V62.88H71.9707V61.74H70.4707ZM82.7807 58.08C82.7607 58.8 82.7274 59.82 82.6807 61.14C82.6407 62.4533 82.6074 63.4633 82.5807 64.17C82.5674 64.49 82.5107 64.7433 82.4107 64.93C82.3174 65.11 82.164 65.24 81.9507 65.32C81.744 65.4 81.4607 65.44 81.1007 65.44H79.8407L79.6907 64.66H80.8707C81.1307 64.66 81.3274 64.6367 81.4607 64.59C81.6007 64.5433 81.7007 64.46 81.7607 64.34C81.8207 64.2133 81.854 64.03 81.8607 63.79L81.9507 61.17L82.0207 58.84H79.7007C79.494 59.3333 79.2507 59.8133 78.9707 60.28L78.3107 59.84C78.624 59.3667 78.9107 58.8067 79.1707 58.16C79.4374 57.5067 79.6374 56.8967 79.7707 56.33L80.5107 56.51C80.384 57.0233 80.2174 57.5467 80.0107 58.08H82.7807ZM77.0107 56.54C76.9307 56.94 76.804 57.4433 76.6307 58.05H78.2007V64.93H75.4807V65.59H74.7607V58.05H75.8207C75.9474 57.6633 76.0807 57.1133 76.2207 56.4L77.0107 56.54ZM75.4807 61.12H77.4807V58.82H75.4807V61.12ZM80.4607 62.77C80.034 62.11 79.5574 61.4433 79.0307 60.77L79.5807 60.32C80.174 61.04 80.6807 61.7067 81.1007 62.32L80.4607 62.77ZM75.4807 61.89V64.16H77.4807V61.89H75.4807ZM93.0607 62.26H89.6907C89.6107 62.5067 89.5374 62.7067 89.4707 62.86C89.4707 62.86 90.2807 63.33 91.9007 64.27L93.0207 64.92L92.6307 65.64C91.944 65.2 90.764 64.48 89.0907 63.48C88.7374 63.9533 88.2174 64.36 87.5307 64.7C86.844 65.0333 85.8907 65.3667 84.6707 65.7L84.3807 64.89C85.354 64.6367 86.124 64.3967 86.6907 64.17C87.264 63.9367 87.7207 63.67 88.0607 63.37C88.4007 63.07 88.654 62.7 88.8207 62.26H84.4007V61.53H89.0307C89.1307 61.01 89.1974 60.3267 89.2307 59.48C89.244 59.08 89.254 58.6333 89.2607 58.14C89.274 57.6467 89.284 57.2233 89.2907 56.87V56.61H90.0807C90.0807 57.0367 90.074 57.5433 90.0607 58.13C90.054 58.71 90.044 59.1967 90.0307 59.59C89.9974 60.3967 89.9374 61.0433 89.8507 61.53H93.0607V62.26ZM88.1607 59.2C87.7674 58.92 87.0307 58.42 85.9507 57.7C85.7907 57.6 85.694 57.5367 85.6607 57.51L86.0407 56.88C86.394 57.0867 86.8174 57.3533 87.3107 57.68C87.8107 58.0067 88.234 58.2933 88.5807 58.54L88.1607 59.2ZM87.4607 61.11C86.9807 60.77 86.2474 60.3067 85.2607 59.72L84.9407 59.52L85.3207 58.87C86.5674 59.6167 87.4174 60.14 87.8707 60.44L87.4607 61.11ZM96.3107 56.61V58.38H97.3707V59.1H96.3107V60.88L96.8307 60.7L97.1607 60.58L97.3007 61.33L96.3107 61.67V64.52C96.3107 64.78 96.2774 64.98 96.2107 65.12C96.144 65.26 96.0307 65.3567 95.8707 65.41C95.7174 65.47 95.4874 65.5 95.1807 65.5H94.5307L94.3907 64.79H94.9607C95.1674 64.79 95.3074 64.7833 95.3807 64.77C95.4607 64.75 95.5107 64.7067 95.5307 64.64C95.5574 64.5733 95.5707 64.45 95.5707 64.27V61.92L94.4207 62.32L94.2807 61.57L95.5707 61.14V59.1H94.4907V58.38H95.5707V56.61H96.3107ZM102.941 58.45C102.941 58.5167 102.934 58.6367 102.921 58.81C102.907 58.9767 102.894 59.1467 102.881 59.32C102.861 59.58 102.811 59.78 102.731 59.92C102.657 60.0533 102.541 60.15 102.381 60.21C102.227 60.2633 102.004 60.29 101.711 60.29H99.0007C98.5674 60.29 98.264 60.2067 98.0907 60.04C97.9174 59.8733 97.8307 59.57 97.8307 59.13V56.65H98.5607V58.01C99.1007 57.9033 99.7474 57.75 100.501 57.55C101.254 57.3433 101.887 57.1533 102.401 56.98L102.601 57.67C102.061 57.8433 101.407 58.0267 100.641 58.22C99.874 58.4133 99.1807 58.5733 98.5607 58.7V59C98.5607 59.2467 98.6007 59.4133 98.6807 59.5C98.7674 59.5867 98.9307 59.63 99.1707 59.63H101.441C101.734 59.63 101.931 59.59 102.031 59.51C102.137 59.43 102.194 59.2667 102.201 59.02L102.221 58.31L102.941 58.45ZM98.5207 65.66H97.8007V61.12H102.511V65.65H101.761V65.17H98.5207V65.66ZM101.761 62.82V61.76H98.5207V62.82H101.761ZM98.5207 63.48V64.52H101.761V63.48H98.5207ZM106.481 64.36L108.121 63.45L108.251 64.2L105.761 65.56L105.391 64.89C105.517 64.8033 105.604 64.7233 105.651 64.65C105.704 64.57 105.731 64.47 105.731 64.35V62.32H104.331V61.6H105.731V60.31H104.921V59.92C104.787 60.12 104.684 60.2667 104.611 60.36L104.201 59.67C104.487 59.2833 104.764 58.7967 105.031 58.21C105.304 57.6233 105.544 57.0167 105.751 56.39L106.451 56.59C106.337 56.95 106.194 57.35 106.021 57.79H108.291V58.49H105.711C105.531 58.8833 105.334 59.2567 105.121 59.61H107.911V60.31H106.481V61.6H108.181V62.32H106.481V64.36ZM111.041 59.92H113.121V60.7H111.041V65.65H110.251V60.7H108.221V59.92H110.251V56.54H111.041V59.92Z" fill="black"/>
<rect x="8" y="68" width="154" height="14" fill="#D9D9D9" stroke="#71717A" stroke-width="2"/>
<path d="M56.528 71.36V72H54.498C54.718 72.24 54.928 72.4867 55.128 72.74L54.588 73.07C54.5546 73.03 54.468 72.92 54.328 72.74C54.0613 72.3867 53.868 72.14 53.748 72H53.238C53.038 72.36 52.8113 72.72 52.558 73.08L51.908 72.75C52.168 72.4233 52.398 72.07 52.598 71.69C52.8046 71.31 53.0113 70.88 53.218 70.4L53.918 70.6C53.838 70.8067 53.7246 71.06 53.578 71.36H56.528ZM49.348 72C49.0146 72.5067 48.668 72.9667 48.308 73.38L47.708 72.95C48.048 72.5767 48.368 72.16 48.668 71.7C48.9746 71.24 49.2113 70.8133 49.378 70.42L50.108 70.61C50.0146 70.83 49.888 71.08 49.728 71.36H52.238V72H50.578L50.778 72.25C50.8713 72.3833 50.9946 72.54 51.148 72.72L50.558 73.03L50.328 72.71C50.2613 72.6233 50.1713 72.5033 50.058 72.35C49.9513 72.1967 49.8646 72.08 49.798 72H49.348ZM52.538 75.47V76.4H56.108C56.0346 77.18 55.978 77.71 55.938 77.99C55.898 78.3367 55.7846 78.5767 55.598 78.71C55.418 78.8433 55.1213 78.91 54.708 78.91H53.448L53.318 78.25H54.528C54.7813 78.25 54.958 78.22 55.058 78.16C55.158 78.1 55.2213 77.9733 55.248 77.78C55.2946 77.4133 55.3213 77.16 55.328 77.02H52.538V79.7H51.798V77.45C51.3513 77.8767 50.8413 78.2567 50.268 78.59C49.7013 78.9167 48.9913 79.2333 48.138 79.54L47.758 78.83C48.5913 78.5767 49.2813 78.3067 49.828 78.02C50.3813 77.7267 50.8713 77.3933 51.298 77.02H48.398L48.758 74.83H51.798V73.88H48.738V73.23H55.598V75.47H52.538ZM54.878 73.88H52.538V74.83H54.878V73.88ZM51.798 75.47H49.378L49.248 76.4H51.798V75.47ZM58.838 78.2H62.298V79H57.678V78.28L59.958 75.65C60.4246 75.1167 60.758 74.6733 60.958 74.32C61.158 73.9667 61.258 73.6367 61.258 73.33C61.258 72.95 61.1346 72.6433 60.888 72.41C60.6413 72.1767 60.318 72.06 59.918 72.06C59.5846 72.06 59.2846 72.16 59.018 72.36C58.758 72.56 58.5413 72.8467 58.368 73.22L57.628 72.86C57.828 72.3467 58.1246 71.9533 58.518 71.68C58.918 71.4 59.3913 71.26 59.938 71.26C60.3713 71.26 60.7546 71.3433 61.088 71.51C61.4213 71.6767 61.6813 71.9133 61.868 72.22C62.0546 72.5267 62.148 72.8833 62.148 73.29C62.148 73.6767 62.038 74.0867 61.818 74.52C61.598 74.9533 61.238 75.4567 60.738 76.03L58.838 78.2ZM63.322 74.58C64.1954 74.0267 64.992 73.3933 65.712 72.68C66.432 71.96 67.0254 71.2167 67.492 70.45H68.162C69.1954 72.0633 70.592 73.4433 72.352 74.59L71.882 75.37C71.0487 74.7967 70.282 74.1667 69.582 73.48C68.8887 72.7867 68.3054 72.0767 67.832 71.35C67.332 72.0967 66.7354 72.8133 66.042 73.5C65.3487 74.18 64.5887 74.8033 63.762 75.37L63.322 74.58ZM67.412 73.71H68.242V79.71H67.412V73.71ZM81.772 73.29V78.57C81.772 78.9233 81.692 79.1667 81.532 79.3C81.3787 79.4333 81.0987 79.5 80.692 79.5H80.072L79.952 78.8H80.482C80.7287 78.8 80.8887 78.77 80.962 78.71C81.042 78.65 81.082 78.5267 81.082 78.34V77.55H79.582V79.41H78.872V77.55H77.392V79.55H76.692V75.39L76.312 75.96C75.8854 75.5533 75.5887 75.2733 75.422 75.12V79.64H74.722V75.01C74.4087 75.8633 74.0587 76.61 73.672 77.25L73.372 76.25C73.5787 75.97 73.8087 75.5333 74.062 74.94C74.3154 74.3467 74.532 73.7467 74.712 73.14H73.572V72.44H74.722V70.6H75.422V72.44H76.472V73.14H75.422V74.23C75.8887 74.6367 76.312 75.0167 76.692 75.37V73.29H78.732L78.372 72.99C77.892 72.5833 77.562 72.31 77.382 72.17L77.782 71.66C78.302 72.0667 78.7787 72.45 79.212 72.81C79.8254 72.33 80.3054 71.94 80.652 71.64H76.722V70.99H81.722V71.64C81.5554 71.7667 81.172 72.0767 80.572 72.57L79.742 73.24C79.7687 73.2667 79.7887 73.2833 79.802 73.29H81.772ZM78.872 75.06V73.95H77.392V75.06H78.872ZM79.582 75.06H81.082V73.95H79.582V75.06ZM77.392 75.74V76.88H78.872V75.74H77.392ZM79.582 75.74V76.88H81.082V75.74H79.582ZM91.892 72.08C91.872 72.8 91.8387 73.82 91.792 75.14C91.752 76.4533 91.7187 77.4633 91.692 78.17C91.6787 78.49 91.622 78.7433 91.522 78.93C91.4287 79.11 91.2754 79.24 91.062 79.32C90.8554 79.4 90.572 79.44 90.212 79.44H88.952L88.802 78.66H89.982C90.242 78.66 90.4387 78.6367 90.572 78.59C90.712 78.5433 90.812 78.46 90.872 78.34C90.932 78.2133 90.9654 78.03 90.972 77.79L91.062 75.17L91.132 72.84H88.812C88.6054 73.3333 88.362 73.8133 88.082 74.28L87.422 73.84C87.7354 73.3667 88.022 72.8067 88.282 72.16C88.5487 71.5067 88.7487 70.8967 88.882 70.33L89.622 70.51C89.4954 71.0233 89.3287 71.5467 89.122 72.08H91.892ZM86.122 70.54C86.042 70.94 85.9154 71.4433 85.742 72.05H87.312V78.93H84.592V79.59H83.872V72.05H84.932C85.0587 71.6633 85.192 71.1133 85.332 70.4L86.122 70.54ZM84.592 75.12H86.592V72.82H84.592V75.12ZM89.572 76.77C89.1454 76.11 88.6687 75.4433 88.142 74.77L88.692 74.32C89.2854 75.04 89.792 75.7067 90.212 76.32L89.572 76.77ZM84.592 75.89V78.16H86.592V75.89H84.592ZM102.172 76.26H98.802C98.722 76.5067 98.6487 76.7067 98.582 76.86C98.582 76.86 99.392 77.33 101.012 78.27L102.132 78.92L101.742 79.64C101.055 79.2 99.8754 78.48 98.202 77.48C97.8487 77.9533 97.3287 78.36 96.642 78.7C95.9554 79.0333 95.002 79.3667 93.782 79.7L93.492 78.89C94.4654 78.6367 95.2354 78.3967 95.802 78.17C96.3754 77.9367 96.832 77.67 97.172 77.37C97.512 77.07 97.7654 76.7 97.932 76.26H93.512V75.53H98.142C98.242 75.01 98.3087 74.3267 98.342 73.48C98.3554 73.08 98.3654 72.6333 98.372 72.14C98.3854 71.6467 98.3954 71.2233 98.402 70.87V70.61H99.192C99.192 71.0367 99.1854 71.5433 99.172 72.13C99.1654 72.71 99.1554 73.1967 99.142 73.59C99.1087 74.3967 99.0487 75.0433 98.962 75.53H102.172V76.26ZM97.272 73.2C96.8787 72.92 96.142 72.42 95.062 71.7C94.902 71.6 94.8054 71.5367 94.772 71.51L95.152 70.88C95.5054 71.0867 95.9287 71.3533 96.422 71.68C96.922 72.0067 97.3454 72.2933 97.692 72.54L97.272 73.2ZM96.572 75.11C96.092 74.77 95.3587 74.3067 94.372 73.72L94.052 73.52L94.432 72.87C95.6787 73.6167 96.5287 74.14 96.982 74.44L96.572 75.11ZM105.422 70.61V72.38H106.482V73.1H105.422V74.88L105.942 74.7L106.272 74.58L106.412 75.33L105.422 75.67V78.52C105.422 78.78 105.389 78.98 105.322 79.12C105.255 79.26 105.142 79.3567 104.982 79.41C104.829 79.47 104.599 79.5 104.292 79.5H103.642L103.502 78.79H104.072C104.279 78.79 104.419 78.7833 104.492 78.77C104.572 78.75 104.622 78.7067 104.642 78.64C104.669 78.5733 104.682 78.45 104.682 78.27V75.92L103.532 76.32L103.392 75.57L104.682 75.14V73.1H103.602V72.38H104.682V70.61H105.422ZM112.052 72.45C112.052 72.5167 112.045 72.6367 112.032 72.81C112.019 72.9767 112.005 73.1467 111.992 73.32C111.972 73.58 111.922 73.78 111.842 73.92C111.769 74.0533 111.652 74.15 111.492 74.21C111.339 74.2633 111.115 74.29 110.822 74.29H108.112C107.679 74.29 107.375 74.2067 107.202 74.04C107.029 73.8733 106.942 73.57 106.942 73.13V70.65H107.672V72.01C108.212 71.9033 108.859 71.75 109.612 71.55C110.365 71.3433 110.999 71.1533 111.512 70.98L111.712 71.67C111.172 71.8433 110.519 72.0267 109.752 72.22C108.985 72.4133 108.292 72.5733 107.672 72.7V73C107.672 73.2467 107.712 73.4133 107.792 73.5C107.879 73.5867 108.042 73.63 108.282 73.63H110.552C110.845 73.63 111.042 73.59 111.142 73.51C111.249 73.43 111.305 73.2667 111.312 73.02L111.332 72.31L112.052 72.45ZM107.632 79.66H106.912V75.12H111.622V79.65H110.872V79.17H107.632V79.66ZM110.872 76.82V75.76H107.632V76.82H110.872ZM107.632 77.48V78.52H110.872V77.48H107.632ZM115.592 78.36L117.232 77.45L117.362 78.2L114.872 79.56L114.502 78.89C114.629 78.8033 114.715 78.7233 114.762 78.65C114.815 78.57 114.842 78.47 114.842 78.35V76.32H113.442V75.6H114.842V74.31H114.032V73.92C113.899 74.12 113.795 74.2667 113.722 74.36L113.312 73.67C113.599 73.2833 113.875 72.7967 114.142 72.21C114.415 71.6233 114.655 71.0167 114.862 70.39L115.562 70.59C115.449 70.95 115.305 71.35 115.132 71.79H117.402V72.49H114.822C114.642 72.8833 114.445 73.2567 114.232 73.61H117.022V74.31H115.592V75.6H117.292V76.32H115.592V78.36ZM120.152 73.92H122.232V74.7H120.152V79.65H119.362V74.7H117.332V73.92H119.362V70.54H120.152V73.92Z" fill="black"/>
<rect x="8" y="40" width="154" height="14" fill="#D9D9D9" stroke="#71717A" stroke-width="2"/>
<path d="M55.6881 43.36V44H53.6581C53.8781 44.24 54.0881 44.4867 54.2881 44.74L53.7481 45.07C53.7148 45.03 53.6281 44.92 53.4881 44.74C53.2215 44.3867 53.0281 44.14 52.9081 44H52.3981C52.1981 44.36 51.9715 44.72 51.7181 45.08L51.0681 44.75C51.3281 44.4233 51.5581 44.07 51.7581 43.69C51.9648 43.31 52.1715 42.88 52.3781 42.4L53.0781 42.6C52.9981 42.8067 52.8848 43.06 52.7381 43.36H55.6881ZM48.5081 44C48.1748 44.5067 47.8281 44.9667 47.4681 45.38L46.8681 44.95C47.2081 44.5767 47.5281 44.16 47.8281 43.7C48.1348 43.24 48.3715 42.8133 48.5381 42.42L49.2681 42.61C49.1748 42.83 49.0481 43.08 48.8881 43.36H51.3981V44H49.7381L49.9381 44.25C50.0315 44.3833 50.1548 44.54 50.3081 44.72L49.7181 45.03L49.4881 44.71C49.4215 44.6233 49.3315 44.5033 49.2181 44.35C49.1115 44.1967 49.0248 44.08 48.9581 44H48.5081ZM51.6981 47.47V48.4H55.2681C55.1948 49.18 55.1381 49.71 55.0981 49.99C55.0581 50.3367 54.9448 50.5767 54.7581 50.71C54.5781 50.8433 54.2815 50.91 53.8681 50.91H52.6081L52.4781 50.25H53.6881C53.9415 50.25 54.1181 50.22 54.2181 50.16C54.3181 50.1 54.3815 49.9733 54.4081 49.78C54.4548 49.4133 54.4815 49.16 54.4881 49.02H51.6981V51.7H50.9581V49.45C50.5115 49.8767 50.0015 50.2567 49.4281 50.59C48.8615 50.9167 48.1515 51.2333 47.2981 51.54L46.9181 50.83C47.7515 50.5767 48.4415 50.3067 48.9881 50.02C49.5415 49.7267 50.0315 49.3933 50.4581 49.02H47.5581L47.9181 46.83H50.9581V45.88H47.8981V45.23H54.7581V47.47H51.6981ZM54.0381 45.88H51.6981V46.83H54.0381V45.88ZM50.9581 47.47H48.5381L48.4081 48.4H50.9581V47.47ZM57.9781 51H57.1181V43.4H57.9981L61.9681 49.44H62.0181V43.4H62.8781V51H61.9981L58.0381 44.95H57.9781V51ZM64.1619 46.58C65.0352 46.0267 65.8319 45.3933 66.5519 44.68C67.2719 43.96 67.8652 43.2167 68.3319 42.45H69.0019C70.0352 44.0633 71.4319 45.4433 73.1919 46.59L72.7219 47.37C71.8885 46.7967 71.1219 46.1667 70.4219 45.48C69.7285 44.7867 69.1452 44.0767 68.6719 43.35C68.1719 44.0967 67.5752 44.8133 66.8819 45.5C66.1885 46.18 65.4285 46.8033 64.6019 47.37L64.1619 46.58ZM68.2519 45.71H69.0819V51.71H68.2519V45.71ZM82.6119 45.29V50.57C82.6119 50.9233 82.5319 51.1667 82.3719 51.3C82.2185 51.4333 81.9385 51.5 81.5319 51.5H80.9119L80.7919 50.8H81.3219C81.5685 50.8 81.7285 50.77 81.8019 50.71C81.8819 50.65 81.9219 50.5267 81.9219 50.34V49.55H80.4219V51.41H79.7119V49.55H78.2319V51.55H77.5319V47.39L77.1519 47.96C76.7252 47.5533 76.4285 47.2733 76.2619 47.12V51.64H75.5619V47.01C75.2485 47.8633 74.8985 48.61 74.5119 49.25L74.2119 48.25C74.4185 47.97 74.6485 47.5333 74.9019 46.94C75.1552 46.3467 75.3719 45.7467 75.5519 45.14H74.4119V44.44H75.5619V42.6H76.2619V44.44H77.3119V45.14H76.2619V46.23C76.7285 46.6367 77.1519 47.0167 77.5319 47.37V45.29H79.5719L79.2119 44.99C78.7319 44.5833 78.4019 44.31 78.2219 44.17L78.6219 43.66C79.1419 44.0667 79.6185 44.45 80.0519 44.81C80.6652 44.33 81.1452 43.94 81.4919 43.64H77.5619V42.99H82.5619V43.64C82.3952 43.7667 82.0119 44.0767 81.4119 44.57L80.5819 45.24C80.6085 45.2667 80.6285 45.2833 80.6419 45.29H82.6119ZM79.7119 47.06V45.95H78.2319V47.06H79.7119ZM80.4219 47.06H81.9219V45.95H80.4219V47.06ZM78.2319 47.74V48.88H79.7119V47.74H78.2319ZM80.4219 47.74V48.88H81.9219V47.74H80.4219ZM92.7319 44.08C92.7119 44.8 92.6785 45.82 92.6319 47.14C92.5919 48.4533 92.5585 49.4633 92.5319 50.17C92.5185 50.49 92.4619 50.7433 92.3619 50.93C92.2685 51.11 92.1152 51.24 91.9019 51.32C91.6952 51.4 91.4119 51.44 91.0519 51.44H89.7919L89.6419 50.66H90.8219C91.0819 50.66 91.2785 50.6367 91.4119 50.59C91.5519 50.5433 91.6519 50.46 91.7119 50.34C91.7719 50.2133 91.8052 50.03 91.8119 49.79L91.9019 47.17L91.9719 44.84H89.6519C89.4452 45.3333 89.2019 45.8133 88.9219 46.28L88.2619 45.84C88.5752 45.3667 88.8619 44.8067 89.1219 44.16C89.3885 43.5067 89.5885 42.8967 89.7219 42.33L90.4619 42.51C90.3352 43.0233 90.1685 43.5467 89.9619 44.08H92.7319ZM86.9619 42.54C86.8819 42.94 86.7552 43.4433 86.5819 44.05H88.1519V50.93H85.4319V51.59H84.7119V44.05H85.7719C85.8985 43.6633 86.0319 43.1133 86.1719 42.4L86.9619 42.54ZM85.4319 47.12H87.4319V44.82H85.4319V47.12ZM90.4119 48.77C89.9852 48.11 89.5085 47.4433 88.9819 46.77L89.5319 46.32C90.1252 47.04 90.6319 47.7067 91.0519 48.32L90.4119 48.77ZM85.4319 47.89V50.16H87.4319V47.89H85.4319ZM103.012 48.26H99.6419C99.5619 48.5067 99.4885 48.7067 99.4219 48.86C99.4219 48.86 100.232 49.33 101.852 50.27L102.972 50.92L102.582 51.64C101.895 51.2 100.715 50.48 99.0419 49.48C98.6885 49.9533 98.1685 50.36 97.4819 50.7C96.7952 51.0333 95.8419 51.3667 94.6219 51.7L94.3319 50.89C95.3052 50.6367 96.0752 50.3967 96.6419 50.17C97.2152 49.9367 97.6719 49.67 98.0119 49.37C98.3519 49.07 98.6052 48.7 98.7719 48.26H94.3519V47.53H98.9819C99.0819 47.01 99.1485 46.3267 99.1819 45.48C99.1952 45.08 99.2052 44.6333 99.2119 44.14C99.2252 43.6467 99.2352 43.2233 99.2419 42.87V42.61H100.032C100.032 43.0367 100.025 43.5433 100.012 44.13C100.005 44.71 99.9952 45.1967 99.9819 45.59C99.9485 46.3967 99.8885 47.0433 99.8019 47.53H103.012V48.26ZM98.1119 45.2C97.7185 44.92 96.9819 44.42 95.9019 43.7C95.7419 43.6 95.6452 43.5367 95.6119 43.51L95.9919 42.88C96.3452 43.0867 96.7685 43.3533 97.2619 43.68C97.7619 44.0067 98.1852 44.2933 98.5319 44.54L98.1119 45.2ZM97.4119 47.11C96.9319 46.77 96.1985 46.3067 95.2119 45.72L94.8919 45.52L95.2719 44.87C96.5185 45.6167 97.3685 46.14 97.8219 46.44L97.4119 47.11ZM106.262 42.61V44.38H107.322V45.1H106.262V46.88L106.782 46.7L107.112 46.58L107.252 47.33L106.262 47.67V50.52C106.262 50.78 106.229 50.98 106.162 51.12C106.095 51.26 105.982 51.3567 105.822 51.41C105.669 51.47 105.439 51.5 105.132 51.5H104.482L104.342 50.79H104.912C105.119 50.79 105.259 50.7833 105.332 50.77C105.412 50.75 105.462 50.7067 105.482 50.64C105.509 50.5733 105.522 50.45 105.522 50.27V47.92L104.372 48.32L104.232 47.57L105.522 47.14V45.1H104.442V44.38H105.522V42.61H106.262ZM112.892 44.45C112.892 44.5167 112.885 44.6367 112.872 44.81C112.859 44.9767 112.845 45.1467 112.832 45.32C112.812 45.58 112.762 45.78 112.682 45.92C112.609 46.0533 112.492 46.15 112.332 46.21C112.179 46.2633 111.955 46.29 111.662 46.29H108.952C108.519 46.29 108.215 46.2067 108.042 46.04C107.869 45.8733 107.782 45.57 107.782 45.13V42.65H108.512V44.01C109.052 43.9033 109.699 43.75 110.452 43.55C111.205 43.3433 111.839 43.1533 112.352 42.98L112.552 43.67C112.012 43.8433 111.359 44.0267 110.592 44.22C109.825 44.4133 109.132 44.5733 108.512 44.7V45C108.512 45.2467 108.552 45.4133 108.632 45.5C108.719 45.5867 108.882 45.63 109.122 45.63H111.392C111.685 45.63 111.882 45.59 111.982 45.51C112.089 45.43 112.145 45.2667 112.152 45.02L112.172 44.31L112.892 44.45ZM108.472 51.66H107.752V47.12H112.462V51.65H111.712V51.17H108.472V51.66ZM111.712 48.82V47.76H108.472V48.82H111.712ZM108.472 49.48V50.52H111.712V49.48H108.472ZM116.432 50.36L118.072 49.45L118.202 50.2L115.712 51.56L115.342 50.89C115.469 50.8033 115.555 50.7233 115.602 50.65C115.655 50.57 115.682 50.47 115.682 50.35V48.32H114.282V47.6H115.682V46.31H114.872V45.92C114.739 46.12 114.635 46.2667 114.562 46.36L114.152 45.67C114.439 45.2833 114.715 44.7967 114.982 44.21C115.255 43.6233 115.495 43.0167 115.702 42.39L116.402 42.59C116.289 42.95 116.145 43.35 115.972 43.79H118.242V44.49H115.662C115.482 44.8833 115.285 45.2567 115.072 45.61H117.862V46.31H116.432V47.6H118.132V48.32H116.432V50.36ZM120.992 45.92H123.072V46.7H120.992V51.65H120.202V46.7H118.172V45.92H120.202V42.54H120.992V45.92Z" fill="black"/>
<rect x="7.5" y="39.5" width="155" height="57" stroke="#F87171"/>
</svg>
