<svg width="168" height="189" viewBox="0 0 168 189" fill="none" xmlns="http://www.w3.org/2000/svg">
<rect width="168" height="189" fill="white"/>
<rect x="7" y="122" width="154" height="14" fill="#DCFCE7" stroke="#71717A" stroke-width="2"/>
<rect x="85" y="150" width="76" height="14" fill="#FED7AA" stroke="#71717A" stroke-width="2"/>
<path d="M108.23 152.45C108.563 153.357 108.977 154.107 109.47 154.7C109.97 155.293 110.633 155.837 111.46 156.33L111.04 157.06C110.147 156.487 109.43 155.873 108.89 155.22C108.357 154.567 107.903 153.733 107.53 152.72L108.23 152.45ZM106.37 152.9C105.997 153.76 105.537 154.527 104.99 155.2C104.443 155.873 103.783 156.493 103.01 157.06L102.58 156.4C103.247 155.94 103.843 155.387 104.37 154.74C104.897 154.087 105.33 153.377 105.67 152.61L106.37 152.9ZM103.87 157.21V156.5H109.71C109.683 157.007 109.64 157.637 109.58 158.39C109.527 159.143 109.48 159.703 109.44 160.07C109.407 160.417 109.33 160.687 109.21 160.88C109.097 161.067 108.923 161.2 108.69 161.28C108.463 161.36 108.153 161.4 107.76 161.4H106.44L106.3 160.67H107.53C107.823 160.67 108.047 160.647 108.2 160.6C108.353 160.547 108.463 160.457 108.53 160.33C108.603 160.197 108.653 160.003 108.68 159.75C108.713 159.363 108.75 158.923 108.79 158.43C108.83 157.937 108.86 157.53 108.88 157.21H106.08C106.067 157.317 106.053 157.51 106.04 157.79C106.007 158.403 105.907 158.927 105.74 159.36C105.573 159.787 105.297 160.19 104.91 160.57C104.523 160.95 103.973 161.347 103.26 161.76L102.71 161.07C103.363 160.743 103.867 160.427 104.22 160.12C104.573 159.807 104.823 159.473 104.97 159.12C105.123 158.76 105.23 158.313 105.29 157.78L105.34 157.21H103.87ZM114.11 153.78H112.62V153.11H117.25V153.78H115.91V154.97H117.07V161.08H113.56V161.69H112.94V154.97H114.11V153.78ZM120.64 158.57L121.36 158.71L121.29 160.09C121.263 160.443 121.217 160.707 121.15 160.88C121.083 161.047 120.973 161.163 120.82 161.23C120.673 161.303 120.447 161.34 120.14 161.34H118.96C118.667 161.34 118.44 161.303 118.28 161.23C118.12 161.163 118.007 161.043 117.94 160.87C117.873 160.697 117.84 160.447 117.84 160.12V156.23H120.21V153.89H117.72V153.16H120.95V156.99H118.58V159.96C118.58 160.147 118.593 160.283 118.62 160.37C118.653 160.457 118.71 160.517 118.79 160.55C118.87 160.583 118.997 160.6 119.17 160.6H119.91C120.103 160.6 120.247 160.58 120.34 160.54C120.433 160.5 120.497 160.43 120.53 160.33C120.57 160.23 120.597 160.07 120.61 159.85L120.64 158.57ZM114.69 154.97H115.31V153.78H114.69V154.97ZM114.19 155.63H113.55V157.94C113.803 157.667 113.973 157.38 114.06 157.08C114.147 156.78 114.19 156.35 114.19 155.79V155.63ZM116.07 157.93C115.803 157.93 115.61 157.873 115.49 157.76C115.37 157.647 115.31 157.453 115.31 157.18V155.63H114.69V155.89C114.683 156.49 114.627 156.967 114.52 157.32C114.413 157.673 114.213 158.027 113.92 158.38L113.56 158.11V158.77H116.44V157.93H116.07ZM116.45 157.39V155.63H115.81V156.96C115.81 157.12 115.843 157.233 115.91 157.3C115.977 157.36 116.093 157.39 116.26 157.39H116.45ZM113.56 159.43V160.43H116.44V159.43H113.56ZM128.35 157.89C128.577 158.59 128.93 159.18 129.41 159.66C129.897 160.14 130.553 160.56 131.38 160.92L130.97 161.67C130.23 161.323 129.607 160.913 129.1 160.44C128.6 159.96 128.21 159.397 127.93 158.75C127.723 159.31 127.397 159.827 126.95 160.3C126.51 160.773 125.92 161.25 125.18 161.73L124.75 161.02C125.57 160.54 126.187 160.06 126.6 159.58C127.013 159.093 127.283 158.53 127.41 157.89H125.36V157.15H127.49V156.95V154.88H125.8V154.14H127.5V152.53H128.26V154.14H130.52V157.15H131.36V157.89H128.35ZM125.62 159.16L125.68 159.57C125.293 159.69 124.777 159.853 124.13 160.06C123.483 160.26 123.03 160.407 122.77 160.5L122.59 159.7C122.737 159.667 123.133 159.557 123.78 159.37V156H122.63V155.26H123.78V152.61H124.49V155.26H125.59V156H124.49V159.15C125.043 158.977 125.4 158.86 125.56 158.8L125.62 159.16ZM128.24 156.9C128.24 157.013 128.237 157.097 128.23 157.15H129.8V154.88H128.25L128.24 156.9ZM134.25 155.33V156.25C134.25 157.503 134.177 158.527 134.03 159.32C133.89 160.107 133.64 160.9 133.28 161.7L132.57 161.33C132.817 160.79 133.003 160.29 133.13 159.83C133.263 159.37 133.357 158.85 133.41 158.27C133.47 157.683 133.5 156.943 133.5 156.05V153.03H140.8V155.33H134.25ZM140.04 154.65V153.72H134.25V154.65H140.04ZM140.35 159.61L141.04 159.79L141.01 160.52C140.997 160.88 140.907 161.127 140.74 161.26C140.573 161.393 140.277 161.46 139.85 161.46H137.88C137.48 161.46 137.197 161.38 137.03 161.22C136.87 161.067 136.79 160.777 136.79 160.35V159.66L134.26 159.8L134.22 159.18L136.79 159.02V158.23L134.78 158.35L134.75 157.75L136.79 157.63V156.85C135.923 156.93 135.263 156.983 134.81 157.01L134.75 156.4C135.59 156.347 136.567 156.26 137.68 156.14C138.793 156.02 139.7 155.9 140.4 155.78L140.51 156.38C139.77 156.513 138.773 156.643 137.52 156.77V157.58L140.56 157.4L140.59 158L137.52 158.18V158.98L141.33 158.74L141.37 159.4L137.52 159.62V160.15C137.52 160.397 137.56 160.563 137.64 160.65C137.727 160.73 137.89 160.77 138.13 160.77H139.65C139.843 160.77 139.983 160.757 140.07 160.73C140.157 160.703 140.22 160.653 140.26 160.58C140.3 160.5 140.327 160.373 140.34 160.2L140.35 159.61Z" fill="black"/>
<rect x="85" y="108" width="76" height="14" fill="#86EFAC" stroke="#71717A" stroke-width="2"/>
<path d="M103.8 112.38V113.67H103.04V111.66H106.75C106.637 111.273 106.527 110.937 106.42 110.65L107.2 110.51C107.267 110.677 107.4 111.06 107.6 111.66H110.96V113.68H110.19V112.38H103.8ZM107.95 113.07C108.423 113.317 109.02 113.64 109.74 114.04C110.46 114.433 111.007 114.74 111.38 114.96L111 115.63C110.58 115.37 110.013 115.043 109.3 114.65C108.593 114.257 108.03 113.957 107.61 113.75L107.95 113.07ZM106.39 113.75C105.903 114.077 105.35 114.42 104.73 114.78C104.117 115.14 103.527 115.46 102.96 115.74L102.63 115.02C103.197 114.767 103.783 114.463 104.39 114.11C105.003 113.75 105.533 113.407 105.98 113.08L106.39 113.75ZM110.19 116.4H107.41V118.5H111.18V119.23H102.83V118.5H106.6V116.4H103.82V115.67H110.19V116.4ZM114.87 112.64C114.677 112.427 114.417 112.157 114.09 111.83C113.77 111.497 113.507 111.237 113.3 111.05L113.81 110.53C114.103 110.797 114.637 111.307 115.41 112.06L114.87 112.64ZM115.67 111.14H120.91V118.41C120.91 118.717 120.87 118.95 120.79 119.11C120.717 119.27 120.587 119.383 120.4 119.45C120.213 119.517 119.937 119.55 119.57 119.55H118.48L118.34 118.81H119.32C119.58 118.81 119.77 118.793 119.89 118.76C120.017 118.727 120.1 118.667 120.14 118.58C120.187 118.487 120.21 118.343 120.21 118.15V111.87H115.67V111.14ZM119.25 117.54C119.043 117.333 118.757 117.073 118.39 116.76C118.03 116.447 117.683 116.157 117.35 115.89V118.98H116.63V115.7C116.377 116.127 116.09 116.52 115.77 116.88C115.45 117.233 115.053 117.607 114.58 118L114.11 117.34C114.723 116.847 115.217 116.38 115.59 115.94C115.963 115.5 116.29 114.987 116.57 114.4H114.47V113.68H116.63V112.36H117.35V113.68H119.53V114.4H117.35V115.06L117.68 115.32C117.807 115.42 118.107 115.657 118.58 116.03C119.053 116.397 119.407 116.68 119.64 116.88L119.25 117.54ZM113.79 119.59H113.07V112.51H113.79V119.59ZM128.35 115.89C128.577 116.59 128.93 117.18 129.41 117.66C129.897 118.14 130.553 118.56 131.38 118.92L130.97 119.67C130.23 119.323 129.607 118.913 129.1 118.44C128.6 117.96 128.21 117.397 127.93 116.75C127.723 117.31 127.397 117.827 126.95 118.3C126.51 118.773 125.92 119.25 125.18 119.73L124.75 119.02C125.57 118.54 126.187 118.06 126.6 117.58C127.013 117.093 127.283 116.53 127.41 115.89H125.36V115.15H127.49V114.95V112.88H125.8V112.14H127.5V110.53H128.26V112.14H130.52V115.15H131.36V115.89H128.35ZM125.62 117.16L125.68 117.57C125.293 117.69 124.777 117.853 124.13 118.06C123.483 118.26 123.03 118.407 122.77 118.5L122.59 117.7C122.737 117.667 123.133 117.557 123.78 117.37V114H122.63V113.26H123.78V110.61H124.49V113.26H125.59V114H124.49V117.15C125.043 116.977 125.4 116.86 125.56 116.8L125.62 117.16ZM128.24 114.9C128.24 115.013 128.237 115.097 128.23 115.15H129.8V112.88H128.25L128.24 114.9ZM134.25 113.33V114.25C134.25 115.503 134.177 116.527 134.03 117.32C133.89 118.107 133.64 118.9 133.28 119.7L132.57 119.33C132.817 118.79 133.003 118.29 133.13 117.83C133.263 117.37 133.357 116.85 133.41 116.27C133.47 115.683 133.5 114.943 133.5 114.05V111.03H140.8V113.33H134.25ZM140.04 112.65V111.72H134.25V112.65H140.04ZM140.35 117.61L141.04 117.79L141.01 118.52C140.997 118.88 140.907 119.127 140.74 119.26C140.573 119.393 140.277 119.46 139.85 119.46H137.88C137.48 119.46 137.197 119.38 137.03 119.22C136.87 119.067 136.79 118.777 136.79 118.35V117.66L134.26 117.8L134.22 117.18L136.79 117.02V116.23L134.78 116.35L134.75 115.75L136.79 115.63V114.85C135.923 114.93 135.263 114.983 134.81 115.01L134.75 114.4C135.59 114.347 136.567 114.26 137.68 114.14C138.793 114.02 139.7 113.9 140.4 113.78L140.51 114.38C139.77 114.513 138.773 114.643 137.52 114.77V115.58L140.56 115.4L140.59 116L137.52 116.18V116.98L141.33 116.74L141.37 117.4L137.52 117.62V118.15C137.52 118.397 137.56 118.563 137.64 118.65C137.727 118.73 137.89 118.77 138.13 118.77H139.65C139.843 118.77 139.983 118.757 140.07 118.73C140.157 118.703 140.22 118.653 140.26 118.58C140.3 118.5 140.327 118.373 140.34 118.2L140.35 117.61Z" fill="black"/>
<rect x="7" y="150" width="78" height="14" fill="#86EFAC" stroke="#71717A" stroke-width="2"/>
<path d="M28.8 154.38V155.67H28.04V153.66H31.75C31.6367 153.273 31.5267 152.937 31.42 152.65L32.2 152.51C32.2667 152.677 32.4 153.06 32.6 153.66H35.96V155.68H35.19V154.38H28.8ZM32.95 155.07C33.4233 155.317 34.02 155.64 34.74 156.04C35.46 156.433 36.0067 156.74 36.38 156.96L36 157.63C35.58 157.37 35.0133 157.043 34.3 156.65C33.5933 156.257 33.03 155.957 32.61 155.75L32.95 155.07ZM31.39 155.75C30.9033 156.077 30.35 156.42 29.73 156.78C29.1167 157.14 28.5267 157.46 27.96 157.74L27.63 157.02C28.1967 156.767 28.7833 156.463 29.39 156.11C30.0033 155.75 30.5333 155.407 30.98 155.08L31.39 155.75ZM35.19 158.4H32.41V160.5H36.18V161.23H27.83V160.5H31.6V158.4H28.82V157.67H35.19V158.4ZM39.87 154.64C39.6767 154.427 39.4167 154.157 39.09 153.83C38.77 153.497 38.5067 153.237 38.3 153.05L38.81 152.53C39.1033 152.797 39.6367 153.307 40.41 154.06L39.87 154.64ZM40.67 153.14H45.91V160.41C45.91 160.717 45.87 160.95 45.79 161.11C45.7167 161.27 45.5867 161.383 45.4 161.45C45.2133 161.517 44.9367 161.55 44.57 161.55H43.48L43.34 160.81H44.32C44.58 160.81 44.77 160.793 44.89 160.76C45.0167 160.727 45.1 160.667 45.14 160.58C45.1867 160.487 45.21 160.343 45.21 160.15V153.87H40.67V153.14ZM44.25 159.54C44.0433 159.333 43.7567 159.073 43.39 158.76C43.03 158.447 42.6833 158.157 42.35 157.89V160.98H41.63V157.7C41.3767 158.127 41.09 158.52 40.77 158.88C40.45 159.233 40.0533 159.607 39.58 160L39.11 159.34C39.7233 158.847 40.2167 158.38 40.59 157.94C40.9633 157.5 41.29 156.987 41.57 156.4H39.47V155.68H41.63V154.36H42.35V155.68H44.53V156.4H42.35V157.06L42.68 157.32C42.8067 157.42 43.1067 157.657 43.58 158.03C44.0533 158.397 44.4067 158.68 44.64 158.88L44.25 159.54ZM38.79 161.59H38.07V154.51H38.79V161.59ZM53.35 157.89C53.5767 158.59 53.93 159.18 54.41 159.66C54.8967 160.14 55.5533 160.56 56.38 160.92L55.97 161.67C55.23 161.323 54.6067 160.913 54.1 160.44C53.6 159.96 53.21 159.397 52.93 158.75C52.7233 159.31 52.3967 159.827 51.95 160.3C51.51 160.773 50.92 161.25 50.18 161.73L49.75 161.02C50.57 160.54 51.1867 160.06 51.6 159.58C52.0133 159.093 52.2833 158.53 52.41 157.89H50.36V157.15H52.49V156.95V154.88H50.8V154.14H52.5V152.53H53.26V154.14H55.52V157.15H56.36V157.89H53.35ZM50.62 159.16L50.68 159.57C50.2933 159.69 49.7767 159.853 49.13 160.06C48.4833 160.26 48.03 160.407 47.77 160.5L47.59 159.7C47.7367 159.667 48.1333 159.557 48.78 159.37V156H47.63V155.26H48.78V152.61H49.49V155.26H50.59V156H49.49V159.15C50.0433 158.977 50.4 158.86 50.56 158.8L50.62 159.16ZM53.24 156.9C53.24 157.013 53.2367 157.097 53.23 157.15H54.8V154.88H53.25L53.24 156.9ZM66.34 158.26H62.97C62.89 158.507 62.8167 158.707 62.75 158.86C62.75 158.86 63.56 159.33 65.18 160.27L66.3 160.92L65.91 161.64C65.2233 161.2 64.0433 160.48 62.37 159.48C62.0167 159.953 61.4967 160.36 60.81 160.7C60.1233 161.033 59.17 161.367 57.95 161.7L57.66 160.89C58.6333 160.637 59.4033 160.397 59.97 160.17C60.5433 159.937 61 159.67 61.34 159.37C61.68 159.07 61.9333 158.7 62.1 158.26H57.68V157.53H62.31C62.41 157.01 62.4767 156.327 62.51 155.48C62.5233 155.08 62.5333 154.633 62.54 154.14C62.5533 153.647 62.5633 153.223 62.57 152.87V152.61H63.36C63.36 153.037 63.3533 153.543 63.34 154.13C63.3333 154.71 63.3233 155.197 63.31 155.59C63.2767 156.397 63.2167 157.043 63.13 157.53H66.34V158.26ZM61.44 155.2C61.0467 154.92 60.31 154.42 59.23 153.7C59.07 153.6 58.9733 153.537 58.94 153.51L59.32 152.88C59.6733 153.087 60.0967 153.353 60.59 153.68C61.09 154.007 61.5133 154.293 61.86 154.54L61.44 155.2ZM60.74 157.11C60.26 156.77 59.5267 156.307 58.54 155.72L58.22 155.52L58.6 154.87C59.8467 155.617 60.6967 156.14 61.15 156.44L60.74 157.11Z" fill="black"/>
<rect x="85" y="136" width="76" height="14" fill="#DCFCE7" stroke="#71717A" stroke-width="2"/>
<path d="M112.613 149.39V141.7H113.443V142.46H113.493C113.693 142.18 113.936 141.96 114.223 141.8C114.516 141.64 114.829 141.56 115.163 141.56C115.589 141.56 115.973 141.677 116.313 141.91C116.659 142.137 116.929 142.457 117.123 142.87C117.316 143.277 117.413 143.737 117.413 144.25C117.413 144.803 117.316 145.3 117.123 145.74C116.929 146.173 116.659 146.513 116.313 146.76C115.973 147.007 115.589 147.13 115.163 147.13C114.803 147.13 114.479 147.053 114.193 146.9C113.913 146.747 113.679 146.527 113.493 146.24H113.443V149.39H112.613ZM113.403 144.35C113.403 144.73 113.466 145.07 113.593 145.37C113.726 145.67 113.909 145.903 114.143 146.07C114.376 146.237 114.643 146.32 114.943 146.32C115.256 146.32 115.536 146.237 115.783 146.07C116.029 145.903 116.223 145.67 116.363 145.37C116.503 145.07 116.573 144.73 116.573 144.35C116.573 143.97 116.503 143.63 116.363 143.33C116.229 143.03 116.039 142.797 115.793 142.63C115.553 142.463 115.279 142.38 114.973 142.38C114.673 142.38 114.403 142.463 114.163 142.63C113.923 142.797 113.736 143.03 113.603 143.33C113.469 143.63 113.403 143.97 113.403 144.35ZM118.589 147V141.7H119.419V142.71H119.469C119.689 142.35 119.969 142.07 120.309 141.87C120.649 141.663 121.026 141.56 121.439 141.56H121.509V142.46H121.419C121.012 142.46 120.659 142.527 120.359 142.66C120.059 142.793 119.826 142.977 119.659 143.21C119.499 143.437 119.419 143.683 119.419 143.95V147H118.589ZM126.632 143.9C126.632 144.133 126.612 144.36 126.572 144.58H122.832C122.865 145.133 123.028 145.57 123.322 145.89C123.615 146.21 124.005 146.37 124.492 146.37C124.765 146.37 125.022 146.303 125.262 146.17C125.502 146.037 125.708 145.84 125.882 145.58L126.532 146.03C126.058 146.763 125.378 147.13 124.492 147.13C123.712 147.13 123.095 146.883 122.642 146.39C122.195 145.897 121.972 145.22 121.972 144.36C121.972 143.493 122.185 142.81 122.612 142.31C123.038 141.81 123.625 141.56 124.372 141.56C125.072 141.56 125.622 141.77 126.022 142.19C126.428 142.61 126.632 143.18 126.632 143.9ZM125.782 143.83C125.782 143.37 125.652 143.003 125.392 142.73C125.138 142.457 124.798 142.32 124.372 142.32C123.972 142.32 123.638 142.453 123.372 142.72C123.105 142.987 122.935 143.357 122.862 143.83H125.782ZM129.09 147L127.07 141.7H127.97L129.53 145.95H129.59L131.15 141.7H132.04L129.99 147H129.09Z" fill="black"/>
<rect x="7" y="136" width="78" height="14" fill="#DCFCE7" stroke="#71717A" stroke-width="2"/>
<path d="M37.8616 147V141.7H38.6916V142.45H38.7416C38.9016 142.183 39.1349 141.97 39.4416 141.81C39.7549 141.643 40.0683 141.56 40.3816 141.56C40.9683 141.56 41.4283 141.743 41.7616 142.11C42.0949 142.47 42.2616 142.98 42.2616 143.64V147H41.4316V143.76C41.4316 143.333 41.3116 142.987 41.0716 142.72C40.8316 142.453 40.5316 142.32 40.1716 142.32C39.7316 142.32 39.3749 142.463 39.1016 142.75C38.8283 143.03 38.6916 143.4 38.6916 143.86V147H37.8616ZM48.0526 143.9C48.0526 144.133 48.0326 144.36 47.9926 144.58H44.2526C44.286 145.133 44.4493 145.57 44.7426 145.89C45.036 146.21 45.426 146.37 45.9126 146.37C46.186 146.37 46.4426 146.303 46.6826 146.17C46.9226 146.037 47.1293 145.84 47.3026 145.58L47.9526 146.03C47.4793 146.763 46.7993 147.13 45.9126 147.13C45.1326 147.13 44.516 146.883 44.0626 146.39C43.616 145.897 43.3926 145.22 43.3926 144.36C43.3926 143.493 43.606 142.81 44.0326 142.31C44.4593 141.81 45.046 141.56 45.7926 141.56C46.4926 141.56 47.0426 141.77 47.4426 142.19C47.8493 142.61 48.0526 143.18 48.0526 143.9ZM47.2026 143.83C47.2026 143.37 47.0726 143.003 46.8126 142.73C46.5593 142.457 46.2193 142.32 45.7926 142.32C45.3926 142.32 45.0593 142.453 44.7926 142.72C44.526 142.987 44.356 143.357 44.2826 143.83H47.2026ZM51.3325 144.32L53.1925 147H52.1825L50.8225 144.93L49.4425 147H48.4425L50.3625 144.24L48.5725 141.7H49.5725L50.8925 143.68L52.1525 141.7H53.1325L51.3325 144.32ZM56.6742 142.48H55.1442V145.52C55.1442 145.813 55.2208 146.04 55.3742 146.2C55.5275 146.36 55.7408 146.44 56.0142 146.44C56.1742 146.44 56.3542 146.407 56.5542 146.34V147.1C56.3742 147.173 56.1375 147.21 55.8442 147.21C55.3508 147.21 54.9708 147.07 54.7042 146.79C54.4442 146.51 54.3142 146.107 54.3142 145.58V142.48H53.4842V141.7H54.3142V140.02H55.1442V141.7H56.6742V142.48Z" fill="black"/>
<rect x="7" y="108" width="78" height="14" fill="#FED7AA" stroke="#71717A" stroke-width="2"/>
<path d="M33.23 110.45C33.5633 111.357 33.9767 112.107 34.47 112.7C34.97 113.293 35.6333 113.837 36.46 114.33L36.04 115.06C35.1467 114.487 34.43 113.873 33.89 113.22C33.3567 112.567 32.9033 111.733 32.53 110.72L33.23 110.45ZM31.37 110.9C30.9967 111.76 30.5367 112.527 29.99 113.2C29.4433 113.873 28.7833 114.493 28.01 115.06L27.58 114.4C28.2467 113.94 28.8433 113.387 29.37 112.74C29.8967 112.087 30.33 111.377 30.67 110.61L31.37 110.9ZM28.87 115.21V114.5H34.71C34.6833 115.007 34.64 115.637 34.58 116.39C34.5267 117.143 34.48 117.703 34.44 118.07C34.4067 118.417 34.33 118.687 34.21 118.88C34.0967 119.067 33.9233 119.2 33.69 119.28C33.4633 119.36 33.1533 119.4 32.76 119.4H31.44L31.3 118.67H32.53C32.8233 118.67 33.0467 118.647 33.2 118.6C33.3533 118.547 33.4633 118.457 33.53 118.33C33.6033 118.197 33.6533 118.003 33.68 117.75C33.7133 117.363 33.75 116.923 33.79 116.43C33.83 115.937 33.86 115.53 33.88 115.21H31.08C31.0667 115.317 31.0533 115.51 31.04 115.79C31.0067 116.403 30.9067 116.927 30.74 117.36C30.5733 117.787 30.2967 118.19 29.91 118.57C29.5233 118.95 28.9733 119.347 28.26 119.76L27.71 119.07C28.3633 118.743 28.8667 118.427 29.22 118.12C29.5733 117.807 29.8233 117.473 29.97 117.12C30.1233 116.76 30.23 116.313 30.29 115.78L30.34 115.21H28.87ZM39.11 111.78H37.62V111.11H42.25V111.78H40.91V112.97H42.07V119.08H38.56V119.69H37.94V112.97H39.11V111.78ZM45.64 116.57L46.36 116.71L46.29 118.09C46.2633 118.443 46.2167 118.707 46.15 118.88C46.0833 119.047 45.9733 119.163 45.82 119.23C45.6733 119.303 45.4467 119.34 45.14 119.34H43.96C43.6667 119.34 43.44 119.303 43.28 119.23C43.12 119.163 43.0067 119.043 42.94 118.87C42.8733 118.697 42.84 118.447 42.84 118.12V114.23H45.21V111.89H42.72V111.16H45.95V114.99H43.58V117.96C43.58 118.147 43.5933 118.283 43.62 118.37C43.6533 118.457 43.71 118.517 43.79 118.55C43.87 118.583 43.9967 118.6 44.17 118.6H44.91C45.1033 118.6 45.2467 118.58 45.34 118.54C45.4333 118.5 45.4967 118.43 45.53 118.33C45.57 118.23 45.5967 118.07 45.61 117.85L45.64 116.57ZM39.69 112.97H40.31V111.78H39.69V112.97ZM39.19 113.63H38.55V115.94C38.8033 115.667 38.9733 115.38 39.06 115.08C39.1467 114.78 39.19 114.35 39.19 113.79V113.63ZM41.07 115.93C40.8033 115.93 40.61 115.873 40.49 115.76C40.37 115.647 40.31 115.453 40.31 115.18V113.63H39.69V113.89C39.6833 114.49 39.6267 114.967 39.52 115.32C39.4133 115.673 39.2133 116.027 38.92 116.38L38.56 116.11V116.77H41.44V115.93H41.07ZM41.45 115.39V113.63H40.81V114.96C40.81 115.12 40.8433 115.233 40.91 115.3C40.9767 115.36 41.0933 115.39 41.26 115.39H41.45ZM38.56 117.43V118.43H41.44V117.43H38.56ZM53.35 115.89C53.5767 116.59 53.93 117.18 54.41 117.66C54.8967 118.14 55.5533 118.56 56.38 118.92L55.97 119.67C55.23 119.323 54.6067 118.913 54.1 118.44C53.6 117.96 53.21 117.397 52.93 116.75C52.7233 117.31 52.3967 117.827 51.95 118.3C51.51 118.773 50.92 119.25 50.18 119.73L49.75 119.02C50.57 118.54 51.1867 118.06 51.6 117.58C52.0133 117.093 52.2833 116.53 52.41 115.89H50.36V115.15H52.49V114.95V112.88H50.8V112.14H52.5V110.53H53.26V112.14H55.52V115.15H56.36V115.89H53.35ZM50.62 117.16L50.68 117.57C50.2933 117.69 49.7767 117.853 49.13 118.06C48.4833 118.26 48.03 118.407 47.77 118.5L47.59 117.7C47.7367 117.667 48.1333 117.557 48.78 117.37V114H47.63V113.26H48.78V110.61H49.49V113.26H50.59V114H49.49V117.15C50.0433 116.977 50.4 116.86 50.56 116.8L50.62 117.16ZM53.24 114.9C53.24 115.013 53.2367 115.097 53.23 115.15H54.8V112.88H53.25L53.24 114.9ZM66.34 116.26H62.97C62.89 116.507 62.8167 116.707 62.75 116.86C62.75 116.86 63.56 117.33 65.18 118.27L66.3 118.92L65.91 119.64C65.2233 119.2 64.0433 118.48 62.37 117.48C62.0167 117.953 61.4967 118.36 60.81 118.7C60.1233 119.033 59.17 119.367 57.95 119.7L57.66 118.89C58.6333 118.637 59.4033 118.397 59.97 118.17C60.5433 117.937 61 117.67 61.34 117.37C61.68 117.07 61.9333 116.7 62.1 116.26H57.68V115.53H62.31C62.41 115.01 62.4767 114.327 62.51 113.48C62.5233 113.08 62.5333 112.633 62.54 112.14C62.5533 111.647 62.5633 111.223 62.57 110.87V110.61H63.36C63.36 111.037 63.3533 111.543 63.34 112.13C63.3333 112.71 63.3233 113.197 63.31 113.59C63.2767 114.397 63.2167 115.043 63.13 115.53H66.34V116.26ZM61.44 113.2C61.0467 112.92 60.31 112.42 59.23 111.7C59.07 111.6 58.9733 111.537 58.94 111.51L59.32 110.88C59.6733 111.087 60.0967 111.353 60.59 111.68C61.09 112.007 61.5133 112.293 61.86 112.54L61.44 113.2ZM60.74 115.11C60.26 114.77 59.5267 114.307 58.54 113.72L58.22 113.52L58.6 112.87C59.8467 113.617 60.6967 114.14 61.15 114.44L60.74 115.11Z" fill="black"/>
<rect x="7" y="26" width="154" height="14" fill="#FFEDD6" stroke="#71717A" stroke-width="2"/>
<rect x="85" y="54" width="76" height="14" fill="#CCD5E2" stroke="#71717A" stroke-width="2"/>
<path d="M107.76 61.15C108.213 61.7833 108.75 62.3767 109.37 62.93C109.99 63.4767 110.667 63.95 111.4 64.35L110.93 65.06C110.217 64.6333 109.557 64.1433 108.95 63.59C108.35 63.03 107.827 62.4367 107.38 61.81V65.61H106.63V61.86C106.203 62.4733 105.71 63.0333 105.15 63.54C104.59 64.04 103.887 64.55 103.04 65.07L102.56 64.38C103.427 63.9067 104.157 63.41 104.75 62.89C105.35 62.3633 105.86 61.7833 106.28 61.15H102.79V60.43H106.63V58.72H103.43V57.99H106.63V56.52H107.38V57.99H110.58V58.72H107.38V60.43H111.21V61.15H107.76ZM115.27 58.58L115.26 60.57H116.84V61.32H115.23C115.197 61.6733 115.15 61.9733 115.09 62.22C115.55 62.7333 116.133 63.43 116.84 64.31L116.3 64.85C115.787 64.21 115.3 63.62 114.84 63.08C114.52 63.9467 113.937 64.8233 113.09 65.71L112.54 65.13C113.16 64.5033 113.623 63.8933 113.93 63.3C114.243 62.7 114.433 62.04 114.5 61.32H112.61V60.57H114.53L114.54 58.58H113.87C113.637 59.1733 113.417 59.66 113.21 60.04L112.6 59.67C112.84 59.2033 113.07 58.69 113.29 58.13C113.51 57.5633 113.687 57.0333 113.82 56.54L114.51 56.69C114.39 57.11 114.27 57.4867 114.15 57.82H116.67V58.58H115.27ZM117.34 65.41V57.46H120.84V65.42H120.08V64.49H118.07V65.42L117.34 65.41ZM118.07 58.22V63.74H120.08V58.22H118.07ZM128.35 61.89C128.577 62.59 128.93 63.18 129.41 63.66C129.897 64.14 130.553 64.56 131.38 64.92L130.97 65.67C130.23 65.3233 129.607 64.9133 129.1 64.44C128.6 63.96 128.21 63.3967 127.93 62.75C127.723 63.31 127.397 63.8267 126.95 64.3C126.51 64.7733 125.92 65.25 125.18 65.73L124.75 65.02C125.57 64.54 126.187 64.06 126.6 63.58C127.013 63.0933 127.283 62.53 127.41 61.89H125.36V61.15H127.49V60.95V58.88H125.8V58.14H127.5V56.53H128.26V58.14H130.52V61.15H131.36V61.89H128.35ZM125.62 63.16L125.68 63.57C125.293 63.69 124.777 63.8533 124.13 64.06C123.483 64.26 123.03 64.4067 122.77 64.5L122.59 63.7C122.737 63.6667 123.133 63.5567 123.78 63.37V60H122.63V59.26H123.78V56.61H124.49V59.26H125.59V60H124.49V63.15C125.043 62.9767 125.4 62.86 125.56 62.8L125.62 63.16ZM128.24 60.9C128.24 61.0133 128.237 61.0967 128.23 61.15H129.8V58.88H128.25L128.24 60.9ZM134.25 59.33V60.25C134.25 61.5033 134.177 62.5267 134.03 63.32C133.89 64.1067 133.64 64.9 133.28 65.7L132.57 65.33C132.817 64.79 133.003 64.29 133.13 63.83C133.263 63.37 133.357 62.85 133.41 62.27C133.47 61.6833 133.5 60.9433 133.5 60.05V57.03H140.8V59.33H134.25ZM140.04 58.65V57.72H134.25V58.65H140.04ZM140.35 63.61L141.04 63.79L141.01 64.52C140.997 64.88 140.907 65.1267 140.74 65.26C140.573 65.3933 140.277 65.46 139.85 65.46H137.88C137.48 65.46 137.197 65.38 137.03 65.22C136.87 65.0667 136.79 64.7767 136.79 64.35V63.66L134.26 63.8L134.22 63.18L136.79 63.02V62.23L134.78 62.35L134.75 61.75L136.79 61.63V60.85C135.923 60.93 135.263 60.9833 134.81 61.01L134.75 60.4C135.59 60.3467 136.567 60.26 137.68 60.14C138.793 60.02 139.7 59.9 140.4 59.78L140.51 60.38C139.77 60.5133 138.773 60.6433 137.52 60.77V61.58L140.56 61.4L140.59 62L137.52 62.18V62.98L141.33 62.74L141.37 63.4L137.52 63.62V64.15C137.52 64.3967 137.56 64.5633 137.64 64.65C137.727 64.73 137.89 64.77 138.13 64.77H139.65C139.843 64.77 139.983 64.7567 140.07 64.73C140.157 64.7033 140.22 64.6533 140.26 64.58C140.3 64.5 140.327 64.3733 140.34 64.2L140.35 63.61Z" fill="black"/>
<rect x="85" y="12" width="76" height="14" fill="#FFEDD6" stroke="#71717A" stroke-width="2"/>
<rect x="7" y="54" width="78" height="14" fill="#FED7AA" stroke="#71717A" stroke-width="2"/>
<path d="M33.23 56.45C33.5633 57.3567 33.9767 58.1067 34.47 58.7C34.97 59.2933 35.6333 59.8367 36.46 60.33L36.04 61.06C35.1467 60.4867 34.43 59.8733 33.89 59.22C33.3567 58.5667 32.9033 57.7333 32.53 56.72L33.23 56.45ZM31.37 56.9C30.9967 57.76 30.5367 58.5267 29.99 59.2C29.4433 59.8733 28.7833 60.4933 28.01 61.06L27.58 60.4C28.2467 59.94 28.8433 59.3867 29.37 58.74C29.8967 58.0867 30.33 57.3767 30.67 56.61L31.37 56.9ZM28.87 61.21V60.5H34.71C34.6833 61.0067 34.64 61.6367 34.58 62.39C34.5267 63.1433 34.48 63.7033 34.44 64.07C34.4067 64.4167 34.33 64.6867 34.21 64.88C34.0967 65.0667 33.9233 65.2 33.69 65.28C33.4633 65.36 33.1533 65.4 32.76 65.4H31.44L31.3 64.67H32.53C32.8233 64.67 33.0467 64.6467 33.2 64.6C33.3533 64.5467 33.4633 64.4567 33.53 64.33C33.6033 64.1967 33.6533 64.0033 33.68 63.75C33.7133 63.3633 33.75 62.9233 33.79 62.43C33.83 61.9367 33.86 61.53 33.88 61.21H31.08C31.0667 61.3167 31.0533 61.51 31.04 61.79C31.0067 62.4033 30.9067 62.9267 30.74 63.36C30.5733 63.7867 30.2967 64.19 29.91 64.57C29.5233 64.95 28.9733 65.3467 28.26 65.76L27.71 65.07C28.3633 64.7433 28.8667 64.4267 29.22 64.12C29.5733 63.8067 29.8233 63.4733 29.97 63.12C30.1233 62.76 30.23 62.3133 30.29 61.78L30.34 61.21H28.87ZM39.11 57.78H37.62V57.11H42.25V57.78H40.91V58.97H42.07V65.08H38.56V65.69H37.94V58.97H39.11V57.78ZM45.64 62.57L46.36 62.71L46.29 64.09C46.2633 64.4433 46.2167 64.7067 46.15 64.88C46.0833 65.0467 45.9733 65.1633 45.82 65.23C45.6733 65.3033 45.4467 65.34 45.14 65.34H43.96C43.6667 65.34 43.44 65.3033 43.28 65.23C43.12 65.1633 43.0067 65.0433 42.94 64.87C42.8733 64.6967 42.84 64.4467 42.84 64.12V60.23H45.21V57.89H42.72V57.16H45.95V60.99H43.58V63.96C43.58 64.1467 43.5933 64.2833 43.62 64.37C43.6533 64.4567 43.71 64.5167 43.79 64.55C43.87 64.5833 43.9967 64.6 44.17 64.6H44.91C45.1033 64.6 45.2467 64.58 45.34 64.54C45.4333 64.5 45.4967 64.43 45.53 64.33C45.57 64.23 45.5967 64.07 45.61 63.85L45.64 62.57ZM39.69 58.97H40.31V57.78H39.69V58.97ZM39.19 59.63H38.55V61.94C38.8033 61.6667 38.9733 61.38 39.06 61.08C39.1467 60.78 39.19 60.35 39.19 59.79V59.63ZM41.07 61.93C40.8033 61.93 40.61 61.8733 40.49 61.76C40.37 61.6467 40.31 61.4533 40.31 61.18V59.63H39.69V59.89C39.6833 60.49 39.6267 60.9667 39.52 61.32C39.4133 61.6733 39.2133 62.0267 38.92 62.38L38.56 62.11V62.77H41.44V61.93H41.07ZM41.45 61.39V59.63H40.81V60.96C40.81 61.12 40.8433 61.2333 40.91 61.3C40.9767 61.36 41.0933 61.39 41.26 61.39H41.45ZM38.56 63.43V64.43H41.44V63.43H38.56ZM53.35 61.89C53.5767 62.59 53.93 63.18 54.41 63.66C54.8967 64.14 55.5533 64.56 56.38 64.92L55.97 65.67C55.23 65.3233 54.6067 64.9133 54.1 64.44C53.6 63.96 53.21 63.3967 52.93 62.75C52.7233 63.31 52.3967 63.8267 51.95 64.3C51.51 64.7733 50.92 65.25 50.18 65.73L49.75 65.02C50.57 64.54 51.1867 64.06 51.6 63.58C52.0133 63.0933 52.2833 62.53 52.41 61.89H50.36V61.15H52.49V60.95V58.88H50.8V58.14H52.5V56.53H53.26V58.14H55.52V61.15H56.36V61.89H53.35ZM50.62 63.16L50.68 63.57C50.2933 63.69 49.7767 63.8533 49.13 64.06C48.4833 64.26 48.03 64.4067 47.77 64.5L47.59 63.7C47.7367 63.6667 48.1333 63.5567 48.78 63.37V60H47.63V59.26H48.78V56.61H49.49V59.26H50.59V60H49.49V63.15C50.0433 62.9767 50.4 62.86 50.56 62.8L50.62 63.16ZM53.24 60.9C53.24 61.0133 53.2367 61.0967 53.23 61.15H54.8V58.88H53.25L53.24 60.9ZM66.34 62.26H62.97C62.89 62.5067 62.8167 62.7067 62.75 62.86C62.75 62.86 63.56 63.33 65.18 64.27L66.3 64.92L65.91 65.64C65.2233 65.2 64.0433 64.48 62.37 63.48C62.0167 63.9533 61.4967 64.36 60.81 64.7C60.1233 65.0333 59.17 65.3667 57.95 65.7L57.66 64.89C58.6333 64.6367 59.4033 64.3967 59.97 64.17C60.5433 63.9367 61 63.67 61.34 63.37C61.68 63.07 61.9333 62.7 62.1 62.26H57.68V61.53H62.31C62.41 61.01 62.4767 60.3267 62.51 59.48C62.5233 59.08 62.5333 58.6333 62.54 58.14C62.5533 57.6467 62.5633 57.2233 62.57 56.87V56.61H63.36C63.36 57.0367 63.3533 57.5433 63.34 58.13C63.3333 58.71 63.3233 59.1967 63.31 59.59C63.2767 60.3967 63.2167 61.0433 63.13 61.53H66.34V62.26ZM61.44 59.2C61.0467 58.92 60.31 58.42 59.23 57.7C59.07 57.6 58.9733 57.5367 58.94 57.51L59.32 56.88C59.6733 57.0867 60.0967 57.3533 60.59 57.68C61.09 58.0067 61.5133 58.2933 61.86 58.54L61.44 59.2ZM60.74 61.11C60.26 60.77 59.5267 60.3067 58.54 59.72L58.22 59.52L58.6 58.87C59.8467 59.6167 60.6967 60.14 61.15 60.44L60.74 61.11Z" fill="black"/>
<rect x="7" y="12" width="78" height="14" fill="#CCD5E2" stroke="#71717A" stroke-width="2"/>
<path d="M32.76 19.15C33.2133 19.7833 33.75 20.3767 34.37 20.93C34.99 21.4767 35.6667 21.95 36.4 22.35L35.93 23.06C35.2167 22.6333 34.5567 22.1433 33.95 21.59C33.35 21.03 32.8267 20.4367 32.38 19.81V23.61H31.63V19.86C31.2033 20.4733 30.71 21.0333 30.15 21.54C29.59 22.04 28.8867 22.55 28.04 23.07L27.56 22.38C28.4267 21.9067 29.1567 21.41 29.75 20.89C30.35 20.3633 30.86 19.7833 31.28 19.15H27.79V18.43H31.63V16.72H28.43V15.99H31.63V14.52H32.38V15.99H35.58V16.72H32.38V18.43H36.21V19.15H32.76ZM40.27 16.58L40.26 18.57H41.84V19.32H40.23C40.1967 19.6733 40.15 19.9733 40.09 20.22C40.55 20.7333 41.1333 21.43 41.84 22.31L41.3 22.85C40.7867 22.21 40.3 21.62 39.84 21.08C39.52 21.9467 38.9367 22.8233 38.09 23.71L37.54 23.13C38.16 22.5033 38.6233 21.8933 38.93 21.3C39.2433 20.7 39.4333 20.04 39.5 19.32H37.61V18.57H39.53L39.54 16.58H38.87C38.6367 17.1733 38.4167 17.66 38.21 18.04L37.6 17.67C37.84 17.2033 38.07 16.69 38.29 16.13C38.51 15.5633 38.6867 15.0333 38.82 14.54L39.51 14.69C39.39 15.11 39.27 15.4867 39.15 15.82H41.67V16.58H40.27ZM42.34 23.41V15.46H45.84V23.42H45.08V22.49H43.07V23.42L42.34 23.41ZM43.07 16.22V21.74H45.08V16.22H43.07ZM53.35 19.89C53.5767 20.59 53.93 21.18 54.41 21.66C54.8967 22.14 55.5533 22.56 56.38 22.92L55.97 23.67C55.23 23.3233 54.6067 22.9133 54.1 22.44C53.6 21.96 53.21 21.3967 52.93 20.75C52.7233 21.31 52.3967 21.8267 51.95 22.3C51.51 22.7733 50.92 23.25 50.18 23.73L49.75 23.02C50.57 22.54 51.1867 22.06 51.6 21.58C52.0133 21.0933 52.2833 20.53 52.41 19.89H50.36V19.15H52.49V18.95V16.88H50.8V16.14H52.5V14.53H53.26V16.14H55.52V19.15H56.36V19.89H53.35ZM50.62 21.16L50.68 21.57C50.2933 21.69 49.7767 21.8533 49.13 22.06C48.4833 22.26 48.03 22.4067 47.77 22.5L47.59 21.7C47.7367 21.6667 48.1333 21.5567 48.78 21.37V18H47.63V17.26H48.78V14.61H49.49V17.26H50.59V18H49.49V21.15C50.0433 20.9767 50.4 20.86 50.56 20.8L50.62 21.16ZM53.24 18.9C53.24 19.0133 53.2367 19.0967 53.23 19.15H54.8V16.88H53.25L53.24 18.9ZM66.34 20.26H62.97C62.89 20.5067 62.8167 20.7067 62.75 20.86C62.75 20.86 63.56 21.33 65.18 22.27L66.3 22.92L65.91 23.64C65.2233 23.2 64.0433 22.48 62.37 21.48C62.0167 21.9533 61.4967 22.36 60.81 22.7C60.1233 23.0333 59.17 23.3667 57.95 23.7L57.66 22.89C58.6333 22.6367 59.4033 22.3967 59.97 22.17C60.5433 21.9367 61 21.67 61.34 21.37C61.68 21.07 61.9333 20.7 62.1 20.26H57.68V19.53H62.31C62.41 19.01 62.4767 18.3267 62.51 17.48C62.5233 17.08 62.5333 16.6333 62.54 16.14C62.5533 15.6467 62.5633 15.2233 62.57 14.87V14.61H63.36C63.36 15.0367 63.3533 15.5433 63.34 16.13C63.3333 16.71 63.3233 17.1967 63.31 17.59C63.2767 18.3967 63.2167 19.0433 63.13 19.53H66.34V20.26ZM61.44 17.2C61.0467 16.92 60.31 16.42 59.23 15.7C59.07 15.6 58.9733 15.5367 58.94 15.51L59.32 14.88C59.6733 15.0867 60.0967 15.3533 60.59 15.68C61.09 16.0067 61.5133 16.2933 61.86 16.54L61.44 17.2ZM60.74 19.11C60.26 18.77 59.5267 18.3067 58.54 17.72L58.22 17.52L58.6 16.87C59.8467 17.6167 60.6967 18.14 61.15 18.44L60.74 19.11Z" fill="black"/>
<rect x="7" y="40" width="154" height="14" fill="#FFEDD6" stroke="#71717A" stroke-width="2"/>
<path d="M75.43 43.4H70.09C69.8967 43.7733 69.6767 44.1467 69.43 44.52H74.29V49.44C74.29 49.84 74.2033 50.12 74.03 50.28C73.8567 50.44 73.55 50.52 73.11 50.52H71.76L71.64 49.82H72.85C73.0567 49.82 73.2067 49.8033 73.3 49.77C73.4 49.7367 73.4667 49.68 73.5 49.6C73.5333 49.52 73.55 49.3967 73.55 49.23V48.65H69.04V50.62H68.3V45.99C67.8733 46.4633 67.4033 46.9233 66.89 47.37L66.55 46.61C67.63 45.65 68.52 44.58 69.22 43.4H66.76V42.69H69.6C69.82 42.23 69.9933 41.8167 70.12 41.45L70.89 41.6C70.7567 41.96 70.6067 42.3233 70.44 42.69H75.43V43.4ZM69.04 46.24H73.55V45.2H69.04V46.24ZM69.04 46.89V48H73.55V46.89H69.04ZM83.51 48.02C84.01 48.7667 84.6533 49.4233 85.44 49.99L84.99 50.72C84.21 50.1333 83.5667 49.4633 83.06 48.71C82.5533 49.3767 81.8567 50.0533 80.97 50.74L80.45 50.12C81.4033 49.44 82.1367 48.74 82.65 48.02C82.2033 47.1867 81.88 46.24 81.68 45.18L81.35 45.7L80.89 45.1C81.1833 44.6733 81.4633 44.12 81.73 43.44C82.0033 42.76 82.1967 42.1267 82.31 41.54L83.04 41.65C82.9133 42.1833 82.7567 42.7133 82.57 43.24H85.36V44H84.67C84.57 44.8667 84.4267 45.6233 84.24 46.27C84.06 46.91 83.8167 47.4933 83.51 48.02ZM81.19 42.95V43.64H76.71V42.95H78.7C78.5867 42.5167 78.4633 42.1 78.33 41.7L79.06 41.58C79.14 41.8067 79.2733 42.2633 79.46 42.95H81.19ZM80.75 46.54C80.4233 46.0733 79.89 45.3567 79.15 44.39L79.69 44C80.4833 45.0133 81.0067 45.7 81.26 46.06L80.75 46.54ZM82.18 44.19C82.36 45.41 82.6633 46.4433 83.09 47.29C83.3167 46.85 83.4967 46.3667 83.63 45.84C83.77 45.3067 83.8833 44.6933 83.97 44H82.27L82.18 44.19ZM78.6 44.38C78.1467 45.24 77.6033 46.01 76.97 46.69L76.48 46.23C77.1 45.5367 77.6067 44.8033 78 44.03L78.6 44.38ZM80.14 49.97C79.9133 49.6767 79.5567 49.24 79.07 48.66C78.53 49.4133 77.8333 50.0833 76.98 50.67L76.56 49.98C77.4333 49.42 78.11 48.7933 78.59 48.1C77.99 47.4 77.58 46.93 77.36 46.69L77.89 46.23C78.05 46.3967 78.3267 46.6967 78.72 47.13L79 47.44C79.2533 46.96 79.46 46.46 79.62 45.94L80.27 46.18C80.0633 46.8333 79.8033 47.44 79.49 48C79.9833 48.5667 80.3867 49.0467 80.7 49.44L80.14 49.97ZM87.79 44.54C87.59 44.7133 87.3767 44.8867 87.15 45.06L86.65 44.48C87.9767 43.4733 88.9367 42.4433 89.53 41.39L90.27 41.63C90.1167 41.9033 89.98 42.1233 89.86 42.29H93.51V42.98L92.22 44.41H94.31V48.43H93.55V45.13H88.57V48.44H87.79V44.54ZM89.35 42.98C88.95 43.4667 88.48 43.9433 87.94 44.41H91.27L92.54 42.98H89.35ZM94.74 50.7C93.3733 49.9533 92.1033 49.2767 90.93 48.67C90.65 49.07 90.2033 49.4367 89.59 49.77C88.9767 50.1033 88.13 50.4233 87.05 50.73L86.68 49.98C87.8067 49.6933 88.65 49.4 89.21 49.1C89.7767 48.8 90.1533 48.4767 90.34 48.13C90.5267 47.7767 90.62 47.33 90.62 46.79V45.68H91.41V46.86C91.41 47.3067 91.36 47.69 91.26 48.01C91.7467 48.25 92.5567 48.6667 93.69 49.26C93.97 49.4 94.23 49.5367 94.47 49.67C94.7167 49.7967 94.9333 49.9067 95.12 50L94.74 50.7ZM105.33 48.09L105.16 49.34C105.08 49.8067 104.957 50.13 104.79 50.31C104.63 50.4967 104.427 50.59 104.18 50.59C103.947 50.59 103.737 50.5133 103.55 50.36C103.37 50.2067 103.193 49.9567 103.02 49.61C102.927 49.43 102.85 49.25 102.79 49.07C102.377 49.53 101.86 50.0133 101.24 50.52L100.72 49.93C101.453 49.3767 102.06 48.8267 102.54 48.28C102.267 47.32 102.07 46.1233 101.95 44.69H96.66V44.02H98.82V43.11H97.08V42.49H98.82V41.5H99.53V42.49H101.32V43.11H99.53V44.02H101.9C101.9 43.9133 101.893 43.7533 101.88 43.54L101.8 41.44H102.53L102.63 43.66L102.65 44.02H105.29V44.69H102.69C102.777 45.77 102.913 46.72 103.1 47.54C103.547 46.88 103.927 46.0933 104.24 45.18L104.91 45.46C104.677 46.06 104.433 46.5967 104.18 47.07C103.933 47.5433 103.653 47.9867 103.34 48.4C103.427 48.6733 103.527 48.93 103.64 49.17C103.74 49.3833 103.83 49.5333 103.91 49.62C103.99 49.7 104.08 49.74 104.18 49.74C104.26 49.74 104.323 49.6833 104.37 49.57C104.417 49.45 104.47 49.24 104.53 48.94C104.583 48.6267 104.627 48.2767 104.66 47.89L105.33 48.09ZM104.52 43.61C104.267 43.3367 103.78 42.8533 103.06 42.16L103.52 41.7C103.927 42.0667 104.427 42.54 105.02 43.12L104.52 43.61ZM101.43 49.19L99.83 49.31V50.62H99.12V49.37L96.69 49.55L96.64 48.87L99.12 48.69V47.9H97.18V47.28C97.3933 46.9467 97.62 46.5767 97.86 46.17H96.75V45.54H98.21C98.33 45.3133 98.45 45.07 98.57 44.81L99.27 44.97L99 45.54H101.55V46.17H98.67C98.5033 46.4833 98.2933 46.8467 98.04 47.26H99.13V46.52H99.83V47.26H101.43V47.9H99.83V48.64L101.4 48.52L101.42 48.94L101.43 49.19Z" fill="black"/>
<path d="M55.23 74.45C55.5633 75.3567 55.9767 76.1067 56.47 76.7C56.97 77.2933 57.6333 77.8367 58.46 78.33L58.04 79.06C57.1467 78.4867 56.43 77.8733 55.89 77.22C55.3567 76.5667 54.9033 75.7333 54.53 74.72L55.23 74.45ZM53.37 74.9C52.9967 75.76 52.5367 76.5267 51.99 77.2C51.4433 77.8733 50.7833 78.4933 50.01 79.06L49.58 78.4C50.2467 77.94 50.8433 77.3867 51.37 76.74C51.8967 76.0867 52.33 75.3767 52.67 74.61L53.37 74.9ZM50.87 79.21V78.5H56.71C56.6833 79.0067 56.64 79.6367 56.58 80.39C56.5267 81.1433 56.48 81.7033 56.44 82.07C56.4067 82.4167 56.33 82.6867 56.21 82.88C56.0967 83.0667 55.9233 83.2 55.69 83.28C55.4633 83.36 55.1533 83.4 54.76 83.4H53.44L53.3 82.67H54.53C54.8233 82.67 55.0467 82.6467 55.2 82.6C55.3533 82.5467 55.4633 82.4567 55.53 82.33C55.6033 82.1967 55.6533 82.0033 55.68 81.75C55.7133 81.3633 55.75 80.9233 55.79 80.43C55.83 79.9367 55.86 79.53 55.88 79.21H53.08C53.0667 79.3167 53.0533 79.51 53.04 79.79C53.0067 80.4033 52.9067 80.9267 52.74 81.36C52.5733 81.7867 52.2967 82.19 51.91 82.57C51.5233 82.95 50.9733 83.3467 50.26 83.76L49.71 83.07C50.3633 82.7433 50.8667 82.4267 51.22 82.12C51.5733 81.8067 51.8233 81.4733 51.97 81.12C52.1233 80.76 52.23 80.3133 52.29 79.78L52.34 79.21H50.87ZM61.11 75.78H59.62V75.11H64.25V75.78H62.91V76.97H64.07V83.08H60.56V83.69H59.94V76.97H61.11V75.78ZM67.64 80.57L68.36 80.71L68.29 82.09C68.2633 82.4433 68.2167 82.7067 68.15 82.88C68.0833 83.0467 67.9733 83.1633 67.82 83.23C67.6733 83.3033 67.4467 83.34 67.14 83.34H65.96C65.6667 83.34 65.44 83.3033 65.28 83.23C65.12 83.1633 65.0067 83.0433 64.94 82.87C64.8733 82.6967 64.84 82.4467 64.84 82.12V78.23H67.21V75.89H64.72V75.16H67.95V78.99H65.58V81.96C65.58 82.1467 65.5933 82.2833 65.62 82.37C65.6533 82.4567 65.71 82.5167 65.79 82.55C65.87 82.5833 65.9967 82.6 66.17 82.6H66.91C67.1033 82.6 67.2467 82.58 67.34 82.54C67.4333 82.5 67.4967 82.43 67.53 82.33C67.57 82.23 67.5967 82.07 67.61 81.85L67.64 80.57ZM61.69 76.97H62.31V75.78H61.69V76.97ZM61.19 77.63H60.55V79.94C60.8033 79.6667 60.9733 79.38 61.06 79.08C61.1467 78.78 61.19 78.35 61.19 77.79V77.63ZM63.07 79.93C62.8033 79.93 62.61 79.8733 62.49 79.76C62.37 79.6467 62.31 79.4533 62.31 79.18V77.63H61.69V77.89C61.6833 78.49 61.6267 78.9667 61.52 79.32C61.4133 79.6733 61.2133 80.0267 60.92 80.38L60.56 80.11V80.77H63.44V79.93H63.07ZM63.45 79.39V77.63H62.81V78.96C62.81 79.12 62.8433 79.2333 62.91 79.3C62.9767 79.36 63.0933 79.39 63.26 79.39H63.45ZM60.56 81.43V82.43H63.44V81.43H60.56ZM75.35 79.89C75.5767 80.59 75.93 81.18 76.41 81.66C76.8967 82.14 77.5533 82.56 78.38 82.92L77.97 83.67C77.23 83.3233 76.6067 82.9133 76.1 82.44C75.6 81.96 75.21 81.3967 74.93 80.75C74.7233 81.31 74.3967 81.8267 73.95 82.3C73.51 82.7733 72.92 83.25 72.18 83.73L71.75 83.02C72.57 82.54 73.1867 82.06 73.6 81.58C74.0133 81.0933 74.2833 80.53 74.41 79.89H72.36V79.15H74.49V78.95V76.88H72.8V76.14H74.5V74.53H75.26V76.14H77.52V79.15H78.36V79.89H75.35ZM72.62 81.16L72.68 81.57C72.2933 81.69 71.7767 81.8533 71.13 82.06C70.4833 82.26 70.03 82.4067 69.77 82.5L69.59 81.7C69.7367 81.6667 70.1333 81.5567 70.78 81.37V78H69.63V77.26H70.78V74.61H71.49V77.26H72.59V78H71.49V81.15C72.0433 80.9767 72.4 80.86 72.56 80.8L72.62 81.16ZM75.24 78.9C75.24 79.0133 75.2367 79.0967 75.23 79.15H76.8V76.88H75.25L75.24 78.9ZM82.02 78.7H80.98V77.66H82.02V78.7ZM82.02 83H80.98V81.95H82.02V83ZM98.29 77.97V78.73H93.91C93.7033 79.79 93.3033 80.7067 92.71 81.48C92.1233 82.2467 91.27 82.9833 90.15 83.69L89.64 82.99C90.6467 82.3967 91.4167 81.7667 91.95 81.1C92.49 80.4267 92.86 79.6367 93.06 78.73H89.71V77.97H93.19C93.2367 77.6367 93.2633 77.3267 93.27 77.04L93.31 75.89H90.29V75.15H97.7V75.89H94.12L94.11 76.29C94.1033 76.4367 94.1 76.5833 94.1 76.73C94.1 76.87 94.0967 76.9933 94.09 77.1C94.0833 77.3067 94.06 77.5967 94.02 77.97H98.29ZM97.39 81.89C97.3967 81.7033 97.4033 81.4767 97.41 81.21C97.4167 80.9433 97.42 80.7167 97.42 80.53L98.23 80.69L98.17 82.21C98.1567 82.5033 98.1067 82.7333 98.02 82.9C97.9333 83.06 97.79 83.1767 97.59 83.25C97.39 83.33 97.1133 83.37 96.76 83.37H95.33C94.8967 83.37 94.5833 83.2733 94.39 83.08C94.1967 82.8867 94.1 82.5567 94.1 82.09V79.35H94.89V81.88C94.89 82.1467 94.9433 82.3333 95.05 82.44C95.1567 82.5467 95.3367 82.6 95.59 82.6H96.59C96.8967 82.6 97.1033 82.5533 97.21 82.46C97.3233 82.36 97.3833 82.17 97.39 81.89ZM104.74 79.85C105.08 80.81 105.4 81.7733 105.7 82.74L105.11 82.95C105.09 82.8833 105.07 82.8167 105.05 82.75C105.03 82.6833 105.01 82.62 104.99 82.56L104.92 82.35L102.67 82.63L102.48 81.99C102.653 81.6567 102.83 81.2367 103.01 80.73C103.197 80.2167 103.353 79.7167 103.48 79.23H102.53V78.52H103.66V76.77H102.69V76.07H103.66V74.61H104.34V76.07H105.29V76.77H104.34V78.52H105.47V79.23H104.14C104.033 79.6367 103.89 80.0967 103.71 80.61C103.53 81.1167 103.37 81.5367 103.23 81.87L104.72 81.71C104.487 80.97 104.31 80.42 104.19 80.06L104.74 79.85ZM100.06 75.06H102.25V82.51C102.25 82.85 102.19 83.08 102.07 83.2C101.95 83.3267 101.73 83.39 101.41 83.39H100.78L100.63 82.72H101.2C101.333 82.72 101.427 82.71 101.48 82.69C101.533 82.67 101.57 82.63 101.59 82.57C101.61 82.5033 101.62 82.3933 101.62 82.24V80.44H100.68C100.66 81.1733 100.603 81.77 100.51 82.23C100.423 82.6833 100.273 83.1567 100.06 83.65L99.47 83.34C99.65 82.92 99.78 82.54 99.86 82.2C99.94 81.86 99.9933 81.45 100.02 80.97C100.047 80.4833 100.06 79.7733 100.06 78.84V75.06ZM105.75 75.3H108.05V81.38C108.05 81.7533 107.983 82.0167 107.85 82.17C107.717 82.3167 107.49 82.39 107.17 82.39H106.68L106.54 81.69H106.97C107.157 81.69 107.273 81.66 107.32 81.6C107.367 81.54 107.39 81.41 107.39 81.21V76.02H106.42V83.7H105.75V75.3ZM101.62 77.47V75.77H100.69V77.47H101.62ZM100.69 79.74H101.62V78.15H100.69V79.52V79.74ZM113.55 76.38C113.47 77 113.367 77.5833 113.24 78.13H114.59V78.85H109.58V78.13H110.86C110.733 77.37 110.617 76.7867 110.51 76.38H109.83V75.67H111.78C111.693 75.3167 111.593 74.99 111.48 74.69L112.22 74.51C112.353 74.91 112.467 75.2967 112.56 75.67H114.3V76.38H113.55ZM117.4 78.46C117.753 78.92 118 79.33 118.14 79.69C118.28 80.0433 118.35 80.42 118.35 80.82C118.35 81.3867 118.23 81.79 117.99 82.03C117.75 82.27 117.347 82.39 116.78 82.39H116.21L116.06 81.68H116.58C116.973 81.68 117.247 81.61 117.4 81.47C117.56 81.3233 117.64 81.0667 117.64 80.7C117.64 80.38 117.56 80.0533 117.4 79.72C117.247 79.3867 117 79.0167 116.66 78.61L117.47 75.9H115.79V83.71H115.08V75.16H118.23V75.91L117.4 78.46ZM111.22 76.38C111.393 77.2067 111.51 77.79 111.57 78.13H112.56C112.68 77.61 112.783 77.0267 112.87 76.38H111.22ZM110.86 83.53H110.16V79.76H113.98V82.86H110.86V83.53ZM113.28 82.18V80.47H110.86V82.18H113.28Z" fill="black"/>
<path d="M25.8 171.38V172.67H25.04V170.66H28.75C28.6367 170.273 28.5267 169.937 28.42 169.65L29.2 169.51C29.2667 169.677 29.4 170.06 29.6 170.66H32.96V172.68H32.19V171.38H25.8ZM29.95 172.07C30.4233 172.317 31.02 172.64 31.74 173.04C32.46 173.433 33.0067 173.74 33.38 173.96L33 174.63C32.58 174.37 32.0133 174.043 31.3 173.65C30.5933 173.257 30.03 172.957 29.61 172.75L29.95 172.07ZM28.39 172.75C27.9033 173.077 27.35 173.42 26.73 173.78C26.1167 174.14 25.5267 174.46 24.96 174.74L24.63 174.02C25.1967 173.767 25.7833 173.463 26.39 173.11C27.0033 172.75 27.5333 172.407 27.98 172.08L28.39 172.75ZM32.19 175.4H29.41V177.5H33.18V178.23H24.83V177.5H28.6V175.4H25.82V174.67H32.19V175.4ZM36.87 171.64C36.6767 171.427 36.4167 171.157 36.09 170.83C35.77 170.497 35.5067 170.237 35.3 170.05L35.81 169.53C36.1033 169.797 36.6367 170.307 37.41 171.06L36.87 171.64ZM37.67 170.14H42.91V177.41C42.91 177.717 42.87 177.95 42.79 178.11C42.7167 178.27 42.5867 178.383 42.4 178.45C42.2133 178.517 41.9367 178.55 41.57 178.55H40.48L40.34 177.81H41.32C41.58 177.81 41.77 177.793 41.89 177.76C42.0167 177.727 42.1 177.667 42.14 177.58C42.1867 177.487 42.21 177.343 42.21 177.15V170.87H37.67V170.14ZM41.25 176.54C41.0433 176.333 40.7567 176.073 40.39 175.76C40.03 175.447 39.6833 175.157 39.35 174.89V177.98H38.63V174.7C38.3767 175.127 38.09 175.52 37.77 175.88C37.45 176.233 37.0533 176.607 36.58 177L36.11 176.34C36.7233 175.847 37.2167 175.38 37.59 174.94C37.9633 174.5 38.29 173.987 38.57 173.4H36.47V172.68H38.63V171.36H39.35V172.68H41.53V173.4H39.35V174.06L39.68 174.32C39.8067 174.42 40.1067 174.657 40.58 175.03C41.0533 175.397 41.4067 175.68 41.64 175.88L41.25 176.54ZM35.79 178.59H35.07V171.51H35.79V178.59ZM50.35 174.89C50.5767 175.59 50.93 176.18 51.41 176.66C51.8967 177.14 52.5533 177.56 53.38 177.92L52.97 178.67C52.23 178.323 51.6067 177.913 51.1 177.44C50.6 176.96 50.21 176.397 49.93 175.75C49.7233 176.31 49.3967 176.827 48.95 177.3C48.51 177.773 47.92 178.25 47.18 178.73L46.75 178.02C47.57 177.54 48.1867 177.06 48.6 176.58C49.0133 176.093 49.2833 175.53 49.41 174.89H47.36V174.15H49.49V173.95V171.88H47.8V171.14H49.5V169.53H50.26V171.14H52.52V174.15H53.36V174.89H50.35ZM47.62 176.16L47.68 176.57C47.2933 176.69 46.7767 176.853 46.13 177.06C45.4833 177.26 45.03 177.407 44.77 177.5L44.59 176.7C44.7367 176.667 45.1333 176.557 45.78 176.37V173H44.63V172.26H45.78V169.61H46.49V172.26H47.59V173H46.49V176.15C47.0433 175.977 47.4 175.86 47.56 175.8L47.62 176.16ZM50.24 173.9C50.24 174.013 50.2367 174.097 50.23 174.15H51.8V171.88H50.25L50.24 173.9ZM57.02 173.7H55.98V172.66H57.02V173.7ZM57.02 178H55.98V176.95H57.02V178ZM72.82 177.3C72.82 177.62 72.78 177.863 72.7 178.03C72.62 178.203 72.4867 178.323 72.3 178.39C72.12 178.457 71.8633 178.49 71.53 178.49H70.38L70.24 177.78H71.28C71.4933 177.78 71.6533 177.763 71.76 177.73C71.8667 177.697 71.94 177.633 71.98 177.54C72.02 177.44 72.04 177.293 72.04 177.1V170.78H65.87V178.57H65.1V170.07H72.82V177.3ZM66.5 171.95H71.44V172.63H66.5V171.95ZM67.08 173.7H70.83V176.86H67.08V173.7ZM67.78 174.36V176.2H70.13V174.36H67.78ZM83.42 171.55V172.32H82.32V177.22C82.32 177.567 82.2767 177.83 82.19 178.01C82.11 178.197 81.9667 178.327 81.76 178.4C81.5533 178.48 81.2533 178.52 80.86 178.52H79.63L79.48 177.72H80.64C80.9133 177.72 81.11 177.703 81.23 177.67C81.3567 177.63 81.44 177.56 81.48 177.46C81.5267 177.36 81.55 177.203 81.55 176.99V172.32H78.48V171.55H81.55V169.55H82.32V171.55H83.42ZM75.74 178.27H75.02V170.35H78.06V177.53H75.74V178.27ZM77.35 173.56V171.13H75.74V173.56H77.35ZM80.07 175.75C79.91 175.43 79.7 175.037 79.44 174.57C79.1867 174.097 78.9767 173.72 78.81 173.44L79.42 173.1C79.62 173.427 79.85 173.82 80.11 174.28C80.37 174.74 80.5733 175.113 80.72 175.4L80.07 175.75ZM75.74 174.3V176.74H77.35V174.3H75.74ZM93.43 171.4H88.09C87.8967 171.773 87.6767 172.147 87.43 172.52H92.29V177.44C92.29 177.84 92.2033 178.12 92.03 178.28C91.8567 178.44 91.55 178.52 91.11 178.52H89.76L89.64 177.82H90.85C91.0567 177.82 91.2067 177.803 91.3 177.77C91.4 177.737 91.4667 177.68 91.5 177.6C91.5333 177.52 91.55 177.397 91.55 177.23V176.65H87.04V178.62H86.3V173.99C85.8733 174.463 85.4033 174.923 84.89 175.37L84.55 174.61C85.63 173.65 86.52 172.58 87.22 171.4H84.76V170.69H87.6C87.82 170.23 87.9933 169.817 88.12 169.45L88.89 169.6C88.7567 169.96 88.6067 170.323 88.44 170.69H93.43V171.4ZM87.04 174.24H91.55V173.2H87.04V174.24ZM87.04 174.89V176H91.55V174.89H87.04ZM103.34 175.26H99.97C99.89 175.507 99.8167 175.707 99.75 175.86C99.75 175.86 100.56 176.33 102.18 177.27L103.3 177.92L102.91 178.64C102.223 178.2 101.043 177.48 99.37 176.48C99.0167 176.953 98.4967 177.36 97.81 177.7C97.1233 178.033 96.17 178.367 94.95 178.7L94.66 177.89C95.6333 177.637 96.4033 177.397 96.97 177.17C97.5433 176.937 98 176.67 98.34 176.37C98.68 176.07 98.9333 175.7 99.1 175.26H94.68V174.53H99.31C99.41 174.01 99.4767 173.327 99.51 172.48C99.5233 172.08 99.5333 171.633 99.54 171.14C99.5533 170.647 99.5633 170.223 99.57 169.87V169.61H100.36C100.36 170.037 100.353 170.543 100.34 171.13C100.333 171.71 100.323 172.197 100.31 172.59C100.277 173.397 100.217 174.043 100.13 174.53H103.34V175.26ZM98.44 172.2C98.0467 171.92 97.31 171.42 96.23 170.7C96.07 170.6 95.9733 170.537 95.94 170.51L96.32 169.88C96.6733 170.087 97.0967 170.353 97.59 170.68C98.09 171.007 98.5133 171.293 98.86 171.54L98.44 172.2ZM97.74 174.11C97.26 173.77 96.5267 173.307 95.54 172.72L95.22 172.52L95.6 171.87C96.8467 172.617 97.6967 173.14 98.15 173.44L97.74 174.11ZM108.55 171.38C108.47 172 108.367 172.583 108.24 173.13H109.59V173.85H104.58V173.13H105.86C105.733 172.37 105.617 171.787 105.51 171.38H104.83V170.67H106.78C106.693 170.317 106.593 169.99 106.48 169.69L107.22 169.51C107.353 169.91 107.467 170.297 107.56 170.67H109.3V171.38H108.55ZM112.4 173.46C112.753 173.92 113 174.33 113.14 174.69C113.28 175.043 113.35 175.42 113.35 175.82C113.35 176.387 113.23 176.79 112.99 177.03C112.75 177.27 112.347 177.39 111.78 177.39H111.21L111.06 176.68H111.58C111.973 176.68 112.247 176.61 112.4 176.47C112.56 176.323 112.64 176.067 112.64 175.7C112.64 175.38 112.56 175.053 112.4 174.72C112.247 174.387 112 174.017 111.66 173.61L112.47 170.9H110.79V178.71H110.08V170.16H113.23V170.91L112.4 173.46ZM106.22 171.38C106.393 172.207 106.51 172.79 106.57 173.13H107.56C107.68 172.61 107.783 172.027 107.87 171.38H106.22ZM105.86 178.53H105.16V174.76H108.98V177.86H105.86V178.53ZM108.28 177.18V175.47H105.86V177.18H108.28ZM117.08 173.06V173.91C117.333 174.09 117.63 174.317 117.97 174.59C118.31 174.863 118.573 175.087 118.76 175.26L118.42 175.91L117.52 175.13L117.08 174.75V178.67H116.35V174.44C115.883 175.427 115.383 176.24 114.85 176.88L114.47 176.13C114.823 175.717 115.157 175.243 115.47 174.71C115.79 174.17 116.067 173.62 116.3 173.06H114.7V172.31H116.35V170.93C115.89 171.017 115.38 171.097 114.82 171.17L114.75 170.46C115.343 170.373 115.987 170.263 116.68 170.13C117.38 169.997 117.973 169.863 118.46 169.73L118.6 170.46C118.247 170.553 117.74 170.663 117.08 170.79V172.31H118.74V173.06H117.08ZM119.25 178.38V170.53H122.9V178.31H122.16V177.57H119.98V178.38H119.25ZM119.98 171.31V176.77H122.16V171.31H119.98ZM129.74 174.85C130.08 175.81 130.4 176.773 130.7 177.74L130.11 177.95C130.09 177.883 130.07 177.817 130.05 177.75C130.03 177.683 130.01 177.62 129.99 177.56L129.92 177.35L127.67 177.63L127.48 176.99C127.653 176.657 127.83 176.237 128.01 175.73C128.197 175.217 128.353 174.717 128.48 174.23H127.53V173.52H128.66V171.77H127.69V171.07H128.66V169.61H129.34V171.07H130.29V171.77H129.34V173.52H130.47V174.23H129.14C129.033 174.637 128.89 175.097 128.71 175.61C128.53 176.117 128.37 176.537 128.23 176.87L129.72 176.71C129.487 175.97 129.31 175.42 129.19 175.06L129.74 174.85ZM125.06 170.06H127.25V177.51C127.25 177.85 127.19 178.08 127.07 178.2C126.95 178.327 126.73 178.39 126.41 178.39H125.78L125.63 177.72H126.2C126.333 177.72 126.427 177.71 126.48 177.69C126.533 177.67 126.57 177.63 126.59 177.57C126.61 177.503 126.62 177.393 126.62 177.24V175.44H125.68C125.66 176.173 125.603 176.77 125.51 177.23C125.423 177.683 125.273 178.157 125.06 178.65L124.47 178.34C124.65 177.92 124.78 177.54 124.86 177.2C124.94 176.86 124.993 176.45 125.02 175.97C125.047 175.483 125.06 174.773 125.06 173.84V170.06ZM130.75 170.3H133.05V176.38C133.05 176.753 132.983 177.017 132.85 177.17C132.717 177.317 132.49 177.39 132.17 177.39H131.68L131.54 176.69H131.97C132.157 176.69 132.273 176.66 132.32 176.6C132.367 176.54 132.39 176.41 132.39 176.21V171.02H131.42V178.7H130.75V170.3ZM126.62 172.47V170.77H125.69V172.47H126.62ZM125.69 174.74H126.62V173.15H125.69V174.52V174.74ZM138.55 171.38C138.47 172 138.367 172.583 138.24 173.13H139.59V173.85H134.58V173.13H135.86C135.733 172.37 135.617 171.787 135.51 171.38H134.83V170.67H136.78C136.693 170.317 136.593 169.99 136.48 169.69L137.22 169.51C137.353 169.91 137.467 170.297 137.56 170.67H139.3V171.38H138.55ZM142.4 173.46C142.753 173.92 143 174.33 143.14 174.69C143.28 175.043 143.35 175.42 143.35 175.82C143.35 176.387 143.23 176.79 142.99 177.03C142.75 177.27 142.347 177.39 141.78 177.39H141.21L141.06 176.68H141.58C141.973 176.68 142.247 176.61 142.4 176.47C142.56 176.323 142.64 176.067 142.64 175.7C142.64 175.38 142.56 175.053 142.4 174.72C142.247 174.387 142 174.017 141.66 173.61L142.47 170.9H140.79V178.71H140.08V170.16H143.23V170.91L142.4 173.46ZM136.22 171.38C136.393 172.207 136.51 172.79 136.57 173.13H137.56C137.68 172.61 137.783 172.027 137.87 171.38H136.22ZM135.86 178.53H135.16V174.76H138.98V177.86H135.86V178.53ZM138.28 177.18V175.47H135.86V177.18H138.28Z" fill="black"/>
</svg>
