<svg width="307" height="132" viewBox="0 0 307 132" fill="none" xmlns="http://www.w3.org/2000/svg">
<rect width="307" height="132" fill="white"/>
<rect x="30" y="79" width="154" height="14" fill="#D9D9D9" stroke="#71717A" stroke-width="2"/>
<rect x="30" y="92" width="154" height="14" fill="#D9D9D9" stroke="#71717A" stroke-width="2"/>
<rect x="30" y="65" width="154" height="14" fill="#D9D9D9" stroke="#71717A" stroke-width="2"/>
<rect x="108" y="51" width="76" height="14" fill="#CCD5E2" stroke="#71717A" stroke-width="2"/>
<path d="M130.76 58.15C131.213 58.7833 131.75 59.3767 132.37 59.93C132.99 60.4767 133.667 60.95 134.4 61.35L133.93 62.06C133.217 61.6333 132.557 61.1433 131.95 60.59C131.35 60.03 130.827 59.4367 130.38 58.81V62.61H129.63V58.86C129.203 59.4733 128.71 60.0333 128.15 60.54C127.59 61.04 126.887 61.55 126.04 62.07L125.56 61.38C126.427 60.9067 127.157 60.41 127.75 59.89C128.35 59.3633 128.86 58.7833 129.28 58.15H125.79V57.43H129.63V55.72H126.43V54.99H129.63V53.52H130.38V54.99H133.58V55.72H130.38V57.43H134.21V58.15H130.76ZM138.27 55.58L138.26 57.57H139.84V58.32H138.23C138.197 58.6733 138.15 58.9733 138.09 59.22C138.55 59.7333 139.133 60.43 139.84 61.31L139.3 61.85C138.787 61.21 138.3 60.62 137.84 60.08C137.52 60.9467 136.937 61.8233 136.09 62.71L135.54 62.13C136.16 61.5033 136.623 60.8933 136.93 60.3C137.243 59.7 137.433 59.04 137.5 58.32H135.61V57.57H137.53L137.54 55.58H136.87C136.637 56.1733 136.417 56.66 136.21 57.04L135.6 56.67C135.84 56.2033 136.07 55.69 136.29 55.13C136.51 54.5633 136.687 54.0333 136.82 53.54L137.51 53.69C137.39 54.11 137.27 54.4867 137.15 54.82H139.67V55.58H138.27ZM140.34 62.41V54.46H143.84V62.42H143.08V61.49H141.07V62.42L140.34 62.41ZM141.07 55.22V60.74H143.08V55.22H141.07ZM151.35 58.89C151.577 59.59 151.93 60.18 152.41 60.66C152.897 61.14 153.553 61.56 154.38 61.92L153.97 62.67C153.23 62.3233 152.607 61.9133 152.1 61.44C151.6 60.96 151.21 60.3967 150.93 59.75C150.723 60.31 150.397 60.8267 149.95 61.3C149.51 61.7733 148.92 62.25 148.18 62.73L147.75 62.02C148.57 61.54 149.187 61.06 149.6 60.58C150.013 60.0933 150.283 59.53 150.41 58.89H148.36V58.15H150.49V57.95V55.88H148.8V55.14H150.5V53.53H151.26V55.14H153.52V58.15H154.36V58.89H151.35ZM148.62 60.16L148.68 60.57C148.293 60.69 147.777 60.8533 147.13 61.06C146.483 61.26 146.03 61.4067 145.77 61.5L145.59 60.7C145.737 60.6667 146.133 60.5567 146.78 60.37V57H145.63V56.26H146.78V53.61H147.49V56.26H148.59V57H147.49V60.15C148.043 59.9767 148.4 59.86 148.56 59.8L148.62 60.16ZM151.24 57.9C151.24 58.0133 151.237 58.0967 151.23 58.15H152.8V55.88H151.25L151.24 57.9ZM157.25 56.33V57.25C157.25 58.5033 157.177 59.5267 157.03 60.32C156.89 61.1067 156.64 61.9 156.28 62.7L155.57 62.33C155.817 61.79 156.003 61.29 156.13 60.83C156.263 60.37 156.357 59.85 156.41 59.27C156.47 58.6833 156.5 57.9433 156.5 57.05V54.03H163.8V56.33H157.25ZM163.04 55.65V54.72H157.25V55.65H163.04ZM163.35 60.61L164.04 60.79L164.01 61.52C163.997 61.88 163.907 62.1267 163.74 62.26C163.573 62.3933 163.277 62.46 162.85 62.46H160.88C160.48 62.46 160.197 62.38 160.03 62.22C159.87 62.0667 159.79 61.7767 159.79 61.35V60.66L157.26 60.8L157.22 60.18L159.79 60.02V59.23L157.78 59.35L157.75 58.75L159.79 58.63V57.85C158.923 57.93 158.263 57.9833 157.81 58.01L157.75 57.4C158.59 57.3467 159.567 57.26 160.68 57.14C161.793 57.02 162.7 56.9 163.4 56.78L163.51 57.38C162.77 57.5133 161.773 57.6433 160.52 57.77V58.58L163.56 58.4L163.59 59L160.52 59.18V59.98L164.33 59.74L164.37 60.4L160.52 60.62V61.15C160.52 61.3967 160.56 61.5633 160.64 61.65C160.727 61.73 160.89 61.77 161.13 61.77H162.65C162.843 61.77 162.983 61.7567 163.07 61.73C163.157 61.7033 163.22 61.6533 163.26 61.58C163.3 61.5 163.327 61.3733 163.34 61.2L163.35 60.61Z" fill="black"/>
<rect x="30" y="51" width="78" height="14" fill="#BAE6FD" stroke="#71717A" stroke-width="2"/>
<path d="M52.8 56.39C52.9267 56.1767 53.0933 55.87 53.3 55.47L53.93 55.83C53.3567 56.8967 52.65 57.9833 51.81 59.09L53.57 58.81L53.59 59.52L51.01 59.92L50.87 59.19C51.4033 58.5633 51.9133 57.86 52.4 57.08L50.82 57.31L50.68 56.63C50.98 56.2367 51.2733 55.7733 51.56 55.24C51.8533 54.7 52.1567 54.1033 52.47 53.45L53.09 53.73C52.4433 55.0633 51.9367 56.0033 51.57 56.55L52.8 56.39ZM59.34 54.91V55.63H56.94V57.09H59.04V57.8H54.13V57.09H56.2V55.63H53.92V54.91H56.2V53.54H56.94V54.91H59.34ZM55.08 62.7H54.35V58.9H58.75V62.7H58.02V62.05H55.08V62.7ZM58.02 61.36V59.6H55.08V61.36H58.02ZM50.71 62L50.61 61.24L53.7 60.71L53.74 61.48L50.71 62ZM62.25 56.33V57.25C62.25 58.5033 62.1767 59.5267 62.03 60.32C61.89 61.1067 61.64 61.9 61.28 62.7L60.57 62.33C60.8167 61.79 61.0033 61.29 61.13 60.83C61.2633 60.37 61.3567 59.85 61.41 59.27C61.47 58.6833 61.5 57.9433 61.5 57.05V54.03H68.8V56.33H62.25ZM68.04 55.65V54.72H62.25V55.65H68.04ZM68.35 60.61L69.04 60.79L69.01 61.52C68.9967 61.88 68.9067 62.1267 68.74 62.26C68.5733 62.3933 68.2767 62.46 67.85 62.46H65.88C65.48 62.46 65.1967 62.38 65.03 62.22C64.87 62.0667 64.79 61.7767 64.79 61.35V60.66L62.26 60.8L62.22 60.18L64.79 60.02V59.23L62.78 59.35L62.75 58.75L64.79 58.63V57.85C63.9233 57.93 63.2633 57.9833 62.81 58.01L62.75 57.4C63.59 57.3467 64.5667 57.26 65.68 57.14C66.7933 57.02 67.7 56.9 68.4 56.78L68.51 57.38C67.77 57.5133 66.7733 57.6433 65.52 57.77V58.58L68.56 58.4L68.59 59L65.52 59.18V59.98L69.33 59.74L69.37 60.4L65.52 60.62V61.15C65.52 61.3967 65.56 61.5633 65.64 61.65C65.7267 61.73 65.89 61.77 66.13 61.77H67.65C67.8433 61.77 67.9833 61.7567 68.07 61.73C68.1567 61.7033 68.22 61.6533 68.26 61.58C68.3 61.5 68.3267 61.3733 68.34 61.2L68.35 60.61ZM76.35 58.89C76.5767 59.59 76.93 60.18 77.41 60.66C77.8967 61.14 78.5533 61.56 79.38 61.92L78.97 62.67C78.23 62.3233 77.6067 61.9133 77.1 61.44C76.6 60.96 76.21 60.3967 75.93 59.75C75.7233 60.31 75.3967 60.8267 74.95 61.3C74.51 61.7733 73.92 62.25 73.18 62.73L72.75 62.02C73.57 61.54 74.1867 61.06 74.6 60.58C75.0133 60.0933 75.2833 59.53 75.41 58.89H73.36V58.15H75.49V57.95V55.88H73.8V55.14H75.5V53.53H76.26V55.14H78.52V58.15H79.36V58.89H76.35ZM73.62 60.16L73.68 60.57C73.2933 60.69 72.7767 60.8533 72.13 61.06C71.4833 61.26 71.03 61.4067 70.77 61.5L70.59 60.7C70.7367 60.6667 71.1333 60.5567 71.78 60.37V57H70.63V56.26H71.78V53.61H72.49V56.26H73.59V57H72.49V60.15C73.0433 59.9767 73.4 59.86 73.56 59.8L73.62 60.16ZM76.24 57.9C76.24 58.0133 76.2367 58.0967 76.23 58.15H77.8V55.88H76.25L76.24 57.9ZM89.34 59.26H85.97C85.89 59.5067 85.8167 59.7067 85.75 59.86C85.75 59.86 86.56 60.33 88.18 61.27L89.3 61.92L88.91 62.64C88.2233 62.2 87.0433 61.48 85.37 60.48C85.0167 60.9533 84.4967 61.36 83.81 61.7C83.1233 62.0333 82.17 62.3667 80.95 62.7L80.66 61.89C81.6333 61.6367 82.4033 61.3967 82.97 61.17C83.5433 60.9367 84 60.67 84.34 60.37C84.68 60.07 84.9333 59.7 85.1 59.26H80.68V58.53H85.31C85.41 58.01 85.4767 57.3267 85.51 56.48C85.5233 56.08 85.5333 55.6333 85.54 55.14C85.5533 54.6467 85.5633 54.2233 85.57 53.87V53.61H86.36C86.36 54.0367 86.3533 54.5433 86.34 55.13C86.3333 55.71 86.3233 56.1967 86.31 56.59C86.2767 57.3967 86.2167 58.0433 86.13 58.53H89.34V59.26ZM84.44 56.2C84.0467 55.92 83.31 55.42 82.23 54.7C82.07 54.6 81.9733 54.5367 81.94 54.51L82.32 53.88C82.6733 54.0867 83.0967 54.3533 83.59 54.68C84.09 55.0067 84.5133 55.2933 84.86 55.54L84.44 56.2ZM83.74 58.11C83.26 57.77 82.5267 57.3067 81.54 56.72L81.22 56.52L81.6 55.87C82.8467 56.6167 83.6967 57.14 84.15 57.44L83.74 58.11Z" fill="black"/>
<path d="M187.646 106.646C187.451 106.842 187.451 107.158 187.646 107.354L190.828 110.536C191.024 110.731 191.34 110.731 191.536 110.536C191.731 110.34 191.731 110.024 191.536 109.828L188.707 107L191.536 104.172C191.731 103.976 191.731 103.66 191.536 103.464C191.34 103.269 191.024 103.269 190.828 103.464L187.646 106.646ZM221 106.5H188V107.5H221V106.5Z" fill="black"/>
<path d="M187.646 49.6464C187.451 49.8417 187.451 50.1583 187.646 50.3536L190.828 53.5355C191.024 53.7308 191.34 53.7308 191.536 53.5355C191.731 53.3403 191.731 53.0237 191.536 52.8284L188.707 50L191.536 47.1716C191.731 46.9763 191.731 46.6597 191.536 46.4645C191.34 46.2692 191.024 46.2692 190.828 46.4645L187.646 49.6464ZM221 49.5L188 49.5V50.5L221 50.5V49.5Z" fill="black"/>
<path d="M223.993 111V105.7H224.823V106.44H224.873C225.04 106.173 225.253 105.96 225.513 105.8C225.78 105.64 226.053 105.56 226.333 105.56C226.673 105.56 226.97 105.653 227.223 105.84C227.477 106.027 227.677 106.297 227.823 106.65H227.873C228.053 106.31 228.297 106.043 228.603 105.85C228.91 105.657 229.253 105.56 229.633 105.56C230.193 105.56 230.63 105.743 230.943 106.11C231.257 106.477 231.413 106.987 231.413 107.64V111H230.583V107.76C230.583 107.327 230.48 106.98 230.273 106.72C230.067 106.453 229.793 106.32 229.453 106.32C229.053 106.32 228.73 106.46 228.483 106.74C228.243 107.02 228.123 107.393 228.123 107.86V111H227.283V107.76C227.283 107.327 227.18 106.98 226.973 106.72C226.767 106.453 226.497 106.32 226.163 106.32C225.763 106.32 225.44 106.463 225.193 106.75C224.947 107.03 224.823 107.4 224.823 107.86V111H223.993ZM237.202 107.9C237.202 108.133 237.182 108.36 237.142 108.58H233.402C233.435 109.133 233.599 109.57 233.892 109.89C234.185 110.21 234.575 110.37 235.062 110.37C235.335 110.37 235.592 110.303 235.832 110.17C236.072 110.037 236.279 109.84 236.452 109.58L237.102 110.03C236.629 110.763 235.949 111.13 235.062 111.13C234.282 111.13 233.665 110.883 233.212 110.39C232.765 109.897 232.542 109.22 232.542 108.36C232.542 107.493 232.755 106.81 233.182 106.31C233.609 105.81 234.195 105.56 234.942 105.56C235.642 105.56 236.192 105.77 236.592 106.19C236.999 106.61 237.202 107.18 237.202 107.9ZM236.352 107.83C236.352 107.37 236.222 107.003 235.962 106.73C235.709 106.457 235.369 106.32 234.942 106.32C234.542 106.32 234.209 106.453 233.942 106.72C233.675 106.987 233.505 107.357 233.432 107.83H236.352ZM238.378 111V105.7H239.208V106.44H239.258C239.425 106.173 239.638 105.96 239.898 105.8C240.165 105.64 240.438 105.56 240.718 105.56C241.058 105.56 241.355 105.653 241.608 105.84C241.862 106.027 242.062 106.297 242.208 106.65H242.258C242.438 106.31 242.682 106.043 242.988 105.85C243.295 105.657 243.638 105.56 244.018 105.56C244.578 105.56 245.015 105.743 245.328 106.11C245.642 106.477 245.798 106.987 245.798 107.64V111H244.968V107.76C244.968 107.327 244.865 106.98 244.658 106.72C244.452 106.453 244.178 106.32 243.838 106.32C243.438 106.32 243.115 106.46 242.868 106.74C242.628 107.02 242.508 107.393 242.508 107.86V111H241.668V107.76C241.668 107.327 241.565 106.98 241.358 106.72C241.152 106.453 240.882 106.32 240.548 106.32C240.148 106.32 239.825 106.463 239.578 106.75C239.332 107.03 239.208 107.4 239.208 107.86V111H238.378ZM246.467 111.75H251.047V112.53H246.467V111.75ZM251.767 111V103.4H252.597V106.45H252.647C252.807 106.183 253.04 105.97 253.347 105.81C253.66 105.643 253.974 105.56 254.287 105.56C254.874 105.56 255.334 105.743 255.667 106.11C256 106.47 256.167 106.98 256.167 107.64V111H255.337V107.76C255.337 107.333 255.217 106.987 254.977 106.72C254.737 106.453 254.437 106.32 254.077 106.32C253.637 106.32 253.28 106.463 253.007 106.75C252.734 107.03 252.597 107.4 252.597 107.86V111H251.767ZM261.958 107.9C261.958 108.133 261.938 108.36 261.898 108.58H258.158C258.191 109.133 258.355 109.57 258.648 109.89C258.941 110.21 259.331 110.37 259.818 110.37C260.091 110.37 260.348 110.303 260.588 110.17C260.828 110.037 261.035 109.84 261.208 109.58L261.858 110.03C261.385 110.763 260.705 111.13 259.818 111.13C259.038 111.13 258.421 110.883 257.968 110.39C257.521 109.897 257.298 109.22 257.298 108.36C257.298 107.493 257.511 106.81 257.938 106.31C258.365 105.81 258.951 105.56 259.698 105.56C260.398 105.56 260.948 105.77 261.348 106.19C261.755 106.61 261.958 107.18 261.958 107.9ZM261.108 107.83C261.108 107.37 260.978 107.003 260.718 106.73C260.465 106.457 260.125 106.32 259.698 106.32C259.298 106.32 258.965 106.453 258.698 106.72C258.431 106.987 258.261 107.357 258.188 107.83H261.108ZM264.554 111.14C264.041 111.14 263.631 111.007 263.324 110.74C263.024 110.467 262.874 110.107 262.874 109.66C262.874 108.513 263.747 107.94 265.494 107.94H266.254V107.51C266.254 107.15 266.144 106.863 265.924 106.65C265.704 106.43 265.414 106.32 265.054 106.32C264.607 106.32 264.161 106.513 263.714 106.9L263.224 106.34C263.757 105.82 264.381 105.56 265.094 105.56C265.707 105.56 266.191 105.727 266.544 106.06C266.904 106.393 267.084 106.843 267.084 107.41V111H266.254V110.24H266.194C266.047 110.507 265.821 110.723 265.514 110.89C265.207 111.057 264.887 111.14 264.554 111.14ZM264.704 110.38C264.924 110.38 265.154 110.33 265.394 110.23C265.634 110.13 265.837 109.977 266.004 109.77C266.171 109.557 266.254 109.293 266.254 108.98V108.7H265.654C264.994 108.7 264.507 108.777 264.194 108.93C263.881 109.077 263.724 109.303 263.724 109.61C263.724 109.843 263.811 110.03 263.984 110.17C264.164 110.31 264.404 110.38 264.704 110.38ZM268.476 113.39V105.7H269.306V106.46H269.356C269.556 106.18 269.799 105.96 270.086 105.8C270.379 105.64 270.693 105.56 271.026 105.56C271.453 105.56 271.836 105.677 272.176 105.91C272.523 106.137 272.793 106.457 272.986 106.87C273.179 107.277 273.276 107.737 273.276 108.25C273.276 108.803 273.179 109.3 272.986 109.74C272.793 110.173 272.523 110.513 272.176 110.76C271.836 111.007 271.453 111.13 271.026 111.13C270.666 111.13 270.343 111.053 270.056 110.9C269.776 110.747 269.543 110.527 269.356 110.24H269.306V113.39H268.476ZM269.266 108.35C269.266 108.73 269.329 109.07 269.456 109.37C269.589 109.67 269.773 109.903 270.006 110.07C270.239 110.237 270.506 110.32 270.806 110.32C271.119 110.32 271.399 110.237 271.646 110.07C271.893 109.903 272.086 109.67 272.226 109.37C272.366 109.07 272.436 108.73 272.436 108.35C272.436 107.97 272.366 107.63 272.226 107.33C272.093 107.03 271.903 106.797 271.656 106.63C271.416 106.463 271.143 106.38 270.836 106.38C270.536 106.38 270.266 106.463 270.026 106.63C269.786 106.797 269.599 107.03 269.466 107.33C269.333 107.63 269.266 107.97 269.266 108.35ZM273.732 111.75H278.312V112.53H273.732V111.75ZM279.033 103.4H279.863V109.9C279.863 110.173 279.999 110.31 280.273 110.31H280.523V111.09H280.083C279.383 111.09 279.033 110.767 279.033 110.12V103.4ZM283.673 111.14C283.186 111.14 282.76 111.027 282.393 110.8C282.026 110.573 281.743 110.25 281.543 109.83C281.35 109.41 281.253 108.917 281.253 108.35C281.253 107.783 281.35 107.29 281.543 106.87C281.743 106.45 282.026 106.127 282.393 105.9C282.76 105.673 283.186 105.56 283.673 105.56C284.16 105.56 284.583 105.673 284.943 105.9C285.31 106.127 285.593 106.45 285.793 106.87C285.993 107.29 286.093 107.783 286.093 108.35C286.093 108.917 285.993 109.41 285.793 109.83C285.593 110.25 285.31 110.573 284.943 110.8C284.583 111.027 284.16 111.14 283.673 111.14ZM283.673 110.36C284.153 110.36 284.533 110.18 284.813 109.82C285.1 109.46 285.243 108.97 285.243 108.35C285.243 107.73 285.1 107.24 284.813 106.88C284.533 106.52 284.153 106.34 283.673 106.34C283.193 106.34 282.81 106.52 282.523 106.88C282.243 107.24 282.103 107.73 282.103 108.35C282.103 108.97 282.243 109.46 282.523 109.82C282.81 110.18 283.193 110.36 283.673 110.36ZM288.495 111.6C288.115 110.953 287.818 110.23 287.605 109.43C287.391 108.623 287.285 107.847 287.285 107.1C287.285 106.347 287.391 105.57 287.605 104.77C287.818 103.97 288.115 103.247 288.495 102.6H289.325C288.938 103.273 288.638 104.01 288.425 104.81C288.218 105.603 288.115 106.367 288.115 107.1C288.115 107.82 288.221 108.58 288.435 109.38C288.648 110.18 288.945 110.92 289.325 111.6H288.495ZM289.961 111.6C290.347 110.927 290.644 110.19 290.851 109.39C291.064 108.59 291.171 107.827 291.171 107.1C291.171 106.367 291.064 105.603 290.851 104.81C290.644 104.01 290.347 103.273 289.961 102.6H290.791C291.177 103.247 291.474 103.97 291.681 104.77C291.894 105.563 292.001 106.34 292.001 107.1C292.001 107.853 291.894 108.63 291.681 109.43C291.474 110.23 291.177 110.953 290.791 111.6H289.961Z" fill="black"/>
<path d="M223.911 52V46.7H224.741V47.44H224.791C224.958 47.1733 225.171 46.96 225.431 46.8C225.698 46.64 225.971 46.56 226.251 46.56C226.591 46.56 226.888 46.6533 227.141 46.84C227.395 47.0267 227.595 47.2967 227.741 47.65H227.791C227.971 47.31 228.215 47.0433 228.521 46.85C228.828 46.6567 229.171 46.56 229.551 46.56C230.111 46.56 230.548 46.7433 230.861 47.11C231.175 47.4767 231.331 47.9867 231.331 48.64V52H230.501V48.76C230.501 48.3267 230.398 47.98 230.191 47.72C229.985 47.4533 229.711 47.32 229.371 47.32C228.971 47.32 228.648 47.46 228.401 47.74C228.161 48.02 228.041 48.3933 228.041 48.86V52H227.201V48.76C227.201 48.3267 227.098 47.98 226.891 47.72C226.685 47.4533 226.415 47.32 226.081 47.32C225.681 47.32 225.358 47.4633 225.111 47.75C224.865 48.03 224.741 48.4 224.741 48.86V52H223.911ZM237.12 48.9C237.12 49.1333 237.1 49.36 237.06 49.58H233.32C233.353 50.1333 233.517 50.57 233.81 50.89C234.103 51.21 234.493 51.37 234.98 51.37C235.253 51.37 235.51 51.3033 235.75 51.17C235.99 51.0367 236.197 50.84 236.37 50.58L237.02 51.03C236.547 51.7633 235.867 52.13 234.98 52.13C234.2 52.13 233.583 51.8833 233.13 51.39C232.683 50.8967 232.46 50.22 232.46 49.36C232.46 48.4933 232.673 47.81 233.1 47.31C233.527 46.81 234.113 46.56 234.86 46.56C235.56 46.56 236.11 46.77 236.51 47.19C236.917 47.61 237.12 48.18 237.12 48.9ZM236.27 48.83C236.27 48.37 236.14 48.0033 235.88 47.73C235.627 47.4567 235.287 47.32 234.86 47.32C234.46 47.32 234.127 47.4533 233.86 47.72C233.593 47.9867 233.423 48.3567 233.35 48.83H236.27ZM238.296 52V46.7H239.126V47.44H239.176C239.343 47.1733 239.556 46.96 239.816 46.8C240.083 46.64 240.356 46.56 240.636 46.56C240.976 46.56 241.273 46.6533 241.526 46.84C241.78 47.0267 241.98 47.2967 242.126 47.65H242.176C242.356 47.31 242.6 47.0433 242.906 46.85C243.213 46.6567 243.556 46.56 243.936 46.56C244.496 46.56 244.933 46.7433 245.246 47.11C245.56 47.4767 245.716 47.9867 245.716 48.64V52H244.886V48.76C244.886 48.3267 244.783 47.98 244.576 47.72C244.37 47.4533 244.096 47.32 243.756 47.32C243.356 47.32 243.033 47.46 242.786 47.74C242.546 48.02 242.426 48.3933 242.426 48.86V52H241.586V48.76C241.586 48.3267 241.483 47.98 241.276 47.72C241.07 47.4533 240.8 47.32 240.466 47.32C240.066 47.32 239.743 47.4633 239.496 47.75C239.25 48.03 239.126 48.4 239.126 48.86V52H238.296ZM246.385 52.75H250.965V53.53H246.385V52.75ZM251.685 52V44.4H252.515V47.45H252.565C252.765 47.1767 253.008 46.9633 253.295 46.81C253.588 46.65 253.902 46.57 254.235 46.57C254.662 46.57 255.045 46.6867 255.385 46.92C255.732 47.1467 256.002 47.4633 256.195 47.87C256.388 48.2767 256.485 48.7367 256.485 49.25C256.485 49.8033 256.388 50.3 256.195 50.74C256.002 51.1733 255.732 51.5133 255.385 51.76C255.045 52.0067 254.662 52.13 254.235 52.13C253.882 52.13 253.562 52.0533 253.275 51.9C252.988 51.7467 252.752 51.5267 252.565 51.24H252.515V52H251.685ZM252.475 49.35C252.475 49.73 252.538 50.07 252.665 50.37C252.798 50.67 252.982 50.9033 253.215 51.07C253.455 51.2367 253.722 51.32 254.015 51.32C254.322 51.32 254.598 51.2367 254.845 51.07C255.092 50.9033 255.285 50.67 255.425 50.37C255.565 50.07 255.635 49.73 255.635 49.35C255.635 48.97 255.565 48.63 255.425 48.33C255.292 48.03 255.105 47.7967 254.865 47.63C254.625 47.4633 254.352 47.38 254.045 47.38C253.745 47.38 253.475 47.4633 253.235 47.63C252.995 47.7967 252.808 48.03 252.675 48.33C252.542 48.63 252.475 48.97 252.475 49.35ZM257.661 52V46.7H258.491V47.71H258.541C258.761 47.35 259.041 47.07 259.381 46.87C259.721 46.6633 260.098 46.56 260.511 46.56H260.581V47.46H260.491C260.085 47.46 259.731 47.5267 259.431 47.66C259.131 47.7933 258.898 47.9767 258.731 48.21C258.571 48.4367 258.491 48.6833 258.491 48.95V52H257.661ZM265.711 52H264.671L262.711 49.47L262.261 49.91V52H261.431V44.4H262.261V48.84L264.431 46.7H265.581L263.301 48.91L265.711 52Z" fill="black"/>
<path d="M41.6464 45.3536C41.8417 45.5488 42.1583 45.5488 42.3536 45.3536L45.5355 42.1716C45.7308 41.9763 45.7308 41.6597 45.5355 41.4645C45.3403 41.2692 45.0237 41.2692 44.8284 41.4645L42 44.2929L39.1716 41.4645C38.9763 41.2692 38.6597 41.2692 38.4645 41.4645C38.2692 41.6597 38.2692 41.9763 38.4645 42.1716L41.6464 45.3536ZM41.5 32L41.5 45L42.5 45L42.5 32L41.5 32Z" fill="black"/>
<path d="M31.9739 27V21.7H32.8039V22.44H32.8539C33.0206 22.1733 33.2339 21.96 33.4939 21.8C33.7606 21.64 34.0339 21.56 34.3139 21.56C34.6539 21.56 34.9506 21.6533 35.2039 21.84C35.4572 22.0267 35.6572 22.2967 35.8039 22.65H35.8539C36.0339 22.31 36.2772 22.0433 36.5839 21.85C36.8906 21.6567 37.2339 21.56 37.6139 21.56C38.1739 21.56 38.6106 21.7433 38.9239 22.11C39.2372 22.4767 39.3939 22.9867 39.3939 23.64V27H38.5639V23.76C38.5639 23.3267 38.4606 22.98 38.2539 22.72C38.0472 22.4533 37.7739 22.32 37.4339 22.32C37.0339 22.32 36.7106 22.46 36.4639 22.74C36.2239 23.02 36.1039 23.3933 36.1039 23.86V27H35.2639V23.76C35.2639 23.3267 35.1606 22.98 34.9539 22.72C34.7472 22.4533 34.4772 22.32 34.1439 22.32C33.7439 22.32 33.4206 22.4633 33.1739 22.75C32.9272 23.03 32.8039 23.4 32.8039 23.86V27H31.9739ZM45.1825 23.9C45.1825 24.1333 45.1625 24.36 45.1225 24.58H41.3825C41.4158 25.1333 41.5792 25.57 41.8725 25.89C42.1658 26.21 42.5558 26.37 43.0425 26.37C43.3158 26.37 43.5725 26.3033 43.8125 26.17C44.0525 26.0367 44.2592 25.84 44.4325 25.58L45.0825 26.03C44.6092 26.7633 43.9292 27.13 43.0425 27.13C42.2625 27.13 41.6458 26.8833 41.1925 26.39C40.7458 25.8967 40.5225 25.22 40.5225 24.36C40.5225 23.4933 40.7358 22.81 41.1625 22.31C41.5892 21.81 42.1758 21.56 42.9225 21.56C43.6225 21.56 44.1725 21.77 44.5725 22.19C44.9792 22.61 45.1825 23.18 45.1825 23.9ZM44.3325 23.83C44.3325 23.37 44.2025 23.0033 43.9425 22.73C43.6892 22.4567 43.3492 22.32 42.9225 22.32C42.5225 22.32 42.1892 22.4533 41.9225 22.72C41.6558 22.9867 41.4858 23.3567 41.4125 23.83H44.3325ZM46.3587 27V21.7H47.1887V22.44H47.2387C47.4053 22.1733 47.6187 21.96 47.8787 21.8C48.1453 21.64 48.4187 21.56 48.6987 21.56C49.0387 21.56 49.3353 21.6533 49.5887 21.84C49.842 22.0267 50.042 22.2967 50.1887 22.65H50.2387C50.4187 22.31 50.662 22.0433 50.9687 21.85C51.2753 21.6567 51.6187 21.56 51.9987 21.56C52.5587 21.56 52.9953 21.7433 53.3087 22.11C53.622 22.4767 53.7787 22.9867 53.7787 23.64V27H52.9487V23.76C52.9487 23.3267 52.8453 22.98 52.6387 22.72C52.432 22.4533 52.1587 22.32 51.8187 22.32C51.4187 22.32 51.0953 22.46 50.8487 22.74C50.6087 23.02 50.4887 23.3933 50.4887 23.86V27H49.6487V23.76C49.6487 23.3267 49.5453 22.98 49.3387 22.72C49.132 22.4533 48.862 22.32 48.5287 22.32C48.1287 22.32 47.8053 22.4633 47.5587 22.75C47.312 23.03 47.1887 23.4 47.1887 23.86V27H46.3587ZM54.4473 27.75H59.0273V28.53H54.4473V27.75ZM59.7473 27V19.4H60.5773V22.45H60.6273C60.7873 22.1833 61.0207 21.97 61.3273 21.81C61.6407 21.6433 61.954 21.56 62.2673 21.56C62.854 21.56 63.314 21.7433 63.6473 22.11C63.9807 22.47 64.1473 22.98 64.1473 23.64V27H63.3173V23.76C63.3173 23.3333 63.1973 22.9867 62.9573 22.72C62.7173 22.4533 62.4173 22.32 62.0573 22.32C61.6173 22.32 61.2607 22.4633 60.9873 22.75C60.714 23.03 60.5773 23.4 60.5773 23.86V27H59.7473ZM69.9384 23.9C69.9384 24.1333 69.9184 24.36 69.8784 24.58H66.1384C66.1717 25.1333 66.335 25.57 66.6284 25.89C66.9217 26.21 67.3117 26.37 67.7984 26.37C68.0717 26.37 68.3284 26.3033 68.5684 26.17C68.8084 26.0367 69.015 25.84 69.1884 25.58L69.8384 26.03C69.365 26.7633 68.685 27.13 67.7984 27.13C67.0184 27.13 66.4017 26.8833 65.9484 26.39C65.5017 25.8967 65.2784 25.22 65.2784 24.36C65.2784 23.4933 65.4917 22.81 65.9184 22.31C66.345 21.81 66.9317 21.56 67.6784 21.56C68.3784 21.56 68.9284 21.77 69.3284 22.19C69.735 22.61 69.9384 23.18 69.9384 23.9ZM69.0884 23.83C69.0884 23.37 68.9584 23.0033 68.6984 22.73C68.445 22.4567 68.105 22.32 67.6784 22.32C67.2784 22.32 66.945 22.4533 66.6784 22.72C66.4117 22.9867 66.2417 23.3567 66.1684 23.83H69.0884ZM72.5345 27.14C72.0212 27.14 71.6112 27.0067 71.3045 26.74C71.0045 26.4667 70.8545 26.1067 70.8545 25.66C70.8545 24.5133 71.7279 23.94 73.4745 23.94H74.2345V23.51C74.2345 23.15 74.1245 22.8633 73.9045 22.65C73.6845 22.43 73.3945 22.32 73.0345 22.32C72.5879 22.32 72.1412 22.5133 71.6945 22.9L71.2045 22.34C71.7379 21.82 72.3612 21.56 73.0745 21.56C73.6879 21.56 74.1712 21.7267 74.5245 22.06C74.8845 22.3933 75.0645 22.8433 75.0645 23.41V27H74.2345V26.24H74.1745C74.0279 26.5067 73.8012 26.7233 73.4945 26.89C73.1879 27.0567 72.8679 27.14 72.5345 27.14ZM72.6845 26.38C72.9045 26.38 73.1345 26.33 73.3745 26.23C73.6145 26.13 73.8179 25.9767 73.9845 25.77C74.1512 25.5567 74.2345 25.2933 74.2345 24.98V24.7H73.6345C72.9745 24.7 72.4879 24.7767 72.1745 24.93C71.8612 25.0767 71.7045 25.3033 71.7045 25.61C71.7045 25.8433 71.7912 26.03 71.9645 26.17C72.1445 26.31 72.3845 26.38 72.6845 26.38ZM76.4563 29.39V21.7H77.2863V22.46H77.3363C77.5363 22.18 77.7797 21.96 78.0663 21.8C78.3597 21.64 78.673 21.56 79.0063 21.56C79.433 21.56 79.8163 21.6767 80.1563 21.91C80.503 22.1367 80.773 22.4567 80.9663 22.87C81.1597 23.2767 81.2563 23.7367 81.2563 24.25C81.2563 24.8033 81.1597 25.3 80.9663 25.74C80.773 26.1733 80.503 26.5133 80.1563 26.76C79.8163 27.0067 79.433 27.13 79.0063 27.13C78.6463 27.13 78.323 27.0533 78.0363 26.9C77.7563 26.7467 77.523 26.5267 77.3363 26.24H77.2863V29.39H76.4563ZM77.2463 24.35C77.2463 24.73 77.3097 25.07 77.4363 25.37C77.5697 25.67 77.753 25.9033 77.9863 26.07C78.2197 26.2367 78.4863 26.32 78.7863 26.32C79.0997 26.32 79.3797 26.2367 79.6263 26.07C79.873 25.9033 80.0663 25.67 80.2063 25.37C80.3463 25.07 80.4163 24.73 80.4163 24.35C80.4163 23.97 80.3463 23.63 80.2063 23.33C80.073 23.03 79.883 22.7967 79.6363 22.63C79.3963 22.4633 79.123 22.38 78.8163 22.38C78.5163 22.38 78.2463 22.4633 78.0063 22.63C77.7663 22.7967 77.5797 23.03 77.4463 23.33C77.313 23.63 77.2463 23.97 77.2463 24.35ZM81.7129 27.75H86.2929V28.53H81.7129V27.75ZM87.013 27V19.4H87.843V22.45H87.893C88.053 22.1833 88.2863 21.97 88.593 21.81C88.9063 21.6433 89.2196 21.56 89.533 21.56C90.1196 21.56 90.5796 21.7433 90.913 22.11C91.2463 22.47 91.413 22.98 91.413 23.64V27H90.583V23.76C90.583 23.3333 90.463 22.9867 90.223 22.72C89.983 22.4533 89.683 22.32 89.323 22.32C88.883 22.32 88.5263 22.4633 88.253 22.75C87.9796 23.03 87.843 23.4 87.843 23.86V27H87.013ZM93.894 19.83C93.894 20.0033 93.8407 20.14 93.734 20.24C93.6273 20.34 93.4873 20.39 93.314 20.39C93.1407 20.39 93.004 20.34 92.904 20.24C92.8107 20.14 92.764 20.0033 92.764 19.83C92.764 19.6567 92.814 19.52 92.914 19.42C93.014 19.3133 93.1473 19.26 93.314 19.26C93.4873 19.26 93.6273 19.3133 93.734 19.42C93.8407 19.52 93.894 19.6567 93.894 19.83ZM93.744 21.7V27H92.914V21.7H93.744ZM96.5142 27.6C96.1342 26.9533 95.8376 26.23 95.6242 25.43C95.4109 24.6233 95.3042 23.8467 95.3042 23.1C95.3042 22.3467 95.4109 21.57 95.6242 20.77C95.8376 19.97 96.1342 19.2467 96.5142 18.6H97.3442C96.9576 19.2733 96.6576 20.01 96.4442 20.81C96.2376 21.6033 96.1342 22.3667 96.1342 23.1C96.1342 23.82 96.2409 24.58 96.4542 25.38C96.6676 26.18 96.9642 26.92 97.3442 27.6H96.5142ZM97.9802 27.6C98.3668 26.9267 98.6635 26.19 98.8702 25.39C99.0835 24.59 99.1902 23.8267 99.1902 23.1C99.1902 22.3667 99.0835 21.6033 98.8702 20.81C98.6635 20.01 98.3668 19.2733 97.9802 18.6H98.8102C99.1968 19.2467 99.4935 19.97 99.7002 20.77C99.9135 21.5633 100.02 22.34 100.02 23.1C100.02 23.8533 99.9135 24.63 99.7002 25.43C99.4935 26.23 99.1968 26.9533 98.8102 27.6H97.9802Z" fill="black"/>
<rect x="27.5" y="48.5" width="15" height="19" stroke="#F87171" stroke-width="3"/>
<rect x="171.5" y="34.5" width="15" height="19" stroke="#F87171" stroke-width="3"/>
<rect x="171.5" y="90.5" width="15" height="19" stroke="#F87171" stroke-width="3"/>
</svg>
